# Blender 4.5.14 LTS
# www.blender.org
mtllib banner_red.mtl
o banner_red
v -0.500000 2.680000 0.100000 0.8078 0.8078 0.8078
v -0.500000 2.690000 0.082679 0.7294 0.7294 0.7294
v 0.500000 2.680000 0.100000 0.8039 0.8039 0.8039
v 0.500000 2.690000 0.082679 0.7294 0.7294 0.7294
v -0.500000 2.710000 0.082679 0.7294 0.7294 0.7294
v 0.500000 2.720000 0.100000 0.8039 0.8039 0.8039
v 0.500000 2.710000 0.082679 0.7294 0.7294 0.7294
v 0.500000 2.690000 0.117321 0.8627 0.8627 0.8627
v 0.500000 2.710000 0.117321 0.8666 0.8666 0.8666
v -0.500000 2.690000 0.117321 0.8666 0.8666 0.8666
v -0.500000 2.710000 0.117321 0.8627 0.8627 0.8627
v -0.500000 2.720000 0.100000 0.8039 0.8039 0.8039
v -0.500000 2.715000 0.074019 0.7686 0.7686 0.7686
v -0.500000 2.685000 0.074019 0.7568 0.7568 0.7568
v -0.530000 2.717500 0.069689 0.7725 0.7725 0.7725
v -0.500000 2.670000 0.100000 0.8627 0.8627 0.8627
v -0.500000 2.685000 0.125981 0.9333 0.9333 0.9333
v -0.500000 2.715000 0.125981 0.9372 0.9372 0.9372
v -0.500000 2.730000 0.100000 0.8588 0.8588 0.8588
v -0.530000 2.735000 0.100000 0.8784 0.8784 0.8784
v -0.530000 2.682500 0.069689 0.7686 0.7686 0.7686
v -0.530000 2.665000 0.100000 0.8784 0.8784 0.8784
v -0.560000 2.700000 0.100000 0.8745 0.8745 0.8745
v -0.530000 2.682500 0.130311 0.9647 0.9647 0.9647
v -0.530000 2.717500 0.130311 0.9647 0.9647 0.9647
v -0.390000 2.690000 0.100000 0.7020 0.7020 0.7020
v -0.390000 2.710000 0.100000 0.7020 0.7020 0.7020
v -0.390000 2.710000 0.000000 0.7804 0.7804 0.7804
v -0.410000 2.710000 0.000000 0.7921 0.7921 0.7921
v -0.390000 2.690000 0.000000 0.7608 0.7608 0.7608
v -0.410000 2.710000 0.100000 0.7020 0.7020 0.7020
v -0.410000 2.690000 0.000000 0.7804 0.7804 0.7804
v -0.410000 2.690000 0.100000 0.7020 0.7020 0.7020
v 0.500000 2.715000 0.074019 0.7686 0.7686 0.7686
v 0.530000 2.717500 0.069689 0.7686 0.7686 0.7686
v 0.530000 2.682500 0.069689 0.7686 0.7686 0.7686
v 0.530000 2.717500 0.130311 0.9647 0.9647 0.9647
v 0.500000 2.715000 0.125981 0.9372 0.9372 0.9372
v 0.500000 2.685000 0.125981 0.9372 0.9372 0.9372
v 0.530000 2.735000 0.100000 0.8745 0.8745 0.8745
v 0.530000 2.682500 0.130311 0.9647 0.9647 0.9647
v 0.530000 2.665000 0.100000 0.8745 0.8745 0.8745
v 0.560000 2.700000 0.100000 0.8745 0.8745 0.8745
v 0.500000 2.730000 0.100000 0.8588 0.8588 0.8588
v 0.500000 2.685000 0.074019 0.7647 0.7647 0.7647
v 0.500000 2.670000 0.100000 0.8549 0.8549 0.8549
v 0.390000 2.690000 0.100000 0.7020 0.7020 0.7020
v 0.410000 2.690000 0.000000 0.7725 0.7725 0.7725
v 0.390000 2.690000 0.000000 0.7568 0.7568 0.7568
v 0.390000 2.710000 0.100000 0.7020 0.7020 0.7020
v 0.410000 2.710000 0.100000 0.7020 0.7020 0.7020
v 0.410000 2.710000 0.000000 0.7921 0.7921 0.7921
v 0.390000 2.710000 0.000000 0.7804 0.7804 0.7804
v 0.410000 2.690000 0.100000 0.7020 0.7020 0.7020
vn -0.0000 -0.8660 -0.5000
vn -0.0000 -0.0000 -1.0000
vn -0.0000 0.8660 -0.5000
vn -0.0000 0.8660 0.5000
vn -0.0000 -0.0000 1.0000
vn -0.0000 -0.8660 0.5000
vn 1.0000 -0.0000 -0.0000
vn -1.0000 -0.0000 -0.0000
vn 0.1429 0.8571 -0.4949
vn 0.1429 -0.0000 -0.9897
vn 0.1429 -0.8571 -0.4949
vn 0.1429 -0.8571 0.4949
vn 0.1429 -0.0000 0.9897
vn 0.1429 0.8571 0.4949
vn -0.7593 0.6508 -0.0000
vn -0.7593 0.3254 -0.5636
vn -0.7593 -0.3254 -0.5636
vn -0.7593 -0.6508 -0.0000
vn -0.7593 -0.3254 0.5636
vn -0.7593 0.3254 0.5636
vn -0.0000 1.0000 -0.0000
vn -0.0000 -1.0000 -0.0000
vn -0.1429 -0.8571 -0.4949
vn -0.1429 -0.0000 -0.9897
vn -0.1429 0.8571 -0.4949
vn -0.1429 0.8571 0.4949
vn -0.1429 -0.0000 0.9897
vn -0.1429 -0.8571 0.4949
vn 0.7593 -0.6508 -0.0000
vn 0.7593 -0.3254 -0.5636
vn 0.7593 0.3254 -0.5636
vn 0.7593 0.6508 -0.0000
vn 0.7593 0.3254 0.5636
vn 0.7593 -0.3254 0.5636
vt 0.125488 0.812988
vt 0.135742 0.812988
vt 0.135742 0.874512
vt 0.125488 0.874512
vt 0.145996 0.812988
vt 0.145996 0.874512
vt 0.156250 0.812988
vt 0.156250 0.874512
vt 0.166504 0.812988
vt 0.166504 0.874512
vt 0.176758 0.812988
vt 0.176758 0.874512
vt 0.187012 0.812988
vt 0.187012 0.874512
vt 0.187012 0.843750
vt 0.171631 0.874512
vt 0.140869 0.874512
vt 0.125488 0.843750
vt 0.140869 0.812988
vt 0.171631 0.812988
vt 0.281738 0.844238
vt 0.286784 0.844238
vt 0.286784 0.856272
vt 0.281738 0.856272
vt 0.291829 0.844238
vt 0.291829 0.856272
vt 0.296875 0.844238
vt 0.296875 0.856272
vt 0.301921 0.844238
vt 0.301921 0.856272
vt 0.306966 0.844238
vt 0.306966 0.856272
vt 0.312012 0.844238
vt 0.312012 0.856272
vt 0.284261 0.874512
vt 0.289307 0.874512
vt 0.294352 0.874512
vt 0.299398 0.874512
vt 0.304443 0.874512
vt 0.309489 0.874512
vt 0.281738 0.859375
vt 0.289307 0.844238
vt 0.304443 0.844238
vt 0.312012 0.859375
vt 0.312988 0.844238
vt 0.315410 0.844238
vt 0.315410 0.846660
vt 0.312988 0.846660
vt 0.325098 0.844238
vt 0.325098 0.846660
vt 0.315410 0.856348
vt 0.312988 0.856348
s 1
usemtl props
f 1/1/1 2/2/1 4/3/1 3/4/1
f 2/2/2 5/5/2 7/6/2 4/3/2
f 5/5/3 12/7/3 6/8/3 7/6/3
f 12/7/4 11/9/4 9/10/4 6/8/4
f 11/9/5 10/11/5 8/12/5 9/10/5
f 10/11/6 1/13/6 3/14/6 8/12/6
s 0
f 3/15/7 4/16/7 7/17/7 6/18/7 9/19/7 8/20/7
f 10/16/8 11/17/8 12/18/8 5/19/8 2/20/8 1/15/8
s 1
f 19/21/9 13/22/9 15/23/9 20/24/9
f 13/22/10 14/25/10 21/26/10 15/23/10
f 14/25/11 16/27/11 22/28/11 21/26/11
f 16/27/12 17/29/12 24/30/12 22/28/12
f 17/29/13 18/31/13 25/32/13 24/30/13
f 18/31/14 19/33/14 20/34/14 25/32/14
f 20/24/15 15/23/16 23/35/8
f 15/23/16 21/26/17 23/36/8
f 21/26/17 22/28/18 23/37/8
f 22/28/18 24/30/19 23/38/8
f 24/30/19 25/32/20 23/39/8
f 25/32/20 20/34/15 23/40/8
s 0
f 18/39/7 17/36/7 16/41/7 14/42/7 13/43/7 19/44/7
f 33/45/5 26/46/5 27/47/5 31/48/5
f 30/45/2 32/46/2 29/47/2 28/48/2
f 32/45/8 33/49/8 31/50/8 29/48/8
f 26/45/7 30/49/7 28/50/7 27/48/7
f 31/45/21 27/46/21 28/51/21 29/52/21
f 32/45/22 30/46/22 26/51/22 33/52/22
s 1
f 46/21/23 45/22/23 36/23/23 42/24/23
f 45/22/24 34/25/24 35/26/24 36/23/24
f 34/25/25 44/27/25 40/28/25 35/26/25
f 44/27/26 38/29/26 37/30/26 40/28/26
f 38/29/27 39/31/27 41/32/27 37/30/27
f 39/31/28 46/33/28 42/34/28 41/32/28
f 42/24/29 36/23/30 43/35/7
f 36/23/30 35/26/31 43/36/7
f 35/26/31 40/28/32 43/37/7
f 40/28/32 37/30/33 43/38/7
f 37/30/33 41/32/34 43/39/7
f 41/32/34 42/34/29 43/40/7
s 0
f 39/39/8 38/36/8 44/41/8 34/42/8 45/43/8 46/44/8
f 47/45/5 54/46/5 51/47/5 50/48/5
f 48/45/2 49/46/2 53/47/2 52/48/2
f 49/45/8 47/49/8 50/50/8 53/48/8
f 54/45/7 48/49/7 52/50/7 51/48/7
f 50/45/21 51/46/21 52/51/21 53/52/21
f 49/45/22 48/46/22 54/51/22 47/52/22
o banner_red_cloth
v 0.000000 1.120000 0.105000 0.9333 0.9333 0.9333
v 0.000000 1.120000 0.095000 0.7804 0.7804 0.7804
v -0.400000 0.870000 0.095000 0.8235 0.8235 0.8235
v 0.400000 0.870000 0.095000 0.7921 0.7921 0.7921
v 0.400000 0.870000 0.105000 0.9372 0.9372 0.9372
v 0.400000 2.670000 0.105000 0.8666 0.8666 0.8666
v -0.400000 2.670000 0.105000 0.9137 0.9137 0.9137
v 0.400000 2.670000 0.095000 0.7608 0.7608 0.7608
v -0.400000 0.870000 0.105000 0.9176 0.9176 0.9176
v -0.400000 2.670000 0.095000 0.7372 0.7372 0.7372
vn -0.0000 -0.0000 1.0000
vn -0.0000 -0.0000 -1.0000
vn 0.5300 -0.8480 -0.0000
vn -0.5300 -0.8480 -0.0000
vn 1.0000 -0.0000 -0.0000
vn -0.0000 1.0000 -0.0000
vn -1.0000 -0.0000 -0.0000
vt 0.937988 0.999512
vt 0.937988 0.906738
vt 0.960938 0.919623
vt 0.983887 0.906738
vt 0.983887 0.999512
vt 0.942040 0.906738
vt 0.937988 0.907975
vt 0.942040 0.907975
vt 0.946092 0.906738
vt 0.946092 0.907975
vt 0.961553 0.906738
vt 0.961553 0.907975
vt 0.968425 0.906738
vt 0.968425 0.907975
vt 0.983887 0.907975
s 0
usemtl props
f 61/53/35 63/54/35 55/55/35
f 56/55/36 57/54/36 64/53/36
f 61/53/35 55/55/35 59/56/35
f 58/56/36 56/55/36 64/53/36
f 59/56/35 60/57/35 61/53/35
f 64/53/36 62/57/36 58/56/36
f 55/58/37 63/54/37 57/59/37 56/60/37
f 59/61/38 55/58/38 56/60/38 58/62/38
f 60/63/39 59/61/39 58/62/39 62/64/39
f 61/65/40 60/63/40 62/64/40 64/66/40
f 63/56/41 61/65/41 64/66/41 57/67/41
