# Blender 4.5.14 LTS
# www.blender.org
mtllib bed_straw.mtl
o bed_straw
v 0.382500 0.180000 0.855000 0.9647 0.9647 0.9647
v 0.382500 0.180000 -0.855000 0.9647 0.9647 0.9647
v -0.382500 0.180000 0.855000 0.9686 0.9686 0.9686
v 0.450000 0.000000 0.950000 0.8313 0.8313 0.8313
v 0.450000 0.000000 -0.950000 0.8392 0.8392 0.8392
v -0.382500 0.180000 -0.855000 0.8392 0.8392 0.8392
v -0.450000 0.000000 -0.950000 0.8392 0.8392 0.8392
v -0.450000 0.000000 0.950000 0.8313 0.8313 0.8313
v 0.425011 0.165317 0.150000 0.9137 0.9137 0.9137
v -0.422918 0.224610 0.150000 0.9372 0.9372 0.9372
v -0.425011 0.194683 -0.850000 0.8588 0.8588 0.8588
v -0.422918 0.224610 -0.850000 0.9490 0.9490 0.9490
v 0.425011 0.165317 -0.850000 0.9333 0.9333 0.9333
v 0.422918 0.135390 -0.850000 0.8157 0.8157 0.8157
v 0.422918 0.135390 0.150000 0.8039 0.8039 0.8039
v -0.425011 0.194683 0.150000 0.8431 0.8431 0.8431
vn -0.0000 0.4668 0.8844
vn -0.0000 0.4668 -0.8844
vn -0.9363 0.3511 -0.0000
vn 0.9363 0.3511 -0.0000
vn -0.0000 1.0000 -0.0000
vn -0.0000 -1.0000 -0.0000
vn -0.0000 -0.0000 1.0000
vn -0.0000 -0.0000 -1.0000
vn -0.9976 0.0698 -0.0000
vn 0.9976 -0.0698 -0.0000
vn 0.0698 0.9976 -0.0000
vn -0.0698 -0.9976 -0.0000
vt 0.625488 0.875488
vt 0.737109 0.875488
vt 0.728738 0.900731
vt 0.633860 0.900731
vt 0.749512 0.875488
vt 0.743311 0.888037
vt 0.631689 0.888037
vt 0.680972 0.875488
vt 0.680972 0.999512
vt 0.625488 0.999512
vt 0.684236 0.875488
vt 0.684236 0.999512
vt 0.000488 0.812988
vt 0.062012 0.812988
vt 0.062012 0.815160
vt 0.000488 0.815160
vt 0.062012 0.814834
vt 0.000488 0.814834
vt 0.052783 0.812988
vt 0.052783 0.874512
vt 0.000488 0.874512
s 0
usemtl props
f 8/1/1 4/2/1 1/3/1 3/4/1
f 5/1/2 7/2/2 6/3/2 2/4/2
f 7/1/3 8/5/3 3/6/3 6/7/3
f 4/1/4 5/5/4 2/6/4 1/7/4
f 3/1/5 1/8/5 2/9/5 6/10/5
f 7/1/6 5/11/6 4/12/6 8/10/6
f 16/13/7 15/14/7 9/15/7 10/16/7
f 14/13/8 11/14/8 12/15/8 13/16/8
f 11/13/9 16/14/9 10/17/9 12/18/9
f 15/13/10 14/14/10 13/17/10 9/18/10
f 10/13/11 9/19/11 13/20/11 12/21/11
f 11/13/12 14/19/12 15/20/12 16/21/12
