# Blender 4.5.14 LTS
# www.blender.org
mtllib ceiling_stone.mtl
o ceiling_stone
v -1.000000 3.000000 1.000000 1.0000 1.0000 1.0000
v -1.000000 3.000000 -1.000000 1.0000 1.0000 1.0000
v -1.000000 3.000000 0.000000 1.0000 1.0000 1.0000
v 0.000000 3.000000 0.000000 1.0000 1.0000 1.0000
v 1.000000 3.000000 1.000000 1.0000 1.0000 1.0000
v 0.000000 3.000000 1.000000 1.0000 1.0000 1.0000
v 0.000000 3.000000 -1.000000 1.0000 1.0000 1.0000
v 1.000000 3.000000 -1.000000 1.0000 1.0000 1.0000
v 1.000000 3.000000 0.000000 1.0000 1.0000 1.0000
vn -0.0000 -1.0000 -0.0000
vt 0.750488 0.999512
vt 0.874512 0.999512
vt 0.874512 0.875488
vt 0.750488 0.875488
s 0
usemtl props
f 3/1/1 4/2/1 6/3/1 1/4/1
f 2/1/1 7/2/1 4/3/1 3/4/1
f 4/1/1 9/2/1 5/3/1 6/4/1
f 7/1/1 8/2/1 9/3/1 4/4/1
