# Blender 4.5.14 LTS
# www.blender.org
mtllib chest_wood.mtl
o chest_wood
v -0.400000 0.000000 0.250000 0.7490 0.7490 0.7490
v 0.400000 0.000000 -0.250000 0.7529 0.7529 0.7529
v -0.400000 0.000000 -0.250000 0.7490 0.7490 0.7490
v -0.400000 0.420000 -0.250000 0.9058 0.9058 0.9058
v 0.400000 0.420000 -0.250000 0.9058 0.9058 0.9058
v 0.400000 0.420000 0.250000 0.9058 0.9058 0.9058
v -0.400000 0.420000 0.250000 0.9058 0.9058 0.9058
v 0.400000 0.000000 0.250000 0.7529 0.7529 0.7529
v -0.360000 0.060000 0.260000 0.8353 0.8353 0.8353
v -0.400000 0.060000 0.260000 0.8823 0.8823 0.8823
v -0.360000 0.000000 -0.260000 0.7764 0.7764 0.7764
v -0.400000 0.000000 -0.260000 0.7960 0.7960 0.7960
v -0.360000 0.060000 -0.260000 0.8470 0.8470 0.8470
v -0.400000 0.060000 -0.260000 0.8902 0.8902 0.8902
v -0.360000 0.000000 0.260000 0.7725 0.7725 0.7725
v -0.400000 0.000000 0.260000 0.7960 0.7960 0.7960
v 0.400000 0.000000 0.260000 0.8000 0.8000 0.8000
v 0.400000 0.000000 -0.260000 0.8000 0.8000 0.8000
v 0.360000 0.060000 -0.260000 0.8431 0.8431 0.8431
v 0.360000 0.000000 -0.260000 0.7725 0.7725 0.7725
v 0.360000 0.000000 0.260000 0.7764 0.7764 0.7764
v 0.360000 0.060000 0.260000 0.8353 0.8353 0.8353
v 0.400000 0.060000 0.260000 0.8902 0.8902 0.8902
v 0.400000 0.060000 -0.260000 0.8980 0.8980 0.8980
v -0.410000 0.264302 -0.029698 0.8196 0.8196 0.8196
v -0.410000 0.252988 -0.041012 0.8196 0.8196 0.8196
v -0.410000 0.294000 -0.058000 0.8431 0.8431 0.8431
v -0.402000 0.294000 -0.050000 0.7372 0.7372 0.7372
v -0.402000 0.258645 -0.035355 0.7294 0.7294 0.7294
v -0.410000 0.294000 -0.042000 0.8235 0.8235 0.8235
v -0.418000 0.258645 -0.035355 0.9215 0.9215 0.9215
v -0.418000 0.294000 -0.050000 0.9372 0.9372 0.9372
v -0.410000 0.323698 -0.029698 0.8235 0.8235 0.8235
v -0.418000 0.329355 -0.035355 0.9451 0.9451 0.9451
v -0.410000 0.335012 -0.041012 0.8509 0.8509 0.8509
v -0.402000 0.329355 -0.035355 0.7333 0.7333 0.7333
v -0.410000 0.336000 -0.000000 0.8235 0.8235 0.8235
v -0.410000 0.352000 -0.000000 0.8509 0.8509 0.8509
v -0.402000 0.329355 0.035355 0.7412 0.7412 0.7412
v -0.402000 0.344000 -0.000000 0.7372 0.7372 0.7372
v -0.418000 0.344000 -0.000000 0.9490 0.9490 0.9490
v -0.418000 0.329355 0.035355 0.9490 0.9490 0.9490
v -0.410000 0.335012 0.041012 0.8509 0.8509 0.8509
v -0.410000 0.323698 0.029698 0.8196 0.8196 0.8196
v -0.410000 0.294000 0.058000 0.8470 0.8470 0.8470
v -0.402000 0.294000 0.050000 0.7333 0.7333 0.7333
v -0.410000 0.264302 0.029698 0.8235 0.8235 0.8235
v -0.410000 0.294000 0.042000 0.8196 0.8196 0.8196
v -0.418000 0.294000 0.050000 0.9372 0.9372 0.9372
v -0.410000 0.236000 0.000000 0.7960 0.7960 0.7960
v -0.402000 0.258645 0.035355 0.7294 0.7294 0.7294
v -0.402000 0.244000 0.000000 0.7216 0.7216 0.7216
v -0.410000 0.252000 0.000000 0.8235 0.8235 0.8235
v -0.418000 0.258645 0.035355 0.9215 0.9215 0.9215
v -0.418000 0.244000 0.000000 0.9098 0.9098 0.9098
v -0.410000 0.252988 0.041012 0.8157 0.8157 0.8157
v 0.418000 0.258645 -0.035355 0.9215 0.9215 0.9215
v 0.410000 0.252000 0.000000 0.8274 0.8274 0.8274
v 0.410000 0.236000 0.000000 0.8000 0.8000 0.8000
v 0.410000 0.252988 -0.041012 0.8157 0.8157 0.8157
v 0.410000 0.264302 -0.029698 0.8196 0.8196 0.8196
v 0.402000 0.258645 -0.035355 0.7294 0.7294 0.7294
v 0.402000 0.294000 -0.050000 0.7333 0.7333 0.7333
v 0.418000 0.329355 -0.035355 0.9451 0.9451 0.9451
v 0.418000 0.294000 -0.050000 0.9372 0.9372 0.9372
v 0.410000 0.294000 -0.042000 0.8196 0.8196 0.8196
v 0.402000 0.329355 -0.035355 0.7372 0.7372 0.7372
v 0.410000 0.294000 -0.058000 0.8431 0.8431 0.8431
v 0.418000 0.344000 -0.000000 0.9490 0.9490 0.9490
v 0.410000 0.323698 -0.029698 0.8235 0.8235 0.8235
v 0.410000 0.352000 -0.000000 0.8509 0.8509 0.8509
v 0.410000 0.335012 -0.041012 0.8509 0.8509 0.8509
v 0.410000 0.336000 -0.000000 0.8235 0.8235 0.8235
v 0.402000 0.344000 -0.000000 0.7372 0.7372 0.7372
v 0.402000 0.329355 0.035355 0.7412 0.7412 0.7412
v 0.410000 0.335012 0.041012 0.8509 0.8509 0.8509
v 0.418000 0.329355 0.035355 0.9451 0.9451 0.9451
v 0.418000 0.294000 0.050000 0.9372 0.9372 0.9372
v 0.410000 0.294000 0.042000 0.8235 0.8235 0.8235
v 0.410000 0.323698 0.029698 0.8235 0.8235 0.8235
v 0.402000 0.294000 0.050000 0.7333 0.7333 0.7333
v 0.418000 0.258645 0.035355 0.9255 0.9255 0.9255
v 0.410000 0.294000 0.058000 0.8431 0.8431 0.8431
v 0.410000 0.252988 0.041012 0.8157 0.8157 0.8157
v 0.418000 0.244000 0.000000 0.9137 0.9137 0.9137
v 0.410000 0.264302 0.029698 0.8235 0.8235 0.8235
v 0.402000 0.244000 0.000000 0.7255 0.7255 0.7255
v 0.402000 0.258645 0.035355 0.7294 0.7294 0.7294
v 0.050000 0.420000 0.262000 0.9215 0.9215 0.9215
v -0.050000 0.300000 0.250000 0.8549 0.8549 0.8549
v 0.050000 0.420000 0.250000 0.8588 0.8588 0.8588
v -0.050000 0.420000 0.250000 0.8627 0.8627 0.8627
v 0.050000 0.300000 0.262000 0.8823 0.8823 0.8823
v 0.050000 0.300000 0.250000 0.8549 0.8549 0.8549
v -0.050000 0.420000 0.262000 0.9255 0.9255 0.9255
v -0.050000 0.300000 0.262000 0.8862 0.8862 0.8862
vn -0.0000 -0.0000 1.0000
vn -0.0000 -0.0000 -1.0000
vn -1.0000 -0.0000 -0.0000
vn 1.0000 -0.0000 -0.0000
vn -0.0000 1.0000 -0.0000
vn -0.0000 -1.0000 -0.0000
vn 0.7071 -0.7071 -0.0000
vn 0.7071 -0.5000 -0.5000
vn 0.7071 0.7071 -0.0000
vn 0.7071 0.5000 0.5000
vn -0.7071 0.7071 -0.0000
vn -0.7071 0.5000 0.5000
vn -0.7071 -0.7071 -0.0000
vn -0.7071 -0.5000 -0.5000
vn 0.7071 -0.0000 -0.7071
vn 0.7071 -0.0000 0.7071
vn -0.7071 -0.0000 0.7071
vn -0.7071 -0.0000 -0.7071
vn 0.7071 0.5000 -0.5000
vn 0.7071 -0.5000 0.5000
vn -0.7071 -0.5000 0.5000
vn -0.7071 0.5000 -0.5000
vt 0.187988 0.844238
vt 0.249512 0.844238
vt 0.249512 0.874512
vt 0.187988 0.874512
vt 0.312988 0.844238
vt 0.343262 0.844238
vt 0.343262 0.869668
vt 0.312988 0.869668
vt 0.414551 0.871582
vt 0.417480 0.871582
vt 0.417480 0.873413
vt 0.414551 0.873413
vt 0.343262 0.863159
vt 0.312988 0.863159
vt 0.317832 0.844238
vt 0.317832 0.851504
vt 0.312988 0.851504
vt 0.343262 0.847731
vt 0.312988 0.847731
vt 0.315317 0.844238
vt 0.315317 0.874512
vt 0.312988 0.874512
vt 0.316772 0.844238
vt 0.316772 0.851807
vt 0.312988 0.851807
vt 0.316772 0.859375
vt 0.312988 0.859375
vt 0.316772 0.866943
vt 0.312988 0.866943
vt 0.316772 0.874512
vt 0.320557 0.844238
vt 0.320557 0.851807
vt 0.320557 0.859375
vt 0.320557 0.866943
vt 0.320557 0.874512
vt 0.324341 0.844238
vt 0.324341 0.851807
vt 0.324341 0.859375
vt 0.324341 0.866943
vt 0.324341 0.874512
vt 0.328125 0.844238
vt 0.328125 0.851807
vt 0.328125 0.859375
vt 0.328125 0.866943
vt 0.328125 0.874512
vt 0.331909 0.844238
vt 0.331909 0.851807
vt 0.331909 0.859375
vt 0.331909 0.866943
vt 0.331909 0.874512
vt 0.335693 0.844238
vt 0.335693 0.851807
vt 0.335693 0.859375
vt 0.335693 0.866943
vt 0.335693 0.874512
vt 0.339478 0.844238
vt 0.339478 0.851807
vt 0.339478 0.859375
vt 0.339478 0.866943
vt 0.339478 0.874512
vt 0.343262 0.851807
vt 0.343262 0.859375
vt 0.343262 0.866943
vt 0.343262 0.874512
vt 0.375488 0.859863
vt 0.390137 0.859863
vt 0.390137 0.874512
vt 0.375488 0.874512
vt 0.325098 0.844238
vt 0.325098 0.858770
vt 0.312988 0.858770
vt 0.314441 0.844238
vt 0.314441 0.858770
vt 0.325098 0.845691
vt 0.312988 0.845691
s 0
usemtl props
f 1/1/1 8/2/1 6/3/1 7/4/1
f 2/1/2 3/2/2 4/3/2 5/4/2
f 3/5/3 1/6/3 7/7/3 4/8/3
f 8/5/4 2/6/4 5/7/4 6/8/4
f 7/9/5 6/10/5 5/11/5 4/12/5
f 3/5/6 2/6/6 8/13/6 1/14/6
f 16/5/1 15/15/1 9/16/1 10/17/1
f 11/5/2 12/15/2 14/16/2 13/17/2
f 12/5/3 16/6/3 10/18/3 14/19/3
f 15/5/4 11/6/4 13/18/4 9/19/4
f 10/5/5 9/20/5 13/21/5 14/22/5
f 12/5/6 11/20/6 15/21/6 16/22/6
f 21/5/1 17/15/1 23/16/1 22/17/1
f 18/5/2 20/15/2 19/16/2 24/17/2
f 20/5/3 21/6/3 22/18/3 19/19/3
f 17/5/4 18/6/4 24/18/4 23/19/4
f 22/5/5 23/20/5 24/21/5 19/22/5
f 20/5/6 18/20/6 17/21/6 21/22/6
s 1
f 50/5/7 26/23/8 29/24/8 52/25/7
f 52/25/9 29/24/10 25/26/10 53/27/9
f 53/27/11 25/26/12 31/28/12 55/29/11
f 55/29/13 31/28/14 26/30/14 50/22/13
f 26/23/8 27/31/15 28/32/15 29/24/8
f 29/24/10 28/32/16 30/33/16 25/26/10
f 25/26/12 30/33/17 32/34/17 31/28/12
f 31/28/14 32/34/18 27/35/18 26/30/14
f 27/31/15 35/36/19 36/37/19 28/32/15
f 28/32/16 36/37/20 33/38/20 30/33/16
f 30/33/17 33/38/21 34/39/21 32/34/17
f 32/34/18 34/39/22 35/40/22 27/35/18
f 35/36/19 38/41/9 40/42/9 36/37/19
f 36/37/20 40/42/7 37/43/7 33/38/20
f 33/38/21 37/43/13 41/44/13 34/39/21
f 34/39/22 41/44/11 38/45/11 35/40/22
f 38/41/9 43/46/10 39/47/10 40/42/9
f 40/42/7 39/47/8 44/48/8 37/43/7
f 37/43/13 44/48/14 42/49/14 41/44/13
f 41/44/11 42/49/12 43/50/12 38/45/11
f 43/46/10 45/51/16 46/52/16 39/47/10
f 39/47/8 46/52/15 48/53/15 44/48/8
f 44/48/14 48/53/18 49/54/18 42/49/14
f 42/49/12 49/54/17 45/55/17 43/50/12
f 45/51/16 56/56/20 51/57/20 46/52/16
f 46/52/15 51/57/19 47/58/19 48/53/15
f 48/53/18 47/58/22 54/59/22 49/54/18
f 49/54/17 54/59/21 56/60/21 45/55/17
f 56/56/20 50/6/7 52/61/7 51/57/20
f 51/57/19 52/61/9 53/62/9 47/58/19
f 47/58/22 53/62/11 55/63/11 54/59/22
f 54/59/21 55/63/13 50/64/13 56/60/21
f 59/5/7 60/23/8 57/24/8 85/25/7
f 85/25/9 57/24/10 61/26/10 58/27/9
f 58/27/11 61/26/12 62/28/12 87/29/11
f 87/29/13 62/28/14 60/30/14 59/22/13
f 60/23/8 68/31/15 65/32/15 57/24/8
f 57/24/10 65/32/16 66/33/16 61/26/10
f 61/26/12 66/33/17 63/34/17 62/28/12
f 62/28/14 63/34/18 68/35/18 60/30/14
f 68/31/15 72/36/19 64/37/19 65/32/15
f 65/32/16 64/37/20 70/38/20 66/33/16
f 66/33/17 70/38/21 67/39/21 63/34/17
f 63/34/18 67/39/22 72/40/22 68/35/18
f 72/36/19 71/41/9 69/42/9 64/37/19
f 64/37/20 69/42/7 73/43/7 70/38/20
f 70/38/21 73/43/13 74/44/13 67/39/21
f 67/39/22 74/44/11 71/45/11 72/40/22
f 71/41/9 76/46/10 77/47/10 69/42/9
f 69/42/7 77/47/8 80/48/8 73/43/7
f 73/43/13 80/48/14 75/49/14 74/44/13
f 74/44/11 75/49/12 76/50/12 71/45/11
f 76/46/10 83/51/16 78/52/16 77/47/10
f 77/47/8 78/52/15 79/53/15 80/48/8
f 80/48/14 79/53/18 81/54/18 75/49/14
f 75/49/12 81/54/17 83/55/17 76/50/12
f 83/51/16 84/56/20 82/57/20 78/52/16
f 78/52/15 82/57/19 86/58/19 79/53/15
f 79/53/18 86/58/22 88/59/22 81/54/18
f 81/54/17 88/59/21 84/60/21 83/55/17
f 84/56/20 59/6/7 85/61/7 82/57/20
f 82/57/19 85/61/9 58/62/9 86/58/19
f 86/58/22 58/62/11 87/63/11 88/59/22
f 88/59/21 87/63/13 59/64/13 84/60/21
s 0
f 96/65/1 93/66/1 89/67/1 95/68/1
f 94/5/2 90/69/2 92/70/2 91/71/2
f 90/5/3 96/72/3 95/73/3 92/71/3
f 93/5/4 94/72/4 91/73/4 89/71/4
f 95/5/5 89/69/5 91/74/5 92/75/5
f 90/5/6 94/69/6 93/74/6 96/75/6
o chest_wood_lid
v 0.400000 0.481229 -0.230970 1.0000 1.0000 1.0000
v 0.400000 0.580000 0.000000 1.0000 1.0000 1.0000
v 0.400000 0.567821 0.095671 1.0000 1.0000 1.0000
v 0.400000 0.420000 0.250000 0.9255 0.9255 0.9255
v -0.400000 0.481229 0.230970 1.0000 1.0000 1.0000
v -0.400000 0.580000 0.000000 1.0000 1.0000 1.0000
v -0.400000 0.481229 -0.230970 1.0000 1.0000 1.0000
v -0.400000 0.420000 -0.250000 0.9255 0.9255 0.9255
v 0.400000 0.533137 -0.176777 1.0000 1.0000 1.0000
v -0.400000 0.533137 -0.176777 1.0000 1.0000 1.0000
v -0.400000 0.567821 -0.095671 1.0000 1.0000 1.0000
v 0.400000 0.567821 -0.095671 1.0000 1.0000 1.0000
v -0.400000 0.567821 0.095671 1.0000 1.0000 1.0000
v 0.400000 0.533137 0.176777 1.0000 1.0000 1.0000
v -0.400000 0.533137 0.176777 1.0000 1.0000 1.0000
v 0.400000 0.481229 0.230970 1.0000 1.0000 1.0000
v -0.400000 0.420000 0.250000 0.9255 0.9255 0.9255
v 0.400000 0.420000 -0.250000 0.9255 0.9255 0.9255
vn 1.0000 -0.0000 -0.0000
vn -1.0000 -0.0000 -0.0000
vn -0.0000 0.2968 -0.9549
vn -0.0000 0.7222 -0.6917
vn -0.0000 0.9195 -0.3932
vn -0.0000 0.9920 -0.1263
vn -0.0000 0.9920 0.1263
vn -0.0000 0.9195 0.3932
vn -0.0000 0.7222 0.6917
vn -0.0000 0.2968 0.9549
vn -0.0000 -1.0000 -0.0000
vt 0.249512 0.844238
vt 0.247170 0.855823
vt 0.240502 0.865645
vt 0.230522 0.872207
vt 0.218750 0.874512
vt 0.206978 0.872207
vt 0.196998 0.865645
vt 0.190330 0.855823
vt 0.187988 0.844238
vt 0.191426 0.844238
vt 0.187988 0.874512
vt 0.191426 0.874512
vt 0.195449 0.844238
vt 0.195449 0.874512
vt 0.200177 0.844238
vt 0.200177 0.874512
vt 0.205348 0.844238
vt 0.205348 0.874512
vt 0.210518 0.844238
vt 0.210518 0.874512
vt 0.215247 0.844238
vt 0.215247 0.874512
vt 0.219270 0.844238
vt 0.219270 0.874512
vt 0.222707 0.844238
vt 0.222707 0.874512
vt 0.249512 0.874512
s 0
usemtl props
f 114/76/23 97/77/23 105/78/23 108/79/23 98/80/23 99/81/23 110/82/23 112/83/23 100/84/23
f 113/76/24 101/77/24 111/78/24 109/79/24 102/80/24 107/81/24 106/82/24 103/83/24 104/84/24
f 97/85/25 114/84/25 104/86/25 103/87/25
f 105/88/26 97/85/26 103/87/26 106/89/26
f 108/90/27 105/88/27 106/89/27 107/91/27
f 98/92/28 108/90/28 107/91/28 102/93/28
f 99/94/29 98/92/29 102/93/29 109/95/29
f 110/96/30 99/94/30 109/95/30 111/97/30
f 112/98/31 110/96/31 111/97/31 101/99/31
f 100/100/32 112/98/32 101/99/32 113/101/32
f 114/76/33 100/100/33 113/101/33 104/102/33
