# Blender 4.5.14 LTS
# www.blender.org
mtllib door_cell.mtl
o door_cell
v 0.490000 0.970000 0.110000 0.9764 0.9764 0.9764
v 0.570000 0.970000 0.110000 0.9921 0.9921 0.9921
v 0.490000 1.130000 0.010000 0.9137 0.9137 0.9137
v 0.490000 0.970000 0.010000 0.9255 0.9255 0.9255
v 0.490000 1.130000 0.110000 0.9764 0.9764 0.9764
v 0.570000 1.130000 0.110000 0.9882 0.9882 0.9882
v 0.570000 1.130000 0.010000 0.9882 0.9882 0.9882
v 0.570000 0.970000 0.010000 0.9882 0.9882 0.9882
vn -0.0000 -0.0000 1.0000
vn -0.0000 -0.0000 -1.0000
vn -1.0000 -0.0000 -0.0000
vn 1.0000 -0.0000 -0.0000
vn -0.0000 1.0000 -0.0000
vn -0.0000 -1.0000 -0.0000
vt 0.375488 0.859863
vt 0.390137 0.859863
vt 0.390137 0.874512
vt 0.375488 0.874512
vt 0.312988 0.844238
vt 0.322676 0.844238
vt 0.322676 0.863613
vt 0.312988 0.863613
vt 0.325098 0.844238
vt 0.325098 0.863613
vt 0.322676 0.856348
vt 0.312988 0.856348
s 0
usemtl props
f 1/1/1 2/2/1 6/3/1 5/4/1
f 8/5/2 4/6/2 3/7/2 7/8/2
f 4/5/3 1/9/3 5/10/3 3/8/3
f 2/5/4 8/9/4 7/10/4 6/8/4
f 5/5/5 6/6/5 7/11/5 3/12/5
f 4/5/6 8/6/6 2/11/6 1/12/6
o door_cell_leaf
v 0.480000 0.100000 0.020000 0.8902 0.8902 0.8902
v -0.500000 0.100000 0.020000 0.8862 0.8862 0.8862
v 0.480000 0.060000 -0.020000 0.8117 0.8117 0.8117
v -0.500000 0.060000 -0.020000 0.8117 0.8117 0.8117
v 0.480000 0.100000 -0.020000 0.8980 0.8980 0.8980
v -0.500000 0.060000 0.020000 0.8117 0.8117 0.8117
v -0.500000 0.100000 -0.020000 0.8941 0.8941 0.8941
v 0.480000 0.060000 0.020000 0.8117 0.8117 0.8117
v -0.500000 1.070000 0.020000 0.9725 0.9725 0.9725
v 0.480000 1.110000 0.020000 0.8470 0.8470 0.8470
v -0.500000 1.110000 0.020000 0.9686 0.9686 0.9686
v -0.500000 1.070000 -0.020000 0.9725 0.9725 0.9725
v -0.500000 1.110000 -0.020000 0.9725 0.9725 0.9725
v 0.480000 1.070000 -0.020000 0.9215 0.9215 0.9215
v 0.480000 1.110000 -0.020000 0.9411 0.9411 0.9411
v 0.480000 1.070000 0.020000 0.8274 0.8274 0.8274
v 0.480000 2.160000 0.020000 0.9764 0.9764 0.9764
v 0.480000 2.120000 -0.020000 0.9686 0.9686 0.9686
v -0.500000 2.160000 -0.020000 0.9764 0.9764 0.9764
v -0.500000 2.120000 -0.020000 0.9725 0.9725 0.9725
v -0.500000 2.120000 0.020000 0.9725 0.9725 0.9725
v -0.500000 2.160000 0.020000 0.9804 0.9804 0.9804
v 0.480000 2.160000 -0.020000 0.9804 0.9804 0.9804
v 0.480000 2.120000 0.020000 0.9686 0.9686 0.9686
v -0.473000 0.020000 -0.012124 0.7882 0.7882 0.7882
v -0.487000 0.020000 -0.012124 0.7960 0.7960 0.7960
v -0.487000 2.180000 -0.012124 0.8000 0.8000 0.8000
v -0.487000 0.020000 0.012124 0.8000 0.8000 0.8000
v -0.494000 2.180000 -0.000000 0.8000 0.8000 0.8000
v -0.466000 0.020000 0.000000 0.7608 0.7608 0.7608
v -0.466000 2.180000 0.000000 0.8000 0.8000 0.8000
v -0.473000 2.180000 -0.012124 0.8000 0.8000 0.8000
v -0.487000 2.180000 0.012124 0.8000 0.8000 0.8000
v -0.473000 2.180000 0.012124 0.8000 0.8000 0.8000
v -0.473000 0.020000 0.012124 0.7882 0.7882 0.7882
v -0.494000 0.020000 -0.000000 0.8000 0.8000 0.8000
v -0.316333 0.020000 -0.012124 0.7882 0.7882 0.7882
v -0.316333 2.180000 -0.012124 0.8000 0.8000 0.8000
v -0.330333 0.020000 -0.012124 0.7843 0.7843 0.7843
v -0.330333 2.180000 -0.012124 0.8000 0.8000 0.8000
v -0.330333 2.180000 0.012124 0.8000 0.8000 0.8000
v -0.337333 2.180000 -0.000000 0.8000 0.8000 0.8000
v -0.330333 0.020000 0.012124 0.7921 0.7921 0.7921
v -0.316333 0.020000 0.012124 0.7882 0.7882 0.7882
v -0.316333 2.180000 0.012124 0.8000 0.8000 0.8000
v -0.309333 0.020000 0.000000 0.7608 0.7608 0.7608
v -0.309333 2.180000 0.000000 0.8000 0.8000 0.8000
v -0.337333 0.020000 -0.000000 0.7568 0.7568 0.7568
v -0.152667 0.020000 0.000000 0.7608 0.7608 0.7608
v -0.159667 2.180000 -0.012124 0.8000 0.8000 0.8000
v -0.173667 2.180000 -0.012124 0.8000 0.8000 0.8000
v -0.173667 0.020000 0.012124 0.7921 0.7921 0.7921
v -0.159667 2.180000 0.012124 0.8000 0.8000 0.8000
v -0.173667 2.180000 0.012124 0.8000 0.8000 0.8000
v -0.159667 0.020000 0.012124 0.7882 0.7882 0.7882
v -0.152667 2.180000 0.000000 0.8000 0.8000 0.8000
v -0.180667 2.180000 -0.000000 0.8000 0.8000 0.8000
v -0.180667 0.020000 -0.000000 0.7568 0.7568 0.7568
v -0.173667 0.020000 -0.012124 0.7843 0.7843 0.7843
v -0.159667 0.020000 -0.012124 0.7882 0.7882 0.7882
v 0.004000 0.020000 0.000000 0.7608 0.7608 0.7608
v -0.003000 2.180000 -0.012124 0.8000 0.8000 0.8000
v -0.024000 0.020000 -0.000000 0.7568 0.7568 0.7568
v -0.017000 2.180000 -0.012124 0.8000 0.8000 0.8000
v -0.017000 0.020000 0.012124 0.7921 0.7921 0.7921
v -0.024000 2.180000 -0.000000 0.8000 0.8000 0.8000
v -0.003000 0.020000 0.012124 0.7882 0.7882 0.7882
v -0.003000 2.180000 0.012124 0.8000 0.8000 0.8000
v 0.004000 2.180000 0.000000 0.8000 0.8000 0.8000
v -0.017000 2.180000 0.012124 0.8000 0.8000 0.8000
v -0.017000 0.020000 -0.012124 0.7843 0.7843 0.7843
v -0.003000 0.020000 -0.012124 0.7882 0.7882 0.7882
v 0.160667 0.020000 0.000000 0.7608 0.7608 0.7608
v 0.153667 0.020000 -0.012124 0.7882 0.7882 0.7882
v 0.160667 2.180000 0.000000 0.8000 0.8000 0.8000
v 0.153667 2.180000 -0.012124 0.8000 0.8000 0.8000
v 0.139667 2.180000 -0.012124 0.8000 0.8000 0.8000
v 0.132667 0.020000 -0.000000 0.7568 0.7568 0.7568
v 0.139667 2.180000 0.012124 0.8000 0.8000 0.8000
v 0.153667 0.020000 0.012124 0.7882 0.7882 0.7882
v 0.153667 2.180000 0.012124 0.8000 0.8000 0.8000
v 0.132667 2.180000 -0.000000 0.8000 0.8000 0.8000
v 0.139667 0.020000 0.012124 0.7921 0.7921 0.7921
v 0.139667 0.020000 -0.012124 0.7843 0.7843 0.7843
v 0.317333 0.020000 0.000000 0.7608 0.7608 0.7608
v 0.296333 0.020000 -0.012124 0.7843 0.7843 0.7843
v 0.296333 2.180000 -0.012124 0.8000 0.8000 0.8000
v 0.289333 2.180000 -0.000000 0.8000 0.8000 0.8000
v 0.310333 0.020000 0.012124 0.7882 0.7882 0.7882
v 0.317333 2.180000 0.000000 0.8000 0.8000 0.8000
v 0.310333 2.180000 -0.012124 0.8000 0.8000 0.8000
v 0.296333 2.180000 0.012124 0.8000 0.8000 0.8000
v 0.310333 2.180000 0.012124 0.8000 0.8000 0.8000
v 0.296333 0.020000 0.012124 0.7921 0.7921 0.7921
v 0.289333 0.020000 -0.000000 0.7568 0.7568 0.7568
v 0.310333 0.020000 -0.012124 0.7882 0.7882 0.7882
v 0.467000 0.020000 -0.012124 0.8039 0.8039 0.8039
v 0.453000 0.020000 -0.012124 0.7882 0.7882 0.7882
v 0.446000 2.180000 -0.000000 0.8000 0.8000 0.8000
v 0.453000 2.180000 0.012124 0.8000 0.8000 0.8000
v 0.453000 0.020000 0.012124 0.7921 0.7921 0.7921
v 0.467000 2.180000 0.012124 0.8000 0.8000 0.8000
v 0.474000 2.180000 0.000000 0.8000 0.8000 0.8000
v 0.467000 2.180000 -0.012124 0.8000 0.8000 0.8000
v 0.453000 2.180000 -0.012124 0.8000 0.8000 0.8000
v 0.467000 0.020000 0.012124 0.8000 0.8000 0.8000
v 0.446000 0.020000 -0.000000 0.7568 0.7568 0.7568
v 0.474000 0.020000 0.000000 0.8039 0.8039 0.8039
vn -0.0000 -0.0000 1.0000
vn -0.0000 -0.0000 -1.0000
vn -1.0000 -0.0000 -0.0000
vn 1.0000 -0.0000 -0.0000
vn -0.0000 1.0000 -0.0000
vn -0.0000 -1.0000 -0.0000
vn 0.8660 -0.0000 -0.5000
vn -0.8660 -0.0000 -0.5000
vn -0.8660 -0.0000 0.5000
vn 0.8660 -0.0000 0.5000
vt 0.312988 0.844238
vt 0.343262 0.844238
vt 0.343262 0.845474
vt 0.312988 0.845474
vt 0.317832 0.844238
vt 0.317832 0.849082
vt 0.312988 0.849082
vt 0.318034 0.844238
vt 0.318034 0.874512
vt 0.312988 0.874512
vt 0.323079 0.844238
vt 0.323079 0.874512
vt 0.328125 0.844238
vt 0.328125 0.874512
vt 0.333171 0.844238
vt 0.333171 0.874512
vt 0.338216 0.844238
vt 0.338216 0.874512
vt 0.343262 0.874512
vt 0.343262 0.859375
vt 0.335693 0.874512
vt 0.320557 0.874512
vt 0.312988 0.859375
vt 0.320557 0.844238
vt 0.335693 0.844238
s 0
usemtl props
f 14/13/7 16/14/7 9/15/7 10/16/7
f 11/13/8 12/14/8 15/15/8 13/16/8
f 12/13/9 14/17/9 10/18/9 15/19/9
f 16/13/10 11/17/10 13/18/10 9/19/10
f 10/13/11 9/14/11 13/15/11 15/16/11
f 12/13/12 11/14/12 16/15/12 14/16/12
f 17/13/7 24/14/7 18/15/7 19/16/7
f 22/13/8 20/14/8 21/15/8 23/16/8
f 20/13/9 17/17/9 19/18/9 21/19/9
f 24/13/10 22/17/10 23/18/10 18/19/10
f 19/13/11 18/14/11 23/15/11 21/16/11
f 20/13/12 22/14/12 24/15/12 17/16/12
f 29/13/7 32/14/7 25/15/7 30/16/7
f 26/13/8 28/14/8 27/15/8 31/16/8
f 28/13/9 29/17/9 30/18/9 27/19/9
f 32/13/10 26/17/10 31/18/10 25/19/10
f 30/13/11 25/14/11 31/15/11 27/16/11
f 28/13/12 26/14/12 32/15/12 29/16/12
s 1
f 38/13/13 33/20/13 40/21/13 39/22/13
f 33/20/8 34/23/8 35/24/8 40/21/8
f 34/23/14 44/25/14 37/26/14 35/24/14
f 44/25/15 36/27/15 41/28/15 37/26/15
f 36/27/7 43/29/7 42/30/7 41/28/7
f 43/29/16 38/14/16 39/31/16 42/30/16
s 0
f 39/32/11 40/33/11 35/34/11 37/35/11 41/36/11 42/37/11
f 43/33/12 36/34/12 44/35/12 34/36/12 33/37/12 38/32/12
s 1
f 54/13/13 45/20/13 46/21/13 55/22/13
f 45/20/8 47/23/8 48/24/8 46/21/8
f 47/23/14 56/25/14 50/26/14 48/24/14
f 56/25/15 51/27/15 49/28/15 50/26/15
f 51/27/7 52/29/7 53/30/7 49/28/7
f 52/29/16 54/14/16 55/31/16 53/30/16
s 0
f 55/32/11 46/33/11 48/34/11 50/35/11 49/36/11 53/37/11
f 52/33/12 51/34/12 56/35/12 47/36/12 45/37/12 54/32/12
s 1
f 57/13/13 68/20/13 58/21/13 64/22/13
f 68/20/8 67/23/8 59/24/8 58/21/8
f 67/23/14 66/25/14 65/26/14 59/24/14
f 66/25/15 60/27/15 62/28/15 65/26/15
f 60/27/7 63/29/7 61/30/7 62/28/7
f 63/29/16 57/14/16 64/31/16 61/30/16
s 0
f 64/32/11 58/33/11 59/34/11 65/35/11 62/36/11 61/37/11
f 63/33/12 60/34/12 66/35/12 67/36/12 68/37/12 57/32/12
s 1
f 69/13/13 80/20/13 70/21/13 77/22/13
f 80/20/8 79/23/8 72/24/8 70/21/8
f 79/23/14 71/25/14 74/26/14 72/24/14
f 71/25/15 73/27/15 78/28/15 74/26/15
f 73/27/7 75/29/7 76/30/7 78/28/7
f 75/29/16 69/14/16 77/31/16 76/30/16
s 0
f 77/32/11 70/33/11 72/34/11 74/35/11 78/36/11 76/37/11
f 75/33/12 73/34/12 71/35/12 79/36/12 80/37/12 69/32/12
s 1
f 81/13/13 82/20/13 84/21/13 83/22/13
f 82/20/8 92/23/8 85/24/8 84/21/8
f 92/23/14 86/25/14 90/26/14 85/24/14
f 86/25/15 91/27/15 87/28/15 90/26/15
f 91/27/7 88/29/7 89/30/7 87/28/7
f 88/29/16 81/14/16 83/31/16 89/30/16
s 0
f 83/32/11 84/33/11 85/34/11 90/35/11 87/36/11 89/37/11
f 88/33/12 91/34/12 86/35/12 92/36/12 82/37/12 81/32/12
s 1
f 93/13/13 104/20/13 99/21/13 98/22/13
f 104/20/8 94/23/8 95/24/8 99/21/8
f 94/23/14 103/25/14 96/26/14 95/24/14
f 103/25/15 102/27/15 100/28/15 96/26/15
f 102/27/7 97/29/7 101/30/7 100/28/7
f 97/29/16 93/14/16 98/31/16 101/30/16
s 0
f 98/32/11 99/33/11 95/34/11 96/35/11 100/36/11 101/37/11
f 97/33/12 102/34/12 103/35/12 94/36/12 104/37/12 93/32/12
s 1
f 116/13/13 105/20/13 112/21/13 111/22/13
f 105/20/8 106/23/8 113/24/8 112/21/8
f 106/23/14 115/25/14 107/26/14 113/24/14
f 115/25/15 109/27/15 108/28/15 107/26/15
f 109/27/7 114/29/7 110/30/7 108/28/7
f 114/29/16 116/14/16 111/31/16 110/30/16
s 0
f 111/32/11 112/33/11 113/34/11 107/35/11 108/36/11 110/37/11
f 114/33/12 109/34/12 115/35/12 106/36/12 105/37/12 116/32/12
