# Blender 4.5.14 LTS
# www.blender.org
mtllib door_dungeon.mtl
o door_dungeon
v -0.550000 0.000000 0.120000 0.7960 0.7960 0.7960
v 0.550000 0.000000 0.120000 0.7960 0.7960 0.7960
v -0.550000 0.020000 -0.120000 0.8862 0.8862 0.8862
v -0.550000 0.000000 -0.120000 0.7960 0.7960 0.7960
v -0.550000 0.020000 0.120000 0.8784 0.8784 0.8784
v 0.550000 0.020000 0.120000 0.8823 0.8823 0.8823
v 0.550000 0.020000 -0.120000 0.8862 0.8862 0.8862
v 0.550000 0.000000 -0.120000 0.8000 0.8000 0.8000
vn -0.0000 -0.0000 1.0000
vn -0.0000 -0.0000 -1.0000
vn -1.0000 -0.0000 -0.0000
vn 1.0000 -0.0000 -0.0000
vn -0.0000 1.0000 -0.0000
vn -0.0000 -1.0000 -0.0000
vt 0.375488 0.875488
vt 0.499512 0.875488
vt 0.499512 0.877743
vt 0.375488 0.877743
vt 0.405254 0.875488
vt 0.405254 0.877969
vt 0.375488 0.877969
vt 0.499512 0.902548
vt 0.375488 0.902548
s 0
usemtl props
f 1/1/1 2/2/1 6/3/1 5/4/1
f 8/1/2 4/2/2 3/3/2 7/4/2
f 4/1/3 1/5/3 5/6/3 3/7/3
f 2/1/4 8/5/4 7/6/4 6/7/4
f 5/1/5 6/2/5 7/8/5 3/9/5
f 4/1/6 8/2/6 2/8/6 1/9/6
o door_dungeon_leaf
v -0.480000 0.010000 0.035000 0.8039 0.8039 0.8039
v 0.480000 0.010000 0.035000 0.8039 0.8039 0.8039
v 0.000000 2.280000 0.035000 1.0000 1.0000 1.0000
v -0.183688 2.243462 0.035000 1.0000 1.0000 1.0000
v -0.339411 2.139411 0.035000 1.0000 1.0000 1.0000
v -0.443462 1.983688 0.035000 1.0000 1.0000 1.0000
v -0.183688 2.243462 -0.035000 1.0000 1.0000 1.0000
v 0.480000 1.800000 -0.035000 1.0000 1.0000 1.0000
v 0.480000 1.800000 0.035000 1.0000 1.0000 1.0000
v 0.480000 0.010000 -0.035000 0.8039 0.8039 0.8039
v 0.443462 1.983688 0.035000 1.0000 1.0000 1.0000
v 0.339411 2.139411 0.035000 1.0000 1.0000 1.0000
v 0.443462 1.983688 -0.035000 1.0000 1.0000 1.0000
v 0.339411 2.139411 -0.035000 1.0000 1.0000 1.0000
v 0.183688 2.243462 0.035000 1.0000 1.0000 1.0000
v 0.183688 2.243462 -0.035000 1.0000 1.0000 1.0000
v 0.000000 2.280000 -0.035000 1.0000 1.0000 1.0000
v -0.339411 2.139411 -0.035000 1.0000 1.0000 1.0000
v -0.443462 1.983688 -0.035000 1.0000 1.0000 1.0000
v -0.480000 1.800000 0.035000 1.0000 1.0000 1.0000
v -0.480000 1.800000 -0.035000 1.0000 1.0000 1.0000
v -0.480000 0.010000 -0.035000 0.8039 0.8039 0.8039
v 0.361213 0.978787 0.020000 0.7059 0.7059 0.7059
v 0.340000 0.970000 0.035000 0.7804 0.7804 0.7804
v 0.318787 0.978787 0.035000 0.7804 0.7804 0.7804
v 0.310000 1.000000 0.035000 0.7921 0.7921 0.7921
v 0.318787 0.978787 0.020000 0.7137 0.7137 0.7137
v 0.340000 1.030000 0.035000 0.7960 0.7960 0.7960
v 0.340000 1.030000 0.020000 0.7137 0.7137 0.7137
v 0.370000 1.000000 0.035000 0.7725 0.7725 0.7725
v 0.361213 1.021213 0.020000 0.7059 0.7059 0.7059
v 0.370000 1.000000 0.020000 0.7020 0.7020 0.7020
v 0.340000 0.970000 0.020000 0.7137 0.7137 0.7137
v 0.310000 1.000000 0.020000 0.7176 0.7176 0.7176
v 0.318787 1.021213 0.020000 0.7176 0.7176 0.7176
v 0.361213 1.021213 0.035000 0.7882 0.7882 0.7882
v 0.318787 1.021213 0.035000 0.8039 0.8039 0.8039
v 0.361213 0.978787 0.035000 0.7686 0.7686 0.7686
v 0.340000 0.900000 0.069000 0.9490 0.9490 0.9490
v 0.375355 0.914645 0.069000 0.9137 0.9137 0.9137
v 0.340000 0.891000 0.060000 0.8549 0.8549 0.8549
v 0.381719 0.908281 0.060000 0.8666 0.8666 0.8666
v 0.375355 0.914645 0.051000 0.7686 0.7686 0.7686
v 0.368991 0.921009 0.060000 0.7647 0.7647 0.7647
v 0.390000 0.950000 0.051000 0.7725 0.7725 0.7725
v 0.390000 0.950000 0.069000 0.9215 0.9215 0.9215
v 0.399000 0.950000 0.060000 0.8745 0.8745 0.8745
v 0.381000 0.950000 0.060000 0.7882 0.7882 0.7882
v 0.375355 0.985355 0.069000 0.9568 0.9568 0.9568
v 0.368991 0.978991 0.060000 0.8235 0.8235 0.8235
v 0.340000 1.000000 0.069000 0.9490 0.9490 0.9490
v 0.340000 0.991000 0.060000 0.8274 0.8274 0.8274
v 0.381719 0.991719 0.060000 0.8627 0.8627 0.8627
v 0.375355 0.985355 0.051000 0.7490 0.7490 0.7490
v 0.340000 1.000000 0.051000 0.7412 0.7412 0.7412
v 0.340000 1.009000 0.060000 0.8509 0.8509 0.8509
v 0.298281 0.991719 0.060000 0.8509 0.8509 0.8509
v 0.304645 0.985355 0.051000 0.7608 0.7608 0.7608
v 0.311009 0.978991 0.060000 0.7647 0.7647 0.7647
v 0.290000 0.950000 0.069000 0.9019 0.9019 0.9019
v 0.304645 0.985355 0.069000 0.9019 0.9019 0.9019
v 0.290000 0.950000 0.051000 0.7608 0.7608 0.7608
v 0.299000 0.950000 0.060000 0.7921 0.7921 0.7921
v 0.281000 0.950000 0.060000 0.8470 0.8470 0.8470
v 0.298281 0.908281 0.060000 0.8509 0.8509 0.8509
v 0.304645 0.914645 0.051000 0.7412 0.7412 0.7412
v 0.311009 0.921009 0.060000 0.8235 0.8235 0.8235
v 0.340000 0.909000 0.060000 0.8196 0.8196 0.8196
v 0.340000 0.900000 0.051000 0.7412 0.7412 0.7412
v 0.304645 0.914645 0.069000 0.9490 0.9490 0.9490
v 0.361213 1.021213 -0.035000 0.7921 0.7921 0.7921
v 0.361213 1.021213 -0.020000 0.7059 0.7059 0.7059
v 0.340000 1.030000 -0.035000 0.8039 0.8039 0.8039
v 0.340000 1.030000 -0.020000 0.7137 0.7137 0.7137
v 0.310000 1.000000 -0.035000 0.7882 0.7882 0.7882
v 0.318787 1.021213 -0.020000 0.7176 0.7176 0.7176
v 0.310000 1.000000 -0.020000 0.7216 0.7216 0.7216
v 0.340000 0.970000 -0.035000 0.7804 0.7804 0.7804
v 0.370000 1.000000 -0.020000 0.7020 0.7020 0.7020
v 0.318787 0.978787 -0.020000 0.7176 0.7176 0.7176
v 0.340000 0.970000 -0.020000 0.7098 0.7098 0.7098
v 0.361213 0.978787 -0.020000 0.7020 0.7020 0.7020
v 0.361213 0.978787 -0.035000 0.7686 0.7686 0.7686
v 0.318787 0.978787 -0.035000 0.7764 0.7764 0.7764
v 0.318787 1.021213 -0.035000 0.8000 0.8000 0.8000
v 0.370000 1.000000 -0.035000 0.7686 0.7686 0.7686
v 0.381719 0.908281 -0.060000 0.8627 0.8627 0.8627
v 0.340000 0.900000 -0.069000 0.9451 0.9451 0.9451
v 0.340000 0.909000 -0.060000 0.8235 0.8235 0.8235
v 0.390000 0.950000 -0.051000 0.7725 0.7725 0.7725
v 0.375355 0.914645 -0.069000 0.9137 0.9137 0.9137
v 0.368991 0.921009 -0.060000 0.7921 0.7921 0.7921
v 0.375355 0.914645 -0.051000 0.7764 0.7764 0.7764
v 0.390000 0.950000 -0.069000 0.9176 0.9176 0.9176
v 0.381000 0.950000 -0.060000 0.7608 0.7608 0.7608
v 0.381719 0.991719 -0.060000 0.8706 0.8706 0.8706
v 0.375355 0.985355 -0.051000 0.7451 0.7451 0.7451
v 0.399000 0.950000 -0.060000 0.8784 0.8784 0.8784
v 0.368991 0.978991 -0.060000 0.8235 0.8235 0.8235
v 0.340000 0.991000 -0.060000 0.8196 0.8196 0.8196
v 0.375355 0.985355 -0.069000 0.9529 0.9529 0.9529
v 0.304645 0.985355 -0.051000 0.7647 0.7647 0.7647
v 0.340000 1.000000 -0.051000 0.7412 0.7412 0.7412
v 0.340000 1.009000 -0.060000 0.8549 0.8549 0.8549
v 0.340000 1.000000 -0.069000 0.9490 0.9490 0.9490
v 0.290000 0.950000 -0.051000 0.7647 0.7647 0.7647
v 0.311009 0.978991 -0.060000 0.7882 0.7882 0.7882
v 0.298281 0.991719 -0.060000 0.8509 0.8509 0.8509
v 0.304645 0.985355 -0.069000 0.8980 0.8980 0.8980
v 0.304645 0.914645 -0.051000 0.7451 0.7451 0.7451
v 0.281000 0.950000 -0.060000 0.8509 0.8509 0.8509
v 0.290000 0.950000 -0.069000 0.9019 0.9019 0.9019
v 0.298281 0.908281 -0.060000 0.8549 0.8549 0.8549
v 0.311009 0.921009 -0.060000 0.8196 0.8196 0.8196
v 0.299000 0.950000 -0.060000 0.7647 0.7647 0.7647
v 0.340000 0.891000 -0.060000 0.8549 0.8549 0.8549
v 0.340000 0.900000 -0.051000 0.7451 0.7451 0.7451
v 0.304645 0.914645 -0.069000 0.9490 0.9490 0.9490
vn -0.0000 -0.0000 1.0000
vn -0.0000 -0.0000 -1.0000
vn -0.0000 -1.0000 -0.0000
vn 1.0000 -0.0000 -0.0000
vn 0.9808 0.1951 -0.0000
vn 0.8315 0.5556 -0.0000
vn 0.5556 0.8315 -0.0000
vn 0.1951 0.9808 -0.0000
vn -0.1951 0.9808 -0.0000
vn -0.5556 0.8315 -0.0000
vn -0.8315 0.5556 -0.0000
vn -0.9808 0.1951 -0.0000
vn -1.0000 -0.0000 -0.0000
vn 0.7071 -0.7071 -0.0000
vn -0.7071 -0.7071 -0.0000
vn -0.7071 0.7071 -0.0000
vn -0.0000 1.0000 -0.0000
vn 0.7071 0.7071 -0.0000
vn -0.0000 -0.7071 0.7071
vn 0.2811 -0.6786 0.6786
vn -0.0000 -0.7071 -0.7071
vn 0.2811 -0.6786 -0.6786
vn -0.0000 0.7071 -0.7071
vn -0.2811 0.6786 -0.6786
vn -0.0000 0.7071 0.7071
vn -0.2811 0.6786 0.6786
vn 0.6786 -0.2811 -0.6786
vn 0.6786 -0.2811 0.6786
vn -0.6786 -0.2811 -0.6786
vn -0.5000 -0.5000 -0.7071
vn -0.6786 -0.2811 0.6786
vn -0.5000 -0.5000 0.7071
vn 0.6786 0.2811 0.6786
vn 0.5000 0.5000 0.7071
vn 0.6786 0.2811 -0.6786
vn 0.5000 0.5000 -0.7071
vn -0.6786 0.2811 -0.6786
vn -0.6786 0.2811 0.6786
vt 0.875488 0.875488
vt 0.937012 0.875488
vt 0.937012 0.973287
vt 0.934670 0.983322
vt 0.928002 0.991831
vt 0.918022 0.997515
vt 0.906250 0.999512
vt 0.894478 0.997515
vt 0.884498 0.991831
vt 0.877830 0.983322
vt 0.875488 0.973287
vt 0.135270 0.812988
vt 0.125488 0.812988
vt 0.125488 0.821602
vt 0.135270 0.821602
vt 0.153508 0.812988
vt 0.153508 0.821602
vt 0.155416 0.812988
vt 0.155416 0.821602
vt 0.157324 0.812988
vt 0.157324 0.821602
vt 0.159232 0.812988
vt 0.159232 0.821602
vt 0.161141 0.812988
vt 0.161141 0.821602
vt 0.163049 0.812988
vt 0.163049 0.821602
vt 0.164957 0.812988
vt 0.164957 0.821602
vt 0.166865 0.812988
vt 0.166865 0.821602
vt 0.168774 0.812988
vt 0.168774 0.821602
vt 0.187012 0.812988
vt 0.187012 0.821602
vt 0.312988 0.844238
vt 0.316772 0.844238
vt 0.316772 0.874512
vt 0.312988 0.874512
vt 0.320557 0.844238
vt 0.320557 0.874512
vt 0.324341 0.844238
vt 0.324341 0.874512
vt 0.328125 0.844238
vt 0.328125 0.874512
vt 0.331909 0.844238
vt 0.331909 0.874512
vt 0.335693 0.844238
vt 0.335693 0.874512
vt 0.339478 0.844238
vt 0.339478 0.874512
vt 0.343262 0.844238
vt 0.343262 0.874512
vt 0.343262 0.859375
vt 0.338828 0.870078
vt 0.317422 0.870078
vt 0.312988 0.859375
vt 0.317422 0.848672
vt 0.338828 0.848672
vt 0.320557 0.848022
vt 0.312988 0.848022
vt 0.328125 0.848022
vt 0.335693 0.848022
vt 0.343262 0.848022
vt 0.320557 0.851807
vt 0.312988 0.851807
vt 0.328125 0.851807
vt 0.335693 0.851807
vt 0.343262 0.851807
vt 0.320557 0.855591
vt 0.312988 0.855591
vt 0.328125 0.855591
vt 0.335693 0.855591
vt 0.343262 0.855591
vt 0.320557 0.859375
vt 0.328125 0.859375
vt 0.335693 0.859375
vt 0.320557 0.863159
vt 0.312988 0.863159
vt 0.328125 0.863159
vt 0.335693 0.863159
vt 0.343262 0.863159
vt 0.320557 0.866943
vt 0.312988 0.866943
vt 0.328125 0.866943
vt 0.335693 0.866943
vt 0.343262 0.866943
vt 0.320557 0.870728
vt 0.312988 0.870728
vt 0.328125 0.870728
vt 0.335693 0.870728
vt 0.343262 0.870728
s 0
usemtl props
f 9/10/7 10/11/7 17/12/7 19/13/7 20/14/7 23/15/7 11/16/7 12/17/7 13/18/7 14/19/7 28/20/7
f 29/12/8 27/13/8 26/14/8 15/15/8 25/16/8 24/17/8 22/18/8 21/19/8 16/20/8 18/10/8 30/11/8
f 10/21/9 9/22/9 30/23/9 18/24/9
f 17/25/10 10/21/10 18/24/10 16/26/10
f 19/27/11 17/25/11 16/26/11 21/28/11
f 20/29/12 19/27/12 21/28/12 22/30/12
f 23/31/13 20/29/13 22/30/13 24/32/13
f 11/33/14 23/31/14 24/32/14 25/34/14
f 12/35/15 11/33/15 25/34/15 15/36/15
f 13/37/16 12/35/16 15/36/16 26/38/16
f 14/39/17 13/37/17 26/38/17 27/40/17
f 28/41/18 14/39/18 27/40/18 29/42/18
f 9/43/19 28/41/19 29/42/19 30/44/19
s 1
f 38/45/10 46/46/20 31/47/20 40/48/10
f 46/46/20 32/49/9 41/50/9 31/47/20
f 32/49/9 33/51/21 35/52/21 41/50/9
f 33/51/21 34/53/19 42/54/19 35/52/21
f 34/53/19 45/55/22 43/56/22 42/54/19
f 45/55/22 36/57/23 37/58/23 43/56/22
f 36/57/23 44/59/24 39/60/24 37/58/23
f 44/59/24 38/61/10 40/62/10 39/60/24
s 0
f 40/63/8 31/64/8 41/54/8 35/65/8 42/66/8 43/67/8 37/53/8 39/68/8
f 44/64/7 36/54/7 45/65/7 34/66/7 33/67/7 32/53/7 46/68/7 38/63/7
s 1
f 47/45/25 49/49/25 50/69/26 48/70/26
f 49/49/27 77/53/27 51/71/28 50/69/28
f 77/53/29 76/57/29 52/72/30 51/71/30
f 76/57/31 47/61/31 48/73/32 52/72/32
f 48/70/33 50/69/33 56/74/33 53/75/33
f 50/69/34 51/71/34 54/76/34 56/74/34
f 51/71/33 52/72/33 55/77/33 54/76/33
f 52/72/34 48/73/34 53/78/34 55/77/34
f 53/75/35 56/74/35 58/79/36 62/80/36
f 56/74/37 54/76/37 57/81/38 58/79/38
f 54/76/39 55/77/39 61/82/40 57/81/40
f 55/77/41 53/78/41 62/83/42 61/82/42
f 62/80/36 58/79/36 60/84/27 63/66/27
f 58/79/38 57/81/38 59/85/25 60/84/25
f 57/81/40 61/82/40 64/86/31 59/85/31
f 61/82/42 62/83/42 63/63/29 64/86/29
f 63/66/27 60/84/27 67/87/28 66/88/28
f 60/84/25 59/85/25 69/89/26 67/87/26
f 59/85/31 64/86/31 65/90/32 69/89/32
f 64/86/29 63/63/29 66/91/30 65/90/30
f 66/88/43 67/87/43 72/92/43 68/93/43
f 67/87/44 69/89/44 70/94/44 72/92/44
f 69/89/43 65/90/43 71/95/43 70/94/43
f 65/90/44 66/91/44 68/96/44 71/95/44
f 68/93/37 72/92/37 73/97/38 78/98/38
f 72/92/35 70/94/35 74/99/36 73/97/36
f 70/94/41 71/95/41 75/100/42 74/99/42
f 71/95/39 68/96/39 78/101/40 75/100/40
f 78/98/38 73/97/38 49/50/25 47/48/25
f 73/97/36 74/99/36 77/54/27 49/50/27
f 74/99/42 75/100/42 76/58/29 77/54/29
f 75/100/40 78/101/40 47/62/31 76/58/31
f 94/45/10 79/46/24 80/47/24 87/48/10
f 79/46/24 81/49/23 82/50/23 80/47/24
f 81/49/23 93/51/22 84/52/22 82/50/23
f 93/51/22 83/53/19 85/54/19 84/52/22
f 83/53/19 92/55/21 88/56/21 85/54/19
f 92/55/21 86/57/9 89/58/9 88/56/21
f 86/57/9 91/59/20 90/60/20 89/58/9
f 91/59/20 94/61/10 87/62/10 90/60/20
s 0
f 87/63/7 80/64/7 82/54/7 84/65/7 85/66/7 88/67/7 89/53/7 90/68/7
f 91/64/8 86/54/8 92/65/8 83/66/8 93/67/8 81/53/8 79/68/8 94/63/8
s 1
f 125/45/25 124/49/25 95/69/26 101/70/26
f 124/49/27 96/53/27 99/71/28 95/69/28
f 96/53/29 97/57/29 100/72/30 99/71/30
f 97/57/31 125/61/31 101/73/32 100/72/32
f 101/70/33 95/69/33 103/74/33 102/75/33
f 95/69/34 99/71/34 98/76/34 103/74/34
f 99/71/33 100/72/33 106/77/33 98/76/33
f 100/72/34 101/73/34 102/78/34 106/77/34
f 102/75/35 103/74/35 107/79/36 109/80/36
f 103/74/37 98/76/37 105/81/38 107/79/38
f 98/76/39 106/77/39 104/82/40 105/81/40
f 106/77/41 102/78/41 109/83/42 104/82/42
f 109/80/36 107/79/36 108/84/27 113/66/27
f 107/79/38 105/81/38 111/85/25 108/84/25
f 105/81/40 104/82/40 112/86/31 111/85/31
f 104/82/42 109/83/42 113/63/29 112/86/29
f 113/66/27 108/84/27 115/87/28 117/88/28
f 108/84/25 111/85/25 110/89/26 115/87/26
f 111/85/31 112/86/31 116/90/32 110/89/32
f 112/86/29 113/63/29 117/91/30 116/90/30
f 117/88/43 115/87/43 119/92/43 114/93/43
f 115/87/44 110/89/44 120/94/44 119/92/44
f 110/89/43 116/90/43 123/95/43 120/94/43
f 116/90/44 117/91/44 114/96/44 123/95/44
f 114/93/37 119/92/37 121/97/38 118/98/38
f 119/92/35 120/94/35 126/99/36 121/97/36
f 120/94/41 123/95/41 122/100/42 126/99/42
f 123/95/39 114/96/39 118/101/40 122/100/40
f 118/98/38 121/97/38 124/50/25 125/48/25
f 121/97/36 126/99/36 96/54/27 124/50/27
f 126/99/42 122/100/42 97/58/29 96/54/29
f 122/100/40 118/101/40 125/62/31 97/58/31
