# Blender 4.5.14 LTS
# www.blender.org
mtllib floor_straw.mtl
o floor_straw
v -1.000000 0.000000 1.000000 1.0000 1.0000 1.0000
v -1.000000 0.000000 0.000000 1.0000 1.0000 1.0000
v -1.000000 0.000000 -1.000000 1.0000 1.0000 1.0000
v 0.000000 0.000000 1.000000 1.0000 1.0000 1.0000
v 1.000000 0.000000 1.000000 1.0000 1.0000 1.0000
v 0.000000 0.000000 0.000000 1.0000 1.0000 1.0000
v 1.000000 0.000000 0.000000 1.0000 1.0000 1.0000
v 1.000000 0.000000 -1.000000 1.0000 1.0000 1.0000
v 0.000000 0.000000 -1.000000 1.0000 1.0000 1.0000
vn -0.0000 1.0000 -0.0000
vt 0.625488 0.875488
vt 0.749512 0.875488
vt 0.749512 0.999512
vt 0.625488 0.999512
s 0
usemtl props
f 1/1/1 4/2/1 6/3/1 2/4/1
f 2/1/1 6/2/1 9/3/1 3/4/1
f 4/1/1 5/2/1 7/3/1 6/4/1
f 6/1/1 7/2/1 8/3/1 9/4/1
