# Blender 4.5.14 LTS
# www.blender.org
mtllib skeleton_chained.mtl
o skeleton_chained
v 0.130000 0.030000 0.120000 0.8313 0.8313 0.8313
v -0.130000 0.030000 0.120000 0.8313 0.8313 0.8313
v -0.130000 0.030000 0.280000 0.9490 0.9490 0.9490
v -0.130000 0.130000 0.120000 0.8235 0.8235 0.8235
v 0.130000 0.130000 0.280000 0.9255 0.9255 0.9255
v -0.130000 0.130000 0.280000 0.9215 0.9215 0.9215
v 0.130000 0.130000 0.120000 0.8196 0.8196 0.8196
v 0.130000 0.030000 0.280000 0.9490 0.9490 0.9490
v -0.020000 0.135000 0.160000 0.7843 0.7843 0.7843
v 0.020000 0.135000 0.120000 0.7568 0.7568 0.7568
v -0.020000 0.185000 0.120000 0.7882 0.7882 0.7882
v 0.020000 0.185000 0.120000 0.7843 0.7843 0.7843
v -0.020000 0.185000 0.160000 0.8666 0.8666 0.8666
v 0.020000 0.185000 0.160000 0.8666 0.8666 0.8666
v -0.020000 0.135000 0.120000 0.7568 0.7568 0.7568
v 0.020000 0.135000 0.160000 0.7843 0.7843 0.7843
v -0.020000 0.195000 0.160000 0.8274 0.8274 0.8274
v 0.020000 0.245000 0.160000 0.8784 0.8784 0.8784
v -0.020000 0.245000 0.160000 0.8784 0.8784 0.8784
v -0.020000 0.195000 0.120000 0.7764 0.7764 0.7764
v -0.020000 0.245000 0.120000 0.7843 0.7843 0.7843
v 0.020000 0.195000 0.120000 0.7764 0.7764 0.7764
v 0.020000 0.245000 0.120000 0.7843 0.7843 0.7843
v 0.020000 0.195000 0.160000 0.8274 0.8274 0.8274
v -0.020000 0.255000 0.160000 0.8549 0.8549 0.8549
v -0.020000 0.305000 0.120000 0.7804 0.7804 0.7804
v 0.020000 0.305000 0.120000 0.7804 0.7804 0.7804
v 0.020000 0.255000 0.160000 0.8627 0.8627 0.8627
v 0.020000 0.305000 0.160000 0.8784 0.8784 0.8784
v -0.020000 0.305000 0.160000 0.8784 0.8784 0.8784
v -0.020000 0.255000 0.120000 0.7843 0.7843 0.7843
v 0.020000 0.255000 0.120000 0.7882 0.7882 0.7882
v -0.020000 0.315000 0.160000 0.8745 0.8745 0.8745
v 0.020000 0.315000 0.160000 0.8784 0.8784 0.8784
v 0.020000 0.365000 0.160000 0.8549 0.8549 0.8549
v 0.020000 0.315000 0.120000 0.7921 0.7921 0.7921
v 0.020000 0.365000 0.120000 0.7686 0.7686 0.7686
v -0.020000 0.365000 0.160000 0.8588 0.8588 0.8588
v -0.020000 0.365000 0.120000 0.7686 0.7686 0.7686
v -0.020000 0.315000 0.120000 0.7921 0.7921 0.7921
v -0.020000 0.375000 0.160000 0.8706 0.8706 0.8706
v -0.020000 0.375000 0.120000 0.7882 0.7882 0.7882
v -0.020000 0.425000 0.120000 0.7098 0.7098 0.7098
v 0.020000 0.375000 0.160000 0.8706 0.8706 0.8706
v 0.020000 0.425000 0.120000 0.7098 0.7098 0.7098
v 0.020000 0.425000 0.160000 0.7176 0.7176 0.7176
v -0.020000 0.425000 0.160000 0.7176 0.7176 0.7176
v 0.020000 0.375000 0.120000 0.7843 0.7843 0.7843
v 0.060000 0.400000 0.150000 0.8588 0.8588 0.8588
v 0.042426 0.400000 0.118180 0.7882 0.7882 0.7882
v 0.000000 0.450000 0.052500 0.7333 0.7333 0.7333
v 0.000000 0.400000 0.105000 0.7647 0.7647 0.7647
v -0.042426 0.400000 0.118180 0.8000 0.8000 0.8000
v -0.130000 0.450000 0.150000 0.8862 0.8862 0.8862
v -0.060000 0.400000 0.150000 0.8627 0.8627 0.8627
v -0.091924 0.450000 0.218943 0.9568 0.9568 0.9568
v -0.042426 0.400000 0.181820 0.9137 0.9137 0.9137
v -0.000000 0.400000 0.195000 0.9333 0.9333 0.9333
v 0.042426 0.400000 0.181820 0.9137 0.9137 0.9137
v -0.000000 0.450000 0.247500 0.9686 0.9686 0.9686
v 0.130000 0.450000 0.150000 0.8823 0.8823 0.8823
v 0.091924 0.450000 0.081057 0.7764 0.7764 0.7764
v 0.000000 0.580000 0.037500 0.7137 0.7137 0.7137
v -0.091924 0.450000 0.081057 0.7764 0.7764 0.7764
v -0.106066 0.580000 0.070450 0.7608 0.7608 0.7608
v -0.106066 0.580000 0.229550 0.9843 0.9843 0.9843
v 0.091924 0.450000 0.218943 0.9568 0.9568 0.9568
v 0.106066 0.580000 0.229550 0.9843 0.9843 0.9843
v 0.084853 0.680000 0.086360 0.7764 0.7764 0.7764
v 0.106066 0.580000 0.070450 0.7608 0.7608 0.7608
v -0.084853 0.680000 0.086360 0.7764 0.7764 0.7764
v -0.150000 0.580000 0.150000 0.8902 0.8902 0.8902
v -0.000000 0.580000 0.262500 0.9960 0.9960 0.9960
v -0.084853 0.680000 0.213640 0.9568 0.9568 0.9568
v 0.150000 0.580000 0.150000 0.8902 0.8902 0.8902
v 0.120000 0.680000 0.150000 0.8549 0.8549 0.8549
v 0.084853 0.680000 0.213640 0.9568 0.9568 0.9568
v 0.050000 0.720000 0.150000 0.8353 0.8353 0.8353
v 0.000000 0.680000 0.060000 0.7412 0.7412 0.7412
v 0.035355 0.720000 0.123483 0.7804 0.7804 0.7804
v -0.035355 0.720000 0.123483 0.7725 0.7725 0.7725
v 0.000000 0.720000 0.112500 0.7490 0.7490 0.7490
v -0.120000 0.680000 0.150000 0.8549 0.8549 0.8549
v -0.050000 0.720000 0.150000 0.8392 0.8392 0.8392
v -0.000000 0.720000 0.187500 0.8549 0.8549 0.8549
v -0.035355 0.720000 0.176517 0.8823 0.8823 0.8823
v -0.000000 0.680000 0.240000 0.9764 0.9764 0.9764
v 0.035355 0.720000 0.176517 0.8666 0.8666 0.8666
v 0.039120 0.763702 0.167451 0.8235 0.8235 0.8235
v 0.000000 0.754824 0.180681 0.8235 0.8235 0.8235
v -0.012812 0.754040 0.131392 0.7451 0.7451 0.7451
v -0.039120 0.769128 0.187701 0.8784 0.8784 0.8784
v -0.018603 0.777084 0.217392 0.7020 0.7020 0.7020
v 0.012812 0.778790 0.223760 0.7020 0.7020 0.7020
v 0.036721 0.773247 0.203073 0.7020 0.7020 0.7020
v 0.026871 0.787709 0.110228 0.7490 0.7490 0.7490
v 0.018603 0.755746 0.137759 0.7608 0.7608 0.7608
v -0.018506 0.785245 0.101030 0.7372 0.7372 0.7372
v -0.036721 0.759583 0.152078 0.8078 0.8078 0.8078
v -0.053042 0.793251 0.130911 0.8078 0.8078 0.8078
v -0.026871 0.818530 0.225253 0.9176 0.9176 0.9176
v 0.018506 0.820995 0.234451 0.8353 0.8353 0.8353
v 0.056507 0.799201 0.153116 0.8392 0.8392 0.8392
v -0.017651 0.824707 0.093756 0.7412 0.7412 0.7412
v -0.050594 0.832344 0.122258 0.8039 0.8039 0.8039
v -0.056507 0.807039 0.182366 0.9098 0.9098 0.9098
v 0.017651 0.858807 0.221019 0.9451 0.9451 0.9451
v 0.053042 0.812988 0.204570 0.8862 0.8862 0.8862
v 0.053899 0.838019 0.143438 0.8353 0.8353 0.8353
v 0.025631 0.827058 0.102529 0.7529 0.7529 0.7529
v -0.032641 0.864662 0.126959 0.8157 0.8157 0.8157
v -0.053899 0.845495 0.171338 0.9058 0.9058 0.9058
v -0.016536 0.880218 0.185016 0.9255 0.9255 0.9255
v -0.025631 0.856456 0.212246 0.9490 0.9490 0.9490
v 0.050594 0.851170 0.192518 0.9137 0.9137 0.9137
v 0.011388 0.881735 0.190676 0.9333 0.9333 0.9333
v 0.034773 0.868323 0.140623 0.8353 0.8353 0.8353
v 0.016536 0.861251 0.114231 0.7843 0.7843 0.7843
v -0.011388 0.859735 0.108571 0.7843 0.7843 0.7843
v -0.034773 0.873146 0.158623 0.8784 0.8784 0.8784
v 0.000000 0.880394 0.147035 0.8509 0.8509 0.8509
v 0.032641 0.876808 0.172288 0.8902 0.8902 0.8902
v 0.056581 0.851495 0.203391 0.8157 0.8157 0.8157
v -0.025523 0.784745 0.244052 0.8549 0.8549 0.8549
v -0.022417 0.860189 0.235837 0.9451 0.9451 0.9451
v 0.059687 0.782051 0.233998 0.9294 0.9294 0.9294
v 0.059687 0.854495 0.214587 0.9176 0.9176 0.9176
v -0.025523 0.857189 0.224641 0.8549 0.8549 0.8549
v 0.056581 0.779051 0.222802 0.8157 0.8157 0.8157
v -0.022417 0.787745 0.255248 0.9529 0.9529 0.9529
v 0.050631 0.789979 0.226883 0.7020 0.7020 0.7020
v -0.029925 0.760918 0.203427 0.8353 0.8353 0.8353
v -0.016984 0.773418 0.250077 0.9411 0.9411 0.9411
v 0.050631 0.768729 0.232577 0.9176 0.9176 0.9176
v 0.037690 0.756229 0.185927 0.7921 0.7921 0.7921
v -0.016984 0.794669 0.244383 0.7020 0.7020 0.7020
v 0.037690 0.777479 0.180233 0.7020 0.7020 0.7020
v -0.029925 0.782169 0.197733 0.7020 0.7020 0.7020
v -0.171457 0.671604 0.162635 0.8588 0.8588 0.8588
v -0.300000 0.946184 0.064462 0.7568 0.7568 0.7568
v -0.300000 0.953816 0.095538 0.9568 0.9568 0.9568
v -0.148543 0.688396 0.177365 0.8470 0.8470 0.8470
v -0.315437 0.945913 0.081004 0.8549 0.8549 0.8549
v -0.335966 1.248964 0.030173 0.7020 0.7020 0.7020
v -0.284563 0.954087 0.078996 0.8588 0.8588 0.8588
v -0.304034 1.251036 0.029827 0.7020 0.7020 0.7020
v -0.320000 1.252630 0.045782 0.7020 0.7020 0.7020
v -0.320000 1.247370 0.014218 0.7020 0.7020 0.7020
v -0.168652 0.680000 0.183459 0.9294 0.9294 0.9294
v -0.151348 0.680000 0.156541 0.7804 0.7804 0.7804
v -0.302500 1.220000 -0.000311 0.7608 0.7608 0.7608
v -0.285000 1.280000 0.030000 0.8470 0.8470 0.8470
v -0.337500 1.220000 -0.000311 0.7686 0.7686 0.7686
v -0.337500 1.280000 -0.000311 0.7647 0.7647 0.7647
v -0.302500 1.280000 -0.000311 0.7568 0.7568 0.7568
v -0.355000 1.220000 0.030000 0.8431 0.8431 0.8431
v -0.337500 1.220000 0.060311 0.9333 0.9333 0.9333
v -0.355000 1.280000 0.030000 0.8509 0.8509 0.8509
v -0.302500 1.220000 0.060311 0.9255 0.9255 0.9255
v -0.337500 1.280000 0.060311 0.9333 0.9333 0.9333
v -0.285000 1.220000 0.030000 0.8353 0.8353 0.8353
v -0.302500 1.280000 0.060311 0.9294 0.9294 0.9294
v -0.320000 1.281168 0.039932 0.8078 0.8078 0.8078
v -0.330000 1.450000 0.010000 0.7020 0.7020 0.7020
v -0.310000 1.450000 0.010000 0.7020 0.7020 0.7020
v -0.320000 1.451168 0.019932 0.8627 0.8627 0.8627
v -0.310000 1.280000 0.030000 0.7608 0.7608 0.7608
v -0.320000 1.278832 0.020068 0.7176 0.7176 0.7176
v -0.320000 1.448832 0.000068 0.7020 0.7020 0.7020
v -0.330000 1.280000 0.030000 0.7608 0.7608 0.7608
v -0.350000 1.500000 0.020000 0.9019 0.9019 0.9019
v -0.350000 1.440000 0.000000 0.7882 0.7882 0.7882
v -0.290000 1.440000 0.000000 0.7843 0.7843 0.7843
v -0.290000 1.500000 0.020000 0.8980 0.8980 0.8980
v -0.290000 1.500000 0.000000 0.7960 0.7960 0.7960
v -0.350000 1.500000 0.000000 0.7960 0.7960 0.7960
v -0.290000 1.440000 0.020000 0.8941 0.8941 0.8941
v -0.350000 1.440000 0.020000 0.8980 0.8980 0.8980
v -0.129935 0.160026 0.618980 0.9764 0.9764 0.9764
v -0.100362 0.060594 0.224824 0.7020 0.7020 0.7020
v -0.110041 0.180000 0.621279 0.9607 0.9607 0.9607
v -0.130065 0.199974 0.621020 0.9843 0.9843 0.9843
v -0.099638 0.099406 0.215176 0.7020 0.7020 0.7020
v -0.169972 0.040000 0.998949 0.8039 0.8039 0.8039
v -0.149637 0.021230 0.993104 0.7020 0.7020 0.7020
v -0.150363 0.058770 1.006896 0.9372 0.9372 0.9372
v -0.130028 0.040000 1.001051 0.8000 0.8000 0.8000
v -0.149959 0.180000 0.618721 0.9960 0.9960 0.9960
v -0.080056 0.080000 0.221496 0.7020 0.7020 0.7020
v -0.119944 0.080000 0.218504 0.7020 0.7020 0.7020
v -0.185000 0.000000 1.130000 1.0000 1.0000 1.0000
v -0.115000 0.000000 1.130000 0.9882 0.9882 0.9882
v -0.185000 0.040000 1.130000 1.0000 1.0000 1.0000
v -0.115000 0.000000 0.970000 0.9804 0.9804 0.9804
v -0.185000 0.000000 0.970000 0.9921 0.9921 0.9921
v -0.185000 0.040000 0.970000 0.9686 0.9686 0.9686
v -0.115000 0.040000 0.970000 0.9529 0.9529 0.9529
v -0.115000 0.040000 1.130000 0.9921 0.9921 0.9921
v 0.168652 0.680000 0.183459 0.8745 0.8745 0.8745
v 0.300000 0.946184 0.064462 0.7764 0.7764 0.7764
v 0.151348 0.680000 0.156541 0.7921 0.7921 0.7921
v 0.300000 0.953816 0.095538 0.9215 0.9215 0.9215
v 0.284563 0.954087 0.078996 0.7921 0.7921 0.7921
v 0.148543 0.688396 0.177365 0.8941 0.8941 0.8941
v 0.304034 1.251036 0.029827 0.7020 0.7020 0.7020
v 0.320000 1.247370 0.014218 0.7020 0.7020 0.7020
v 0.320000 1.252630 0.045782 0.7020 0.7020 0.7020
v 0.335966 1.248964 0.030173 0.7020 0.7020 0.7020
v 0.315437 0.945913 0.081004 0.8902 0.8902 0.8902
v 0.171457 0.671604 0.162635 0.7764 0.7764 0.7764
v 0.355000 1.280000 0.030000 0.8470 0.8470 0.8470
v 0.302500 1.280000 -0.000311 0.7647 0.7647 0.7647
v 0.302500 1.220000 -0.000311 0.7686 0.7686 0.7686
v 0.285000 1.280000 0.030000 0.8509 0.8509 0.8509
v 0.302500 1.220000 0.060311 0.9294 0.9294 0.9294
v 0.302500 1.280000 0.060311 0.9333 0.9333 0.9333
v 0.337500 1.220000 0.060311 0.9294 0.9294 0.9294
v 0.337500 1.280000 0.060311 0.9294 0.9294 0.9294
v 0.337500 1.280000 -0.000311 0.7568 0.7568 0.7568
v 0.285000 1.220000 0.030000 0.8392 0.8392 0.8392
v 0.337500 1.220000 -0.000311 0.7608 0.7608 0.7608
v 0.355000 1.220000 0.030000 0.8431 0.8431 0.8431
v 0.310000 1.280000 0.030000 0.7608 0.7608 0.7608
v 0.310000 1.450000 0.010000 0.7020 0.7020 0.7020
v 0.330000 1.280000 0.030000 0.7608 0.7608 0.7608
v 0.320000 1.278832 0.020068 0.7176 0.7176 0.7176
v 0.320000 1.281168 0.039932 0.8078 0.8078 0.8078
v 0.320000 1.448832 0.000068 0.7020 0.7020 0.7020
v 0.320000 1.451168 0.019932 0.8627 0.8627 0.8627
v 0.330000 1.450000 0.010000 0.7020 0.7020 0.7020
v 0.350000 1.440000 0.000000 0.7843 0.7843 0.7843
v 0.290000 1.440000 0.000000 0.7882 0.7882 0.7882
v 0.290000 1.500000 0.000000 0.7960 0.7960 0.7960
v 0.350000 1.500000 0.000000 0.7960 0.7960 0.7960
v 0.290000 1.500000 0.020000 0.9019 0.9019 0.9019
v 0.350000 1.500000 0.020000 0.8980 0.8980 0.8980
v 0.350000 1.440000 0.020000 0.8941 0.8941 0.8941
v 0.290000 1.440000 0.020000 0.8980 0.8980 0.8980
v 0.100362 0.060594 0.224824 0.7020 0.7020 0.7020
v 0.149959 0.180000 0.618721 0.9960 0.9960 0.9960
v 0.129935 0.160026 0.618980 0.9725 0.9725 0.9725
v 0.119944 0.080000 0.218504 0.7020 0.7020 0.7020
v 0.110041 0.180000 0.621279 0.9647 0.9647 0.9647
v 0.130065 0.199974 0.621020 0.9804 0.9804 0.9804
v 0.130028 0.040000 1.001051 0.8000 0.8000 0.8000
v 0.149637 0.021230 0.993104 0.7020 0.7020 0.7020
v 0.099638 0.099406 0.215176 0.7020 0.7020 0.7020
v 0.080056 0.080000 0.221496 0.7020 0.7020 0.7020
v 0.169972 0.040000 0.998949 0.8078 0.8078 0.8078
v 0.150363 0.058770 1.006896 0.9333 0.9333 0.9333
v 0.115000 0.000000 1.130000 0.9882 0.9882 0.9882
v 0.115000 0.040000 1.130000 0.9882 0.9882 0.9882
v 0.185000 0.000000 0.970000 0.9921 0.9921 0.9921
v 0.115000 0.040000 0.970000 0.9451 0.9451 0.9451
v 0.185000 0.040000 0.970000 0.9686 0.9686 0.9686
v 0.185000 0.040000 1.130000 1.0000 1.0000 1.0000
v 0.115000 0.000000 0.970000 0.9843 0.9843 0.9843
v 0.185000 0.000000 1.130000 1.0000 1.0000 1.0000
vn -0.0000 -0.0000 1.0000
vn -0.0000 -0.0000 -1.0000
vn -1.0000 -0.0000 -0.0000
vn 1.0000 -0.0000 -0.0000
vn -0.0000 1.0000 -0.0000
vn -0.0000 -1.0000 -0.0000
vn 0.5812 -0.8137 -0.0000
vn 0.3768 -0.7630 -0.5252
vn 0.5686 -0.4509 -0.6880
vn 0.8791 -0.4766 -0.0000
vn -0.0000 -0.7241 -0.6897
vn -0.0000 -0.4222 -0.9065
vn -0.3768 -0.7630 -0.5252
vn -0.5686 -0.4509 -0.6880
vn -0.5812 -0.8137 -0.0000
vn -0.8791 -0.4766 -0.0000
vn -0.3768 -0.7630 0.5252
vn -0.5686 -0.4509 0.6880
vn -0.0000 -0.7241 0.6897
vn -0.0000 -0.4222 0.9065
vn 0.3768 -0.7630 0.5252
vn 0.5686 -0.4509 0.6880
vn 0.6386 0.0580 -0.7673
vn 0.8739 0.0570 -0.4827
vn -0.0000 0.0516 -0.9987
vn -0.6386 0.0580 -0.7673
vn -0.8739 0.0570 -0.4827
vn -0.6386 0.0580 0.7673
vn -0.8739 0.0570 0.4827
vn -0.0000 0.0516 0.9987
vn 0.6386 0.0580 0.7673
vn 0.8739 0.0570 0.4827
vn 0.5308 0.5429 -0.6507
vn 0.8207 0.5714 -0.0000
vn -0.0000 0.5125 -0.8587
vn -0.5308 0.5429 -0.6507
vn -0.8207 0.5714 -0.0000
vn -0.5308 0.5429 0.6507
vn -0.0000 0.5125 0.8587
vn 0.5308 0.5429 0.6507
vn 0.3244 0.8272 -0.4588
vn 0.4961 0.8682 -0.0000
vn -0.0000 0.7954 -0.6060
vn -0.3244 0.8272 -0.4588
vn -0.4961 0.8682 -0.0000
vn -0.3244 0.8272 0.4588
vn -0.0000 0.7954 0.6060
vn 0.3244 0.8272 0.4588
vn -0.0000 -0.9659 0.2588
vn 0.3882 -0.8531 -0.3486
vn 0.6705 -0.7418 0.0128
vn -0.1717 -0.8886 -0.4253
vn -0.6150 -0.7835 -0.0890
vn -0.6705 -0.6488 0.3598
vn -0.3882 -0.5645 0.7285
vn 0.1717 -0.5569 0.8127
vn 0.6150 -0.6340 0.4688
vn 0.5425 -0.3956 -0.7411
vn 0.9506 -0.2375 -0.2001
vn -0.2534 -0.4409 -0.8610
vn -0.8789 -0.2970 -0.3732
vn -0.9506 -0.1056 0.2920
vn -0.5425 0.0279 0.8396
vn 0.2534 0.0487 0.9661
vn 0.8789 -0.0707 0.4717
vn 0.5247 0.1103 -0.8441
vn 0.9199 0.2307 -0.3170
vn -0.2429 0.0987 -0.9650
vn -0.8478 0.2055 -0.4889
vn -0.9199 0.3583 0.1592
vn -0.5247 0.5176 0.6759
vn 0.2429 0.5680 0.7864
vn 0.8478 0.4224 0.3207
vn 0.3538 0.6332 -0.6884
vn 0.6105 0.7062 -0.3586
vn -0.1532 0.6304 -0.7610
vn -0.5569 0.6964 -0.4527
vn -0.6105 0.7909 -0.0426
vn -0.3538 0.8926 0.2796
vn 0.1532 0.9264 0.3439
vn 0.5569 0.8294 0.0439
vn -0.0000 0.9659 -0.2588
vn 0.2588 0.2500 0.9330
vn -0.2588 -0.2500 -0.9330
vn -0.9659 0.0670 0.2500
vn 0.9659 -0.0670 -0.2500
vn -0.3913 -0.4667 -0.7931
vn -0.5684 -0.3216 -0.7573
vn -0.5666 -0.3233 -0.7579
vn -0.8117 -0.2435 0.5310
vn -0.7711 -0.0864 0.6308
vn -0.7721 -0.0892 0.6292
vn 0.3909 0.4675 0.7929
vn 0.5686 0.3212 0.7573
vn 0.5661 0.3235 0.7582
vn 0.8114 0.2441 -0.5311
vn 0.7712 0.0870 -0.6306
vn 0.7717 0.0884 -0.6298
vn -0.7129 -0.1620 -0.6823
vn -0.7042 0.0707 0.7065
vn 0.7130 0.1606 0.6825
vn 0.7042 -0.0709 -0.7064
vn 0.4414 -0.8513 0.2838
vn -0.0656 0.9843 -0.1640
vn 0.8660 -0.0000 -0.5000
vn -0.8660 -0.0000 -0.5000
vn -0.8660 -0.0000 0.5000
vn 0.8660 -0.0000 0.5000
vn -0.7071 -0.0826 -0.7023
vn -0.7071 0.0826 0.7023
vn 0.7071 0.0826 0.7023
vn 0.7071 -0.0826 -0.7023
vn -0.0000 -0.9932 0.1168
vn -0.0000 0.9932 -0.1168
vn -0.7099 -0.6938 0.1209
vn -0.7119 -0.6973 -0.0837
vn -0.7119 -0.6973 -0.0831
vn 0.6847 -0.6931 0.2255
vn 0.7156 -0.6985 0.0081
vn 0.7156 -0.6985 0.0075
vn 0.7099 0.6940 -0.1196
vn 0.7118 0.6974 0.0830
vn 0.7118 0.6974 0.0836
vn -0.6849 0.6933 -0.2239
vn -0.7155 0.6986 -0.0075
vn -0.7154 0.6986 -0.0081
vn -0.6841 -0.6717 -0.2843
vn 0.7118 -0.6701 -0.2103
vn 0.6843 0.6721 0.2828
vn -0.7119 0.6706 0.2087
vn 0.0726 -0.2419 -0.9676
vn -0.0493 -0.3453 0.9372
vn 0.4079 -0.4707 -0.7823
vn -0.8047 0.2371 -0.5443
vn -0.4074 0.4733 0.7811
vn 0.8058 -0.2354 0.5434
vn -0.7042 -0.0709 -0.7064
vn -0.7130 0.1606 0.6825
vn 0.7042 0.0707 0.7065
vn 0.7129 -0.1620 -0.6823
vn -0.4414 -0.8513 0.2838
vn 0.0656 0.9843 -0.1640
vn -0.6847 -0.6931 0.2255
vn -0.7156 -0.6985 0.0075
vn -0.7156 -0.6985 0.0081
vn 0.7099 -0.6938 0.1209
vn 0.7119 -0.6973 -0.0831
vn 0.7119 -0.6973 -0.0837
vn 0.6849 0.6933 -0.2239
vn 0.7154 0.6986 -0.0081
vn 0.7155 0.6986 -0.0075
vn -0.7099 0.6940 -0.1196
vn -0.7118 0.6974 0.0836
vn -0.7118 0.6974 0.0830
vn -0.7118 -0.6701 -0.2103
vn 0.6841 -0.6717 -0.2843
vn 0.7119 0.6706 0.2087
vn -0.6843 0.6721 0.2828
vn -0.0726 -0.2419 -0.9676
vn 0.0493 -0.3453 0.9372
vt 0.250488 0.844238
vt 0.280762 0.844238
vt 0.280762 0.855882
vt 0.250488 0.855882
vt 0.269863 0.844238
vt 0.269863 0.856348
vt 0.250488 0.856348
vt 0.280762 0.862868
vt 0.250488 0.862868
vt 0.255332 0.844238
vt 0.255332 0.850293
vt 0.250488 0.850293
vt 0.255332 0.849082
vt 0.250488 0.849082
vt 0.254272 0.844238
vt 0.254272 0.850707
vt 0.250488 0.850707
vt 0.258057 0.844238
vt 0.258057 0.850707
vt 0.261841 0.844238
vt 0.261841 0.850707
vt 0.265625 0.844238
vt 0.265625 0.850707
vt 0.269409 0.844238
vt 0.269409 0.850707
vt 0.273193 0.844238
vt 0.273193 0.850707
vt 0.276978 0.844238
vt 0.276978 0.850707
vt 0.280762 0.850707
vt 0.254272 0.860598
vt 0.250488 0.860598
vt 0.258057 0.860598
vt 0.261841 0.860598
vt 0.265625 0.860598
vt 0.269409 0.860598
vt 0.273193 0.860598
vt 0.276978 0.860598
vt 0.280762 0.860598
vt 0.254272 0.868449
vt 0.250488 0.868449
vt 0.258057 0.868449
vt 0.261841 0.868449
vt 0.265625 0.868449
vt 0.269409 0.868449
vt 0.273193 0.868449
vt 0.276978 0.868449
vt 0.280762 0.868449
vt 0.254272 0.874512
vt 0.250488 0.874512
vt 0.258057 0.874512
vt 0.261841 0.874512
vt 0.265625 0.874512
vt 0.269409 0.874512
vt 0.273193 0.874512
vt 0.276978 0.874512
vt 0.280762 0.874512
vt 0.252380 0.844238
vt 0.254272 0.851015
vt 0.250488 0.851015
vt 0.256165 0.844238
vt 0.258057 0.851015
vt 0.259949 0.844238
vt 0.261841 0.851015
vt 0.263733 0.844238
vt 0.265625 0.851015
vt 0.267517 0.844238
vt 0.269409 0.851015
vt 0.271301 0.844238
vt 0.273193 0.851015
vt 0.275085 0.844238
vt 0.276978 0.851015
vt 0.278870 0.844238
vt 0.280762 0.851015
vt 0.254272 0.857263
vt 0.250488 0.857263
vt 0.258057 0.857263
vt 0.261841 0.857263
vt 0.265625 0.857263
vt 0.269409 0.857263
vt 0.273193 0.857263
vt 0.276978 0.857263
vt 0.280762 0.857263
vt 0.254272 0.863099
vt 0.250488 0.863099
vt 0.258057 0.863099
vt 0.261841 0.863099
vt 0.265625 0.863099
vt 0.269409 0.863099
vt 0.273193 0.863099
vt 0.276978 0.863099
vt 0.280762 0.863099
vt 0.254272 0.868512
vt 0.250488 0.868512
vt 0.258057 0.868512
vt 0.261841 0.868512
vt 0.265625 0.868512
vt 0.269409 0.868512
vt 0.273193 0.868512
vt 0.276978 0.868512
vt 0.280762 0.868512
vt 0.252380 0.874512
vt 0.256165 0.874512
vt 0.259949 0.874512
vt 0.263733 0.874512
vt 0.267517 0.874512
vt 0.271301 0.874512
vt 0.275085 0.874512
vt 0.278870 0.874512
vt 0.344238 0.844238
vt 0.374512 0.844238
vt 0.374512 0.874512
vt 0.344238 0.874512
vt 0.260781 0.844238
vt 0.260781 0.853320
vt 0.250488 0.853320
vt 0.251941 0.844238
vt 0.251941 0.853320
vt 0.260781 0.845691
vt 0.250488 0.845691
vt 0.258965 0.844238
vt 0.258965 0.846902
vt 0.250488 0.846902
vt 0.256543 0.844238
vt 0.256543 0.846902
vt 0.258965 0.850293
vt 0.258057 0.859375
vt 0.250488 0.859375
vt 0.265625 0.859375
vt 0.273193 0.859375
vt 0.280762 0.859375
vt 0.280762 0.867658
vt 0.254194 0.874512
vt 0.250488 0.851092
vt 0.277056 0.844238
vt 0.250488 0.859209
vt 0.280762 0.859541
vt 0.312988 0.844238
vt 0.318034 0.844238
vt 0.318034 0.874512
vt 0.312988 0.874512
vt 0.323079 0.844238
vt 0.323079 0.874512
vt 0.328125 0.844238
vt 0.328125 0.874512
vt 0.333171 0.844238
vt 0.333171 0.874512
vt 0.338216 0.844238
vt 0.338216 0.874512
vt 0.343262 0.844238
vt 0.343262 0.874512
vt 0.343262 0.859375
vt 0.335693 0.874512
vt 0.320557 0.874512
vt 0.312988 0.859375
vt 0.320557 0.844238
vt 0.335693 0.844238
vt 0.320254 0.844238
vt 0.320254 0.851504
vt 0.312988 0.851504
vt 0.315410 0.844238
vt 0.315410 0.851504
vt 0.320254 0.846660
vt 0.312988 0.846660
vt 0.258965 0.849082
vt 0.269863 0.849082
vt 0.258965 0.863613
vt 0.250488 0.863613
vt 0.250488 0.867658
vt 0.254194 0.844238
vt 0.280762 0.851092
vt 0.277056 0.874512
vt 0.250488 0.859541
vt 0.280762 0.859209
s 0
usemtl props
f 3/1/1 8/2/1 5/3/1 6/4/1
f 1/1/2 2/2/2 4/3/2 7/4/2
f 2/1/3 3/5/3 6/6/3 4/7/3
f 8/1/4 1/5/4 7/6/4 5/7/4
f 6/1/5 5/2/5 7/8/5 4/9/5
f 2/1/6 1/2/6 8/8/6 3/9/6
f 9/1/1 16/10/1 14/11/1 13/12/1
f 10/1/2 15/10/2 11/11/2 12/12/2
f 15/1/3 9/10/3 13/11/3 11/12/3
f 16/1/4 10/10/4 12/11/4 14/12/4
f 13/1/5 14/10/5 12/13/5 11/14/5
f 15/1/6 10/10/6 16/13/6 9/14/6
f 17/1/1 24/10/1 18/11/1 19/12/1
f 22/1/2 20/10/2 21/11/2 23/12/2
f 20/1/3 17/10/3 19/11/3 21/12/3
f 24/1/4 22/10/4 23/11/4 18/12/4
f 19/1/5 18/10/5 23/13/5 21/14/5
f 20/1/6 22/10/6 24/13/6 17/14/6
f 25/1/1 28/10/1 29/11/1 30/12/1
f 32/1/2 31/10/2 26/11/2 27/12/2
f 31/1/3 25/10/3 30/11/3 26/12/3
f 28/1/4 32/10/4 27/11/4 29/12/4
f 30/1/5 29/10/5 27/13/5 26/14/5
f 31/1/6 32/10/6 28/13/6 25/14/6
f 33/1/1 34/10/1 35/11/1 38/12/1
f 36/1/2 40/10/2 39/11/2 37/12/2
f 40/1/3 33/10/3 38/11/3 39/12/3
f 34/1/4 36/10/4 37/11/4 35/12/4
f 38/1/5 35/10/5 37/13/5 39/14/5
f 40/1/6 36/10/6 34/13/6 33/14/6
f 41/1/1 44/10/1 46/11/1 47/12/1
f 48/1/2 42/10/2 43/11/2 45/12/2
f 42/1/3 41/10/3 47/11/3 43/12/3
f 44/1/4 48/10/4 45/11/4 46/12/4
f 47/1/5 46/10/5 45/13/5 43/14/5
f 42/1/6 48/10/6 44/13/6 41/14/6
s 1
f 49/1/7 50/15/8 62/16/9 61/17/10
f 50/15/8 52/18/11 51/19/12 62/16/9
f 52/18/11 53/20/13 64/21/14 51/19/12
f 53/20/13 55/22/15 54/23/16 64/21/14
f 55/22/15 57/24/17 56/25/18 54/23/16
f 57/24/17 58/26/19 60/27/20 56/25/18
f 58/26/19 59/28/21 67/29/22 60/27/20
f 59/28/21 49/2/7 61/30/10 67/29/22
f 61/17/10 62/16/9 70/31/23 75/32/24
f 62/16/9 51/19/12 63/33/25 70/31/23
f 51/19/12 64/21/14 65/34/26 63/33/25
f 64/21/14 54/23/16 72/35/27 65/34/26
f 54/23/16 56/25/18 66/36/28 72/35/29
f 56/25/18 60/27/20 73/37/30 66/36/28
f 60/27/20 67/29/22 68/38/31 73/37/30
f 67/29/22 61/30/10 75/39/32 68/38/31
f 75/32/24 70/31/23 69/40/33 76/41/34
f 70/31/23 63/33/25 79/42/35 69/40/33
f 63/33/25 65/34/26 71/43/36 79/42/35
f 65/34/26 72/35/27 83/44/37 71/43/36
f 72/35/29 66/36/28 74/45/38 83/44/37
f 66/36/28 73/37/30 87/46/39 74/45/38
f 73/37/30 68/38/31 77/47/40 87/46/39
f 68/38/31 75/39/32 76/48/34 77/47/40
f 76/41/34 69/40/33 80/49/41 78/50/42
f 69/40/33 79/42/35 82/51/43 80/49/41
f 79/42/35 71/43/36 81/52/44 82/51/43
f 71/43/36 83/44/37 84/53/45 81/52/44
f 83/44/37 74/45/38 86/54/46 84/53/45
f 74/45/38 87/46/39 85/55/47 86/54/46
f 87/46/39 77/47/40 88/56/48 85/55/47
f 77/47/40 76/48/34 78/57/42 88/56/48
f 90/58/49 97/59/50 89/60/51
f 90/61/49 91/62/52 97/59/50
f 90/63/49 99/64/53 91/62/52
f 90/65/49 92/66/54 99/64/53
f 90/67/49 93/68/55 92/66/54
f 90/69/49 94/70/56 93/68/55
f 90/71/49 95/72/57 94/70/56
f 90/73/49 89/74/51 95/72/57
f 89/60/51 97/59/50 96/75/58 103/76/59
f 97/59/50 91/62/52 98/77/60 96/75/58
f 91/62/52 99/64/53 100/78/61 98/77/60
f 99/64/53 92/66/54 106/79/62 100/78/61
f 92/66/54 93/68/55 101/80/63 106/79/62
f 93/68/55 94/70/56 102/81/64 101/80/63
f 94/70/56 95/72/57 108/82/65 102/81/64
f 95/72/57 89/74/51 103/83/59 108/82/65
f 103/76/59 96/75/58 110/84/66 109/85/67
f 96/75/58 98/77/60 104/86/68 110/84/66
f 98/77/60 100/78/61 105/87/69 104/86/68
f 100/78/61 106/79/62 112/88/70 105/87/69
f 106/79/62 101/80/63 114/89/71 112/88/70
f 101/80/63 102/81/64 107/90/72 114/89/71
f 102/81/64 108/82/65 115/91/73 107/90/72
f 108/82/65 103/83/59 109/92/67 115/91/73
f 109/85/67 110/84/66 118/93/74 117/94/75
f 110/84/66 104/86/68 119/95/76 118/93/74
f 104/86/68 105/87/69 111/96/77 119/95/76
f 105/87/69 112/88/70 120/97/78 111/96/77
f 112/88/70 114/89/71 113/98/79 120/97/78
f 114/89/71 107/90/72 116/99/80 113/98/79
f 107/90/72 115/91/73 122/100/81 116/99/80
f 115/91/73 109/92/67 117/101/75 122/100/81
f 117/94/75 118/93/74 121/102/82
f 118/93/74 119/95/76 121/103/82
f 119/95/76 111/96/77 121/104/82
f 111/96/77 120/97/78 121/105/82
f 120/97/78 113/98/79 121/106/82
f 113/98/79 116/99/80 121/107/82
f 116/99/80 122/100/81 121/108/82
f 122/100/81 117/101/75 121/109/82
s 0
f 130/110/83 126/111/83 127/112/83 125/113/83
f 129/1/84 124/114/84 128/115/84 123/116/84
f 124/1/85 130/117/85 125/118/85 128/116/85
f 126/1/86 129/117/86 123/118/86 127/116/86
f 125/1/82 127/114/82 123/119/82 128/120/82
f 124/1/49 129/114/49 126/119/49 130/120/49
f 133/1/83 134/121/83 131/122/83 136/123/83
f 135/1/84 132/121/84 138/122/84 137/123/84
f 132/1/85 133/124/85 136/125/85 138/123/85
f 134/1/86 135/124/86 137/125/86 131/123/86
f 136/1/82 131/121/82 137/126/82 138/12/82
f 132/1/49 135/121/49 134/126/49 133/12/49
s 1
f 150/1/87 139/18/87 143/127/88 140/128/89
f 139/18/90 149/22/90 141/129/91 143/127/92
f 149/22/93 142/26/93 145/130/94 141/129/95
f 142/26/96 150/2/96 140/131/97 145/130/98
f 140/128/89 143/127/88 144/51/99 148/50/99
f 143/127/92 141/129/91 147/53/100 144/51/100
f 141/129/95 145/130/94 146/55/101 147/53/101
f 145/130/98 140/131/97 148/57/102 146/55/102
s 0
f 142/132/103 149/133/103 139/134/103 150/135/103
f 148/53/104 144/136/104 147/22/104 146/137/104
s 1
f 161/138/105 151/139/105 155/140/105 152/141/105
f 151/139/2 153/142/2 154/143/2 155/140/2
f 153/142/106 156/144/106 158/145/106 154/143/106
f 156/144/107 157/146/107 160/147/107 158/145/107
f 157/146/1 159/148/1 162/149/1 160/147/1
f 159/148/108 161/150/108 152/151/108 162/149/108
s 0
f 152/152/5 155/153/5 154/154/5 158/155/5 160/156/5 162/157/5
f 159/153/6 157/154/6 156/155/6 153/156/6 151/157/6 161/152/6
s 1
f 168/138/109 170/156/109 164/154/109 169/141/109
f 170/156/110 163/144/110 166/145/110 164/154/110
f 163/144/111 167/157/111 165/153/111 166/145/111
f 167/157/112 168/150/112 169/151/112 165/153/112
s 0
f 167/152/113 163/145/113 170/155/113 168/144/113
f 169/145/114 164/155/114 166/144/114 165/152/114
f 178/138/1 177/158/1 174/159/1 171/160/1
f 173/138/2 172/158/2 176/159/2 175/160/2
f 172/138/3 178/161/3 171/162/3 176/160/3
f 177/138/4 173/161/4 175/162/4 174/160/4
f 171/138/5 174/158/5 175/163/5 176/164/5
f 172/138/6 173/158/6 177/163/6 178/164/6
s 1
f 190/1/115 180/18/115 179/127/116 188/128/117
f 180/18/118 189/22/118 181/129/119 179/127/120
f 189/22/121 183/26/121 182/130/122 181/129/123
f 183/26/124 190/2/124 188/131/125 182/130/126
f 188/128/117 179/127/116 185/51/127 184/50/127
f 179/127/120 181/129/119 187/53/128 185/51/128
f 181/129/123 182/130/122 186/55/129 187/53/129
f 182/130/126 188/131/125 184/57/130 186/55/130
s 0
f 183/53/131 189/128/131 180/22/131 190/131/131
f 184/128/132 185/22/132 187/131/132 186/53/132
f 191/1/1 192/121/1 198/165/1 193/14/1
f 194/1/2 195/121/2 196/165/2 197/14/2
f 195/1/3 191/5/3 193/166/3 196/14/3
f 192/1/4 194/5/4 197/166/4 198/14/4
f 193/1/5 198/121/5 197/167/5 196/168/5
f 195/1/6 194/121/6 192/167/6 191/168/6
s 1
f 199/1/133 210/18/133 203/127/133 200/128/133
f 210/18/134 201/22/134 202/129/134 203/127/134
f 201/22/135 204/26/135 209/130/135 202/129/135
f 204/26/136 199/2/136 200/131/136 209/130/136
f 200/128/137 203/127/137 205/51/137 206/50/137
f 203/127/138 202/129/138 207/53/138 205/51/138
f 202/129/139 209/130/139 208/55/139 207/53/139
f 209/130/140 200/131/140 206/57/140 208/55/140
s 0
f 204/169/141 201/170/141 210/171/141 199/172/141
f 206/53/142 205/173/142 207/22/142 208/174/142
s 1
f 222/138/105 221/139/105 219/140/105 211/141/105
f 221/139/2 213/142/2 212/143/2 219/140/2
f 213/142/106 220/144/106 214/145/106 212/143/106
f 220/144/107 215/146/107 216/147/107 214/145/107
f 215/146/1 217/148/1 218/149/1 216/147/1
f 217/148/108 222/150/108 211/151/108 218/149/108
s 0
f 211/152/5 219/153/5 212/154/5 214/155/5 216/156/5 218/157/5
f 217/153/6 215/154/6 220/155/6 213/156/6 221/157/6 222/152/6
s 1
f 226/138/109 223/156/109 224/154/109 228/141/109
f 223/156/110 227/144/110 229/145/110 224/154/110
f 227/144/111 225/157/111 230/153/111 229/145/111
f 225/157/112 226/150/112 228/151/112 230/153/112
s 0
f 225/152/113 227/145/113 223/155/113 226/144/113
f 228/145/114 224/155/114 229/144/114 230/152/114
f 238/138/1 237/158/1 236/159/1 235/160/1
f 231/138/2 232/158/2 233/159/2 234/160/2
f 232/138/3 238/161/3 235/162/3 233/160/3
f 237/138/4 231/161/4 234/162/4 236/160/4
f 235/138/5 236/158/5 234/163/5 233/164/5
f 232/138/6 231/158/6 237/163/6 238/164/6
s 1
f 248/1/143 239/18/143 241/127/144 243/128/145
f 239/18/146 242/22/146 240/129/147 241/127/148
f 242/22/149 247/26/149 244/130/150 240/129/151
f 247/26/152 248/2/152 243/131/153 244/130/154
f 243/128/145 241/127/144 246/51/155 245/50/155
f 241/127/148 240/129/147 249/53/156 246/51/156
f 240/129/151 244/130/150 250/55/157 249/53/157
f 244/130/154 243/131/153 245/57/158 250/55/158
s 0
f 247/53/159 242/128/159 239/22/159 248/131/159
f 245/128/160 246/22/160 249/131/160 250/53/160
f 251/1/1 258/121/1 256/165/1 252/14/1
f 253/1/2 257/121/2 254/165/2 255/14/2
f 257/1/3 251/5/3 252/166/3 254/14/3
f 258/1/4 253/5/4 255/166/4 256/14/4
f 252/1/5 256/121/5 255/167/5 254/168/5
f 257/1/6 253/121/6 258/167/6 251/168/6
