# Blender 4.5.14 LTS
# www.blender.org
mtllib torch_wall.mtl
o torch_wall
v 0.040000 1.820000 0.020000 0.8588 0.8588 0.8588
v 0.040000 1.820000 0.000000 0.7843 0.7843 0.7843
v 0.040000 1.580000 0.000000 0.7960 0.7960 0.7960
v -0.040000 1.820000 0.020000 0.8666 0.8666 0.8666
v -0.040000 1.820000 0.000000 0.7882 0.7882 0.7882
v -0.040000 1.580000 0.000000 0.8000 0.8000 0.8000
v 0.040000 1.580000 0.020000 0.8823 0.8823 0.8823
v -0.040000 1.580000 0.020000 0.8823 0.8823 0.8823
v -0.015000 1.625000 0.150000 0.7020 0.7020 0.7020
v 0.015000 1.625000 0.150000 0.7020 0.7020 0.7020
v 0.015000 1.655000 0.010000 0.7020 0.7020 0.7020
v -0.015000 1.655000 0.150000 0.7020 0.7020 0.7020
v 0.015000 1.625000 0.010000 0.7020 0.7020 0.7020
v 0.015000 1.655000 0.150000 0.7020 0.7020 0.7020
v -0.015000 1.655000 0.010000 0.7020 0.7020 0.7020
v -0.015000 1.625000 0.010000 0.7020 0.7020 0.7020
v 0.045000 1.642000 0.150000 0.8666 0.8666 0.8666
v 0.031820 1.642000 0.118180 0.8313 0.8313 0.8313
v 0.053000 1.650000 0.150000 0.9176 0.9176 0.9176
v 0.037477 1.650000 0.112523 0.8274 0.8274 0.8274
v 0.000000 1.650000 0.097000 0.7020 0.7020 0.7020
v 0.026163 1.650000 0.123837 0.7960 0.7960 0.7960
v 0.000000 1.650000 0.113000 0.7020 0.7020 0.7020
v 0.000000 1.642000 0.105000 0.7020 0.7020 0.7020
v 0.000000 1.658000 0.105000 0.8157 0.8157 0.8157
v 0.031820 1.658000 0.118180 0.8274 0.8274 0.8274
v -0.026163 1.650000 0.123837 0.7921 0.7921 0.7921
v -0.031820 1.642000 0.118180 0.8274 0.8274 0.8274
v -0.031820 1.658000 0.118180 0.8313 0.8313 0.8313
v -0.045000 1.642000 0.150000 0.8627 0.8627 0.8627
v -0.037000 1.650000 0.150000 0.7921 0.7921 0.7921
v -0.037477 1.650000 0.112523 0.8313 0.8313 0.8313
v -0.053000 1.650000 0.150000 0.9176 0.9176 0.9176
v -0.037477 1.650000 0.187477 0.9725 0.9725 0.9725
v -0.026163 1.650000 0.176163 0.8039 0.8039 0.8039
v -0.031820 1.642000 0.181820 0.8902 0.8902 0.8902
v -0.045000 1.658000 0.150000 0.8666 0.8666 0.8666
v -0.000000 1.658000 0.195000 0.9215 0.9215 0.9215
v -0.031820 1.658000 0.181820 0.9019 0.9019 0.9019
v -0.000000 1.642000 0.195000 0.9019 0.9019 0.9019
v -0.000000 1.650000 0.187000 0.8196 0.8196 0.8196
v 0.031820 1.642000 0.181820 0.8902 0.8902 0.8902
v -0.000000 1.650000 0.203000 0.9921 0.9921 0.9921
v 0.037477 1.650000 0.187477 0.9725 0.9725 0.9725
v 0.031820 1.658000 0.181820 0.9019 0.9019 0.9019
v 0.026163 1.650000 0.176163 0.8039 0.8039 0.8039
v 0.037000 1.650000 0.150000 0.7960 0.7960 0.7960
v 0.045000 1.658000 0.150000 0.8627 0.8627 0.8627
v 0.020000 1.483715 0.185345 0.9411 0.9411 0.9411
v 0.010000 1.480114 0.168403 0.8706 0.8706 0.8706
v 0.013000 1.968107 0.059365 0.7020 0.7020 0.7020
v -0.010000 1.480114 0.168403 0.8745 0.8745 0.8745
v -0.013000 1.968107 0.059365 0.7020 0.7020 0.7020
v -0.020000 1.483715 0.185345 0.9411 0.9411 0.9411
v -0.026000 1.972789 0.081389 0.7020 0.7020 0.7020
v 0.010000 1.487316 0.202287 0.9843 0.9843 0.9843
v 0.026000 1.972789 0.081389 0.7020 0.7020 0.7020
v -0.013000 1.977470 0.103414 0.7020 0.7020 0.7020
v 0.013000 1.977470 0.103414 0.7020 0.7020 0.7020
v -0.010000 1.487316 0.202287 0.9882 0.9882 0.9882
v 0.040000 1.953226 0.085547 0.8745 0.8745 0.8745
v -0.020000 1.946023 0.051663 0.7843 0.7843 0.7843
v -0.022500 2.062501 0.022478 0.7490 0.7490 0.7490
v 0.022500 2.062501 0.022478 0.7529 0.7529 0.7529
v -0.020000 1.960428 0.119431 0.9529 0.9529 0.9529
v -0.022500 2.078706 0.098718 0.8902 0.8902 0.8902
v -0.045000 2.070603 0.060598 0.7843 0.7843 0.7843
v 0.045000 2.070603 0.060598 0.8039 0.8039 0.8039
v 0.022500 2.078706 0.098718 0.8980 0.8980 0.8980
v 0.020000 1.960428 0.119431 0.9490 0.9490 0.9490
v -0.040000 1.953226 0.085547 0.8745 0.8745 0.8745
v 0.020000 1.946023 0.051663 0.7843 0.7843 0.7843
vn -0.0000 -0.0000 1.0000
vn -0.0000 -0.0000 -1.0000
vn -1.0000 -0.0000 -0.0000
vn 1.0000 -0.0000 -0.0000
vn -0.0000 1.0000 -0.0000
vn -0.0000 -1.0000 -0.0000
vn 0.7071 -0.7071 -0.0000
vn 0.5000 -0.7071 -0.5000
vn -0.7071 -0.7071 -0.0000
vn -0.5000 -0.7071 0.5000
vn -0.7071 0.7071 -0.0000
vn -0.5000 0.7071 0.5000
vn 0.7071 0.7071 -0.0000
vn 0.5000 0.7071 -0.5000
vn -0.0000 -0.7071 -0.7071
vn -0.0000 -0.7071 0.7071
vn -0.0000 0.7071 0.7071
vn -0.0000 0.7071 -0.7071
vn -0.5000 -0.7071 -0.5000
vn 0.5000 -0.7071 0.5000
vn 0.5000 0.7071 0.5000
vn -0.5000 0.7071 -0.5000
vn 0.8660 -0.1141 -0.4869
vn -0.0000 -0.2181 -0.9759
vn -0.8660 -0.1141 -0.4869
vn -0.8660 0.0938 0.4912
vn -0.0000 0.1977 0.9803
vn 0.8660 0.0938 0.4912
vn -0.0000 0.9781 -0.2079
vn -0.0000 -0.9781 0.2079
vn 0.8655 -0.1392 -0.4813
vn -0.0000 -0.2430 -0.9700
vn -0.8655 -0.1392 -0.4813
vn -0.8655 0.0686 0.4963
vn -0.0000 0.1725 0.9850
vn 0.8655 0.0686 0.4963
vt 0.312988 0.844238
vt 0.322676 0.844238
vt 0.322676 0.873301
vt 0.312988 0.873301
vt 0.315410 0.844238
vt 0.315410 0.873301
vt 0.322676 0.846660
vt 0.312988 0.846660
vt 0.316621 0.844238
vt 0.316621 0.847871
vt 0.312988 0.847871
vt 0.329941 0.844238
vt 0.329941 0.847871
vt 0.316621 0.861191
vt 0.312988 0.861191
vt 0.320557 0.844238
vt 0.320557 0.848022
vt 0.312988 0.848022
vt 0.328125 0.844238
vt 0.328125 0.848022
vt 0.335693 0.844238
vt 0.335693 0.848022
vt 0.343262 0.844238
vt 0.343262 0.848022
vt 0.320557 0.851807
vt 0.312988 0.851807
vt 0.328125 0.851807
vt 0.335693 0.851807
vt 0.343262 0.851807
vt 0.320557 0.855591
vt 0.312988 0.855591
vt 0.328125 0.855591
vt 0.335693 0.855591
vt 0.343262 0.855591
vt 0.320557 0.859375
vt 0.312988 0.859375
vt 0.328125 0.859375
vt 0.335693 0.859375
vt 0.343262 0.859375
vt 0.320557 0.863159
vt 0.312988 0.863159
vt 0.328125 0.863159
vt 0.335693 0.863159
vt 0.343262 0.863159
vt 0.320557 0.866943
vt 0.312988 0.866943
vt 0.328125 0.866943
vt 0.335693 0.866943
vt 0.343262 0.866943
vt 0.320557 0.870728
vt 0.312988 0.870728
vt 0.328125 0.870728
vt 0.335693 0.870728
vt 0.343262 0.870728
vt 0.320557 0.874512
vt 0.312988 0.874512
vt 0.328125 0.874512
vt 0.335693 0.874512
vt 0.343262 0.874512
vt 0.125488 0.812988
vt 0.135742 0.812988
vt 0.135742 0.874512
vt 0.125488 0.874512
vt 0.145996 0.812988
vt 0.145996 0.874512
vt 0.156250 0.812988
vt 0.156250 0.874512
vt 0.166504 0.812988
vt 0.166504 0.874512
vt 0.176758 0.812988
vt 0.176758 0.874512
vt 0.187012 0.812988
vt 0.187012 0.874512
vt 0.187012 0.843750
vt 0.171631 0.874512
vt 0.140869 0.874512
vt 0.125488 0.843750
vt 0.140869 0.812988
vt 0.171631 0.812988
vt 0.391113 0.859863
vt 0.393555 0.859863
vt 0.393555 0.874512
vt 0.391113 0.874512
vt 0.395996 0.859863
vt 0.395996 0.874512
vt 0.398438 0.859863
vt 0.398438 0.874512
vt 0.400879 0.859863
vt 0.400879 0.874512
vt 0.403320 0.859863
vt 0.403320 0.874512
vt 0.405762 0.859863
vt 0.405762 0.874512
vt 0.405762 0.867188
vt 0.402100 0.874512
vt 0.394775 0.874512
vt 0.391113 0.867188
vt 0.394775 0.859863
vt 0.402100 0.859863
s 0
usemtl props
f 8/1/1 7/2/1 1/3/1 4/4/1
f 3/1/2 6/2/2 5/3/2 2/4/2
f 6/1/3 8/5/3 4/6/3 5/4/3
f 7/1/4 3/5/4 2/6/4 1/4/4
f 4/1/5 1/2/5 2/7/5 5/8/5
f 6/1/6 3/2/6 7/7/6 8/8/6
f 9/1/1 10/9/1 14/10/1 12/11/1
f 13/1/2 16/9/2 15/10/2 11/11/2
f 16/1/3 9/12/3 12/13/3 15/11/3
f 10/1/4 13/12/4 11/13/4 14/11/4
f 12/1/5 14/9/5 11/14/5 15/15/5
f 16/1/6 13/9/6 10/14/6 9/15/6
s 1
f 19/1/7 17/16/7 18/17/8 20/18/8
f 17/16/9 47/19/9 22/20/10 18/17/10
f 47/19/11 48/21/11 26/22/12 22/20/12
f 48/21/13 19/23/13 20/24/14 26/22/14
f 20/18/8 18/17/8 24/25/15 21/26/15
f 18/17/10 22/20/10 23/27/16 24/25/16
f 22/20/12 26/22/12 25/28/17 23/27/17
f 26/22/14 20/24/14 21/29/18 25/28/18
f 21/26/15 24/25/15 28/30/19 32/31/19
f 24/25/16 23/27/16 27/32/20 28/30/20
f 23/27/17 25/28/17 29/33/21 27/32/21
f 25/28/18 21/29/18 32/34/22 29/33/22
f 32/31/19 28/30/19 30/35/9 33/36/9
f 28/30/20 27/32/20 31/37/7 30/35/7
f 27/32/21 29/33/21 37/38/13 31/37/13
f 29/33/22 32/34/22 33/39/11 37/38/11
f 33/36/9 30/35/9 36/40/10 34/41/10
f 30/35/7 31/37/7 35/42/8 36/40/8
f 31/37/13 37/38/13 39/43/14 35/42/14
f 37/38/11 33/39/11 34/44/12 39/43/12
f 34/41/10 36/40/10 40/45/16 43/46/16
f 36/40/8 35/42/8 41/47/15 40/45/15
f 35/42/14 39/43/14 38/48/18 41/47/18
f 39/43/12 34/44/12 43/49/17 38/48/17
f 43/46/16 40/45/16 42/50/20 44/51/20
f 40/45/15 41/47/15 46/52/19 42/50/19
f 41/47/18 38/48/18 45/53/22 46/52/22
f 38/48/17 43/49/17 44/54/21 45/53/21
f 44/51/20 42/50/20 17/55/7 19/56/7
f 42/50/19 46/52/19 47/57/9 17/55/9
f 46/52/22 45/53/22 48/58/11 47/57/11
f 45/53/21 44/54/21 19/59/13 48/58/13
f 49/60/23 50/61/23 51/62/23 57/63/23
f 50/61/24 52/64/24 53/65/24 51/62/24
f 52/64/25 54/66/25 55/67/25 53/65/25
f 54/66/26 60/68/26 58/69/26 55/67/26
f 60/68/27 56/70/27 59/71/27 58/69/27
f 56/70/28 49/72/28 57/73/28 59/71/28
s 0
f 57/74/29 51/75/29 53/76/29 55/77/29 58/78/29 59/79/29
f 56/75/30 60/76/30 54/77/30 52/78/30 50/79/30 49/74/30
s 1
f 61/80/31 72/81/31 64/82/31 68/83/31
f 72/81/32 62/84/32 63/85/32 64/82/32
f 62/84/33 71/86/33 67/87/33 63/85/33
f 71/86/34 65/88/34 66/89/34 67/87/34
f 65/88/35 70/90/35 69/91/35 66/89/35
f 70/90/36 61/92/36 68/93/36 69/91/36
s 0
f 68/94/29 64/95/29 63/96/29 67/97/29 66/98/29 69/99/29
f 70/95/30 65/96/30 71/97/30 62/98/30 72/99/30 61/94/30
o torch_wall_flame0
v -0.100140 2.031477 0.090804 0.9607 0.9607 0.9607
v 0.020140 2.031477 0.047025 0.7020 0.7020 0.7020
v -0.015944 2.185078 0.060159 0.8588 0.8588 0.8588
v -0.033986 2.287477 0.066726 1.0000 1.0000 1.0000
v -0.076084 2.159477 0.082048 0.9725 0.9725 0.9725
v -0.076153 2.159477 0.081860 0.7333 0.7333 0.7333
v -0.034054 2.287477 0.066538 0.7255 0.7255 0.7255
v -0.016012 2.185078 0.059971 0.7216 0.7216 0.7216
v 0.020072 2.031477 0.046837 0.7020 0.7020 0.7020
v -0.100209 2.031477 0.090616 0.7333 0.7333 0.7333
v -0.008335 2.031477 0.106185 0.7020 0.7020 0.7020
v 0.008335 2.031477 0.011644 0.7020 0.7020 0.7020
v 0.003334 2.146677 0.040006 0.7020 0.7020 0.7020
v 0.000834 2.223478 0.054187 0.8745 0.8745 0.8745
v -0.005001 2.127478 0.087277 0.7020 0.7020 0.7020
v -0.005198 2.127478 0.087242 0.8274 0.8274 0.8274
v 0.000637 2.223478 0.054153 0.8157 0.8157 0.8157
v 0.003137 2.146677 0.039971 0.7725 0.7725 0.7725
v 0.008138 2.031477 0.011609 0.7764 0.7764 0.7764
v -0.008532 2.031477 0.106150 0.7020 0.7020 0.7020
vn 0.3420 -0.0000 0.9397
vn -0.3420 -0.0000 -0.9397
vn 0.9848 -0.0000 0.1736
vn -0.9848 -0.0000 -0.1736
vt 0.406738 0.859863
vt 0.413574 0.859863
vt 0.411523 0.868652
vt 0.410498 0.874512
vt 0.408105 0.867188
s 0
usemtl props
f 73/100/37 74/101/37 75/102/37 76/103/37 77/104/37
f 78/104/38 79/103/38 80/102/38 81/101/38 82/100/38
f 83/100/39 84/101/39 85/102/39 86/103/39 87/104/39
f 88/104/40 89/103/40 90/102/40 91/101/40 92/100/40
o torch_wall_flame1
v -0.011113 2.031477 0.131942 0.9215 0.9215 0.9215
v 0.011113 2.031477 0.005887 0.8431 0.8431 0.8431
v 0.004445 2.162038 0.043703 0.8078 0.8078 0.8078
v 0.001111 2.249078 0.062612 0.8941 0.8941 0.8941
v -0.006668 2.140278 0.106731 0.8980 0.8980 0.8980
v -0.006865 2.140278 0.106696 0.8706 0.8706 0.8706
v 0.000914 2.249078 0.062577 0.8353 0.8353 0.8353
v 0.004248 2.162038 0.043669 0.7020 0.7020 0.7020
v 0.010917 2.031477 0.005852 0.7882 0.7882 0.7882
v -0.011310 2.031477 0.131907 0.8941 0.8941 0.8941
v 0.036770 2.031477 0.089768 0.7451 0.7451 0.7451
v -0.036770 2.031477 0.028061 0.7216 0.7216 0.7216
v -0.014708 2.146677 0.046573 0.7020 0.7020 0.7020
v -0.003677 2.223478 0.055829 0.7294 0.7294 0.7294
v 0.022062 2.127478 0.077427 0.7216 0.7216 0.7216
v 0.021934 2.127478 0.077580 0.8470 0.8470 0.8470
v -0.003806 2.223478 0.055982 0.8941 0.8941 0.8941
v -0.014837 2.146677 0.046726 0.7764 0.7764 0.7764
v -0.036899 2.031477 0.028214 0.8549 0.8549 0.8549
v 0.036642 2.031477 0.089921 0.8353 0.8353 0.8353
vn 0.9848 -0.0000 0.1736
vn -0.9848 -0.0000 -0.1736
vn 0.6428 -0.0000 -0.7660
vn -0.6428 -0.0000 0.7660
vt 0.406738 0.859863
vt 0.413574 0.859863
vt 0.411523 0.868652
vt 0.410498 0.874512
vt 0.408105 0.867188
s 0
usemtl props
f 93/105/41 94/106/41 95/107/41 96/108/41 97/109/41
f 98/109/42 99/108/42 100/107/42 101/106/42 102/105/42
f 103/105/43 104/106/43 105/107/43 106/108/43 107/109/43
f 108/109/44 109/108/44 110/107/44 111/106/44 112/105/44
o torch_wall_flame2
v 0.089027 2.031477 0.110053 0.7921 0.7921 0.7921
v -0.009027 2.031477 0.027776 0.7216 0.7216 0.7216
v 0.020389 2.138998 0.052459 0.7568 0.7568 0.7568
v 0.035097 2.210678 0.064801 0.7608 0.7608 0.7608
v 0.069416 2.121078 0.093597 0.7764 0.7764 0.7764
v 0.069288 2.121078 0.093751 0.9333 0.9333 0.9333
v 0.034969 2.210678 0.064954 0.9137 0.9137 0.9137
v 0.020261 2.138998 0.052612 0.7568 0.7568 0.7568
v -0.009155 2.031477 0.027929 0.7176 0.7176 0.7176
v 0.088898 2.031477 0.110206 0.9529 0.9529 0.9529
v 0.045105 2.031477 0.042497 0.7020 0.7020 0.7020
v -0.045105 2.031477 0.075331 0.7176 0.7176 0.7176
v -0.018042 2.146677 0.065481 0.7020 0.7020 0.7020
v -0.004511 2.223478 0.060556 0.7176 0.7176 0.7176
v 0.027063 2.127478 0.049064 0.7020 0.7020 0.7020
v 0.027132 2.127478 0.049252 0.7882 0.7882 0.7882
v -0.004442 2.223478 0.060744 0.8353 0.8353 0.8353
v -0.017974 2.146677 0.065669 0.8431 0.8431 0.8431
v -0.045037 2.031477 0.075519 0.8862 0.8862 0.8862
v 0.045174 2.031477 0.042685 0.8588 0.8588 0.8588
vn 0.6428 -0.0000 -0.7660
vn -0.6428 -0.0000 0.7660
vn -0.3420 -0.0000 -0.9397
vn 0.3420 -0.0000 0.9397
vt 0.406738 0.859863
vt 0.413574 0.859863
vt 0.411523 0.868652
vt 0.410498 0.874512
vt 0.408105 0.867188
s 0
usemtl props
f 113/110/45 114/111/45 115/112/45 116/113/45 117/114/45
f 118/114/46 119/113/46 120/112/46 121/111/46 122/110/46
f 123/110/47 124/111/47 125/112/47 126/113/47 127/114/47
f 128/114/48 129/113/48 130/112/48 131/111/48 132/110/48
