# Blender 4.5.14 LTS
# www.blender.org
mtllib wall_stone.mtl
o wall_stone
v -1.000000 0.000000 0.100000 0.8470 0.8470 0.8470
v 0.000000 0.000000 0.100000 0.8470 0.8470 0.8470
v -1.000000 0.000000 -0.100000 0.8509 0.8509 0.8509
v -1.000000 1.000000 0.100000 1.0000 1.0000 1.0000
v -1.000000 1.000000 -0.100000 1.0000 1.0000 1.0000
v -1.000000 2.000000 0.100000 1.0000 1.0000 1.0000
v -1.000000 3.000000 0.100000 1.0000 1.0000 1.0000
v -1.000000 3.000000 -0.100000 1.0000 1.0000 1.0000
v -1.000000 2.000000 -0.100000 1.0000 1.0000 1.0000
v 1.000000 0.000000 0.100000 0.8470 0.8470 0.8470
v 0.000000 1.000000 -0.100000 1.0000 1.0000 1.0000
v 1.000000 0.000000 -0.100000 0.8509 0.8509 0.8509
v 0.000000 0.000000 -0.100000 0.8509 0.8509 0.8509
v 0.000000 1.000000 0.100000 1.0000 1.0000 1.0000
v 1.000000 1.000000 0.100000 1.0000 1.0000 1.0000
v 1.000000 1.000000 -0.100000 1.0000 1.0000 1.0000
v 0.000000 2.000000 0.100000 1.0000 1.0000 1.0000
v 1.000000 2.000000 0.100000 1.0000 1.0000 1.0000
v 0.000000 3.000000 -0.100000 1.0000 1.0000 1.0000
v 1.000000 2.000000 -0.100000 1.0000 1.0000 1.0000
v 0.000000 2.000000 -0.100000 1.0000 1.0000 1.0000
v 0.000000 3.000000 0.100000 1.0000 1.0000 1.0000
v 1.000000 3.000000 0.100000 1.0000 1.0000 1.0000
v 1.000000 3.000000 -0.100000 1.0000 1.0000 1.0000
vn -0.0000 -0.0000 1.0000
vn -0.0000 -0.0000 -1.0000
vn -0.0000 1.0000 -0.0000
vt 0.000488 0.875488
vt 0.124512 0.875488
vt 0.124512 0.999512
vt 0.000488 0.999512
vt 0.375488 0.875488
vt 0.499512 0.875488
vt 0.499512 0.999512
vt 0.375488 0.999512
vt 0.499512 0.900293
vt 0.375488 0.900293
s 0
usemtl props
f 1/1/1 2/2/1 14/3/1 4/4/1
f 5/3/2 11/4/2 13/1/2 3/2/2
f 4/5/1 14/6/1 17/7/1 6/8/1
f 9/7/2 21/8/2 11/5/2 5/6/2
f 6/5/1 17/6/1 22/7/1 7/8/1
f 8/7/2 19/8/2 21/5/2 9/6/2
f 2/1/1 10/2/1 15/3/1 14/4/1
f 11/3/2 16/4/2 12/1/2 13/2/2
f 14/5/1 15/6/1 18/7/1 17/8/1
f 21/7/2 20/8/2 16/5/2 11/6/2
f 17/5/1 18/6/1 23/7/1 22/8/1
f 19/7/2 24/8/2 20/5/2 21/6/2
f 7/5/3 22/6/3 19/9/3 8/10/3
f 22/5/3 23/6/3 24/9/3 19/10/3
