# Blender 4.5.14 LTS
# www.blender.org
mtllib wall_bars_door.mtl
o wall_bars_door
v -0.985000 3.000000 0.000000 0.9686 0.9686 0.9686
v -1.007500 3.000000 -0.012990 1.0000 1.0000 1.0000
v -1.007500 3.000000 0.012990 1.0000 1.0000 1.0000
v -0.992500 3.000000 0.012990 0.9843 0.9843 0.9843
v -0.992500 3.000000 -0.012990 0.9843 0.9843 0.9843
v -1.015000 3.000000 -0.000000 1.0000 1.0000 1.0000
v -0.992500 0.000000 0.012990 0.7921 0.7921 0.7921
v -1.007500 0.000000 0.012990 0.8000 0.8000 0.8000
v -1.015000 0.000000 -0.000000 0.8000 0.8000 0.8000
v -1.007500 0.000000 -0.012990 0.8039 0.8039 0.8039
v -0.992500 0.000000 -0.012990 0.7960 0.7960 0.7960
v -0.985000 0.000000 0.000000 0.7882 0.7882 0.7882
v -0.828333 0.000000 0.000000 0.7882 0.7882 0.7882
v -0.835833 0.000000 -0.012990 0.7960 0.7960 0.7960
v -0.850833 0.000000 -0.012990 0.7921 0.7921 0.7921
v -0.850833 3.000000 -0.012990 0.9843 0.9843 0.9843
v -0.835833 3.000000 -0.012990 0.9843 0.9843 0.9843
v -0.858333 0.000000 -0.000000 0.7804 0.7804 0.7804
v -0.858333 3.000000 -0.000000 0.9686 0.9686 0.9686
v -0.850833 3.000000 0.012990 0.9843 0.9843 0.9843
v -0.835833 0.000000 0.012990 0.7921 0.7921 0.7921
v -0.828333 3.000000 0.000000 0.9686 0.9686 0.9686
v -0.835833 3.000000 0.012990 0.9843 0.9843 0.9843
v -0.850833 0.000000 0.012990 0.7921 0.7921 0.7921
v -0.701667 0.000000 -0.000000 0.7804 0.7804 0.7804
v -0.694167 3.000000 0.012990 0.9843 0.9843 0.9843
v -0.679167 0.000000 0.012990 0.7921 0.7921 0.7921
v -0.679167 3.000000 0.012990 0.9843 0.9843 0.9843
v -0.671667 0.000000 0.000000 0.7882 0.7882 0.7882
v -0.671667 3.000000 0.000000 0.9686 0.9686 0.9686
v -0.679167 3.000000 -0.012990 0.9843 0.9843 0.9843
v -0.694167 3.000000 -0.012990 0.9843 0.9843 0.9843
v -0.701667 3.000000 -0.000000 0.9686 0.9686 0.9686
v -0.694167 0.000000 0.012990 0.7921 0.7921 0.7921
v -0.694167 0.000000 -0.012990 0.7921 0.7921 0.7921
v -0.679167 0.000000 -0.012990 0.7960 0.7960 0.7960
v -0.515000 0.000000 0.000000 0.8039 0.8039 0.8039
v -0.522500 0.000000 -0.012990 0.8039 0.8039 0.8039
v -0.515000 3.000000 0.000000 0.9647 0.9647 0.9647
v -0.537500 0.000000 -0.012990 0.7921 0.7921 0.7921
v -0.537500 3.000000 -0.012990 0.9843 0.9843 0.9843
v -0.537500 3.000000 0.012990 0.9843 0.9843 0.9843
v -0.522500 3.000000 -0.012990 0.9843 0.9843 0.9843
v -0.545000 3.000000 -0.000000 0.9686 0.9686 0.9686
v -0.522500 3.000000 0.012990 0.9843 0.9843 0.9843
v -0.522500 0.000000 0.012990 0.8039 0.8039 0.8039
v -0.537500 0.000000 0.012990 0.7921 0.7921 0.7921
v -0.545000 0.000000 -0.000000 0.7804 0.7804 0.7804
v -1.020000 0.100000 0.025000 0.8196 0.8196 0.8196
v -0.510000 0.140000 0.025000 0.9058 0.9058 0.9058
v -1.020000 0.100000 -0.025000 0.8274 0.8274 0.8274
v -0.510000 0.100000 0.025000 0.8196 0.8196 0.8196
v -0.510000 0.100000 -0.025000 0.8313 0.8313 0.8313
v -1.020000 0.140000 0.025000 0.9019 0.9019 0.9019
v -0.510000 0.140000 -0.025000 0.9058 0.9058 0.9058
v -1.020000 0.140000 -0.025000 0.9019 0.9019 0.9019
v -0.510000 1.480000 0.025000 0.9764 0.9764 0.9764
v -1.020000 1.520000 -0.025000 0.9725 0.9725 0.9725
v -0.510000 1.520000 -0.025000 0.9764 0.9764 0.9764
v -1.020000 1.480000 -0.025000 0.9764 0.9764 0.9764
v -1.020000 1.480000 0.025000 0.9764 0.9764 0.9764
v -0.510000 1.520000 0.025000 0.9764 0.9764 0.9764
v -1.020000 1.520000 0.025000 0.9764 0.9764 0.9764
v -0.510000 1.480000 -0.025000 0.9725 0.9725 0.9725
v -0.510000 2.860000 0.025000 0.8706 0.8706 0.8706
v -1.020000 2.900000 0.025000 0.9764 0.9764 0.9764
v -0.510000 2.900000 -0.025000 0.8784 0.8784 0.8784
v -1.020000 2.860000 0.025000 0.9764 0.9764 0.9764
v -0.510000 2.900000 0.025000 0.8745 0.8745 0.8745
v -1.020000 2.900000 -0.025000 0.9764 0.9764 0.9764
v -1.020000 2.860000 -0.025000 0.9764 0.9764 0.9764
v -0.510000 2.860000 -0.025000 0.8666 0.8666 0.8666
vn 0.8660 -0.0000 -0.5000
vn -0.0000 -0.0000 -1.0000
vn -0.8660 -0.0000 -0.5000
vn -0.8660 -0.0000 0.5000
vn -0.0000 -0.0000 1.0000
vn 0.8660 -0.0000 0.5000
vn -0.0000 1.0000 -0.0000
vn -0.0000 -1.0000 -0.0000
vn -1.0000 -0.0000 -0.0000
vn 1.0000 -0.0000 -0.0000
vt 0.312988 0.844238
vt 0.318034 0.844238
vt 0.318034 0.874512
vt 0.312988 0.874512
vt 0.323079 0.844238
vt 0.323079 0.874512
vt 0.328125 0.844238
vt 0.328125 0.874512
vt 0.333171 0.844238
vt 0.333171 0.874512
vt 0.338216 0.844238
vt 0.338216 0.874512
vt 0.343262 0.844238
vt 0.343262 0.874512
vt 0.343262 0.859375
vt 0.335693 0.874512
vt 0.320557 0.874512
vt 0.312988 0.859375
vt 0.320557 0.844238
vt 0.335693 0.844238
vt 0.062988 0.812988
vt 0.124512 0.812988
vt 0.124512 0.817814
vt 0.062988 0.817814
vt 0.069141 0.812988
vt 0.069141 0.817910
vt 0.062988 0.817910
vt 0.124512 0.819020
vt 0.062988 0.819020
s 1
usemtl props
f 12/1/1 11/2/1 5/3/1 1/4/1
f 11/2/2 10/5/2 2/6/2 5/3/2
f 10/5/3 9/7/3 6/8/3 2/6/3
f 9/7/4 8/9/4 3/10/4 6/8/4
f 8/9/5 7/11/5 4/12/5 3/10/5
f 7/11/6 12/13/6 1/14/6 4/12/6
s 0
f 1/15/7 5/16/7 2/17/7 6/18/7 3/19/7 4/20/7
f 7/16/8 8/17/8 9/18/8 10/19/8 11/20/8 12/15/8
s 1
f 13/1/1 14/2/1 17/3/1 22/4/1
f 14/2/2 15/5/2 16/6/2 17/3/2
f 15/5/3 18/7/3 19/8/3 16/6/3
f 18/7/4 24/9/4 20/10/4 19/8/4
f 24/9/5 21/11/5 23/12/5 20/10/5
f 21/11/6 13/13/6 22/14/6 23/12/6
s 0
f 22/15/7 17/16/7 16/17/7 19/18/7 20/19/7 23/20/7
f 21/16/8 24/17/8 18/18/8 15/19/8 14/20/8 13/15/8
s 1
f 29/1/1 36/2/1 31/3/1 30/4/1
f 36/2/2 35/5/2 32/6/2 31/3/2
f 35/5/3 25/7/3 33/8/3 32/6/3
f 25/7/4 34/9/4 26/10/4 33/8/4
f 34/9/5 27/11/5 28/12/5 26/10/5
f 27/11/6 29/13/6 30/14/6 28/12/6
s 0
f 30/15/7 31/16/7 32/17/7 33/18/7 26/19/7 28/20/7
f 27/16/8 34/17/8 25/18/8 35/19/8 36/20/8 29/15/8
s 1
f 37/1/1 38/2/1 43/3/1 39/4/1
f 38/2/2 40/5/2 41/6/2 43/3/2
f 40/5/3 48/7/3 44/8/3 41/6/3
f 48/7/4 47/9/4 42/10/4 44/8/4
f 47/9/5 46/11/5 45/12/5 42/10/5
f 46/11/6 37/13/6 39/14/6 45/12/6
s 0
f 39/15/7 43/16/7 41/17/7 44/18/7 42/19/7 45/20/7
f 46/16/8 47/17/8 48/18/8 40/19/8 38/20/8 37/15/8
f 49/21/5 52/22/5 50/23/5 54/24/5
f 53/21/2 51/22/2 56/23/2 55/24/2
f 51/21/9 49/25/9 54/26/9 56/27/9
f 52/21/10 53/25/10 55/26/10 50/27/10
f 54/21/7 50/22/7 55/28/7 56/29/7
f 51/21/8 53/22/8 52/28/8 49/29/8
f 61/21/5 57/22/5 62/23/5 63/24/5
f 64/21/2 60/22/2 58/23/2 59/24/2
f 60/21/9 61/25/9 63/26/9 58/27/9
f 57/21/10 64/25/10 59/26/10 62/27/10
f 63/21/7 62/22/7 59/28/7 58/29/7
f 60/21/8 64/22/8 57/28/8 61/29/8
f 68/21/5 65/22/5 69/23/5 66/24/5
f 72/21/2 71/22/2 70/23/2 67/24/2
f 71/21/9 68/25/9 66/26/9 70/27/9
f 65/21/10 72/25/10 67/26/10 69/27/10
f 66/21/7 69/22/7 67/28/7 70/29/7
f 71/21/8 72/22/8 65/28/8 68/29/8
o wall_bars_door_1
v 0.545000 3.000000 0.000000 0.9686 0.9686 0.9686
v 0.522500 3.000000 -0.012990 0.9843 0.9843 0.9843
v 0.522500 3.000000 0.012990 0.9843 0.9843 0.9843
v 0.537500 3.000000 0.012990 0.9843 0.9843 0.9843
v 0.537500 3.000000 -0.012990 0.9843 0.9843 0.9843
v 0.515000 3.000000 -0.000000 0.9647 0.9647 0.9647
v 0.537500 0.000000 0.012990 0.7921 0.7921 0.7921
v 0.522500 0.000000 0.012990 0.8000 0.8000 0.8000
v 0.515000 0.000000 -0.000000 0.8000 0.8000 0.8000
v 0.522500 0.000000 -0.012990 0.8039 0.8039 0.8039
v 0.537500 0.000000 -0.012990 0.7960 0.7960 0.7960
v 0.545000 0.000000 0.000000 0.7882 0.7882 0.7882
v 0.701667 0.000000 0.000000 0.7882 0.7882 0.7882
v 0.694167 0.000000 -0.012990 0.7960 0.7960 0.7960
v 0.679167 0.000000 -0.012990 0.7921 0.7921 0.7921
v 0.679167 3.000000 -0.012990 0.9843 0.9843 0.9843
v 0.694167 3.000000 -0.012990 0.9843 0.9843 0.9843
v 0.671667 0.000000 -0.000000 0.7804 0.7804 0.7804
v 0.671667 3.000000 -0.000000 0.9686 0.9686 0.9686
v 0.679167 3.000000 0.012990 0.9843 0.9843 0.9843
v 0.694167 0.000000 0.012990 0.7921 0.7921 0.7921
v 0.701667 3.000000 0.000000 0.9686 0.9686 0.9686
v 0.694167 3.000000 0.012990 0.9843 0.9843 0.9843
v 0.679167 0.000000 0.012990 0.7921 0.7921 0.7921
v 0.828333 0.000000 -0.000000 0.7804 0.7804 0.7804
v 0.835833 3.000000 0.012990 0.9843 0.9843 0.9843
v 0.850833 0.000000 0.012990 0.7921 0.7921 0.7921
v 0.850833 3.000000 0.012990 0.9843 0.9843 0.9843
v 0.858333 0.000000 0.000000 0.7882 0.7882 0.7882
v 0.858333 3.000000 0.000000 0.9686 0.9686 0.9686
v 0.850833 3.000000 -0.012990 0.9843 0.9843 0.9843
v 0.835833 3.000000 -0.012990 0.9843 0.9843 0.9843
v 0.828333 3.000000 -0.000000 0.9686 0.9686 0.9686
v 0.835833 0.000000 0.012990 0.7921 0.7921 0.7921
v 0.835833 0.000000 -0.012990 0.7921 0.7921 0.7921
v 0.850833 0.000000 -0.012990 0.7960 0.7960 0.7960
v 1.015000 0.000000 0.000000 0.8039 0.8039 0.8039
v 1.007500 0.000000 -0.012990 0.8039 0.8039 0.8039
v 1.015000 3.000000 0.000000 0.9960 0.9960 0.9960
v 0.992500 0.000000 -0.012990 0.7921 0.7921 0.7921
v 0.992500 3.000000 -0.012990 0.9843 0.9843 0.9843
v 0.992500 3.000000 0.012990 0.9843 0.9843 0.9843
v 1.007500 3.000000 -0.012990 1.0000 1.0000 1.0000
v 0.985000 3.000000 -0.000000 0.9686 0.9686 0.9686
v 1.007500 3.000000 0.012990 0.9960 0.9960 0.9960
v 1.007500 0.000000 0.012990 0.8039 0.8039 0.8039
v 0.992500 0.000000 0.012990 0.7921 0.7921 0.7921
v 0.985000 0.000000 -0.000000 0.7804 0.7804 0.7804
v 0.510000 0.100000 0.025000 0.8196 0.8196 0.8196
v 1.020000 0.140000 0.025000 0.9058 0.9058 0.9058
v 0.510000 0.100000 -0.025000 0.8274 0.8274 0.8274
v 1.020000 0.100000 0.025000 0.8196 0.8196 0.8196
v 1.020000 0.100000 -0.025000 0.8313 0.8313 0.8313
v 0.510000 0.140000 0.025000 0.9019 0.9019 0.9019
v 1.020000 0.140000 -0.025000 0.9058 0.9058 0.9058
v 0.510000 0.140000 -0.025000 0.9019 0.9019 0.9019
v 1.020000 1.480000 0.025000 0.9764 0.9764 0.9764
v 0.510000 1.520000 -0.025000 0.9725 0.9725 0.9725
v 1.020000 1.520000 -0.025000 0.9764 0.9764 0.9764
v 0.510000 1.480000 -0.025000 0.9764 0.9764 0.9764
v 0.510000 1.480000 0.025000 0.9764 0.9764 0.9764
v 1.020000 1.520000 0.025000 0.9764 0.9764 0.9764
v 0.510000 1.520000 0.025000 0.9764 0.9764 0.9764
v 1.020000 1.480000 -0.025000 0.9725 0.9725 0.9725
v 1.020000 2.860000 0.025000 0.9764 0.9764 0.9764
v 0.510000 2.900000 0.025000 0.8784 0.8784 0.8784
v 1.020000 2.900000 -0.025000 0.9764 0.9764 0.9764
v 0.510000 2.860000 0.025000 0.8666 0.8666 0.8666
v 1.020000 2.900000 0.025000 0.9764 0.9764 0.9764
v 0.510000 2.900000 -0.025000 0.8745 0.8745 0.8745
v 0.510000 2.860000 -0.025000 0.8666 0.8666 0.8666
v 1.020000 2.860000 -0.025000 0.9725 0.9725 0.9725
vn 0.8660 -0.0000 -0.5000
vn -0.0000 -0.0000 -1.0000
vn -0.8660 -0.0000 -0.5000
vn -0.8660 -0.0000 0.5000
vn -0.0000 -0.0000 1.0000
vn 0.8660 -0.0000 0.5000
vn -0.0000 1.0000 -0.0000
vn -0.0000 -1.0000 -0.0000
vn -1.0000 -0.0000 -0.0000
vn 1.0000 -0.0000 -0.0000
vt 0.312988 0.844238
vt 0.318034 0.844238
vt 0.318034 0.874512
vt 0.312988 0.874512
vt 0.323079 0.844238
vt 0.323079 0.874512
vt 0.328125 0.844238
vt 0.328125 0.874512
vt 0.333171 0.844238
vt 0.333171 0.874512
vt 0.338216 0.844238
vt 0.338216 0.874512
vt 0.343262 0.844238
vt 0.343262 0.874512
vt 0.343262 0.859375
vt 0.335693 0.874512
vt 0.320557 0.874512
vt 0.312988 0.859375
vt 0.320557 0.844238
vt 0.335693 0.844238
vt 0.062988 0.812988
vt 0.124512 0.812988
vt 0.124512 0.817814
vt 0.062988 0.817814
vt 0.069141 0.812988
vt 0.069141 0.817910
vt 0.062988 0.817910
vt 0.124512 0.819020
vt 0.062988 0.819020
s 1
usemtl props
f 84/30/11 83/31/11 77/32/11 73/33/11
f 83/31/12 82/34/12 74/35/12 77/32/12
f 82/34/13 81/36/13 78/37/13 74/35/13
f 81/36/14 80/38/14 75/39/14 78/37/14
f 80/38/15 79/40/15 76/41/15 75/39/15
f 79/40/16 84/42/16 73/43/16 76/41/16
s 0
f 73/44/17 77/45/17 74/46/17 78/47/17 75/48/17 76/49/17
f 79/45/18 80/46/18 81/47/18 82/48/18 83/49/18 84/44/18
s 1
f 85/30/11 86/31/11 89/32/11 94/33/11
f 86/31/12 87/34/12 88/35/12 89/32/12
f 87/34/13 90/36/13 91/37/13 88/35/13
f 90/36/14 96/38/14 92/39/14 91/37/14
f 96/38/15 93/40/15 95/41/15 92/39/15
f 93/40/16 85/42/16 94/43/16 95/41/16
s 0
f 94/44/17 89/45/17 88/46/17 91/47/17 92/48/17 95/49/17
f 93/45/18 96/46/18 90/47/18 87/48/18 86/49/18 85/44/18
s 1
f 101/30/11 108/31/11 103/32/11 102/33/11
f 108/31/12 107/34/12 104/35/12 103/32/12
f 107/34/13 97/36/13 105/37/13 104/35/13
f 97/36/14 106/38/14 98/39/14 105/37/14
f 106/38/15 99/40/15 100/41/15 98/39/15
f 99/40/16 101/42/16 102/43/16 100/41/16
s 0
f 102/44/17 103/45/17 104/46/17 105/47/17 98/48/17 100/49/17
f 99/45/18 106/46/18 97/47/18 107/48/18 108/49/18 101/44/18
s 1
f 109/30/11 110/31/11 115/32/11 111/33/11
f 110/31/12 112/34/12 113/35/12 115/32/12
f 112/34/13 120/36/13 116/37/13 113/35/13
f 120/36/14 119/38/14 114/39/14 116/37/14
f 119/38/15 118/40/15 117/41/15 114/39/15
f 118/40/16 109/42/16 111/43/16 117/41/16
s 0
f 111/44/17 115/45/17 113/46/17 116/47/17 114/48/17 117/49/17
f 118/45/18 119/46/18 120/47/18 112/48/18 110/49/18 109/44/18
f 121/50/15 124/51/15 122/52/15 126/53/15
f 125/50/12 123/51/12 128/52/12 127/53/12
f 123/50/19 121/54/19 126/55/19 128/56/19
f 124/50/20 125/54/20 127/55/20 122/56/20
f 126/50/17 122/51/17 127/57/17 128/58/17
f 123/50/18 125/51/18 124/57/18 121/58/18
f 133/50/15 129/51/15 134/52/15 135/53/15
f 136/50/12 132/51/12 130/52/12 131/53/12
f 132/50/19 133/54/19 135/55/19 130/56/19
f 129/50/20 136/54/20 131/55/20 134/56/20
f 135/50/17 134/51/17 131/57/17 130/58/17
f 132/50/18 136/51/18 129/57/18 133/58/18
f 140/50/15 137/51/15 141/52/15 138/53/15
f 144/50/12 143/51/12 142/52/12 139/53/12
f 143/50/19 140/54/19 138/55/19 142/56/19
f 137/50/20 144/54/20 139/55/20 141/56/20
f 138/50/17 141/51/17 139/57/17 142/58/17
f 143/50/18 144/51/18 137/57/18 140/58/18
o wall_bars_door_2
v -0.522500 3.000000 -0.012990 0.9882 0.9882 0.9882
v -0.515000 3.000000 0.000000 0.9725 0.9725 0.9725
v -0.537500 3.000000 -0.012990 0.9882 0.9882 0.9882
v -0.545000 2.240000 -0.000000 0.8823 0.8823 0.8823
v -0.537500 2.240000 0.012990 0.8902 0.8902 0.8902
v -0.545000 3.000000 -0.000000 0.9725 0.9725 0.9725
v -0.522500 3.000000 0.012990 0.9843 0.9843 0.9843
v -0.515000 2.240000 0.000000 0.8706 0.8706 0.8706
v -0.537500 3.000000 0.012990 0.9843 0.9843 0.9843
v -0.522500 2.240000 0.012990 0.8862 0.8862 0.8862
v -0.537500 2.240000 -0.012990 0.8862 0.8862 0.8862
v -0.522500 2.240000 -0.012990 0.8862 0.8862 0.8862
v -0.382500 2.240000 0.000000 0.9647 0.9647 0.9647
v -0.390000 3.000000 -0.012990 0.9882 0.9882 0.9882
v -0.390000 2.240000 -0.012990 0.9804 0.9804 0.9804
v -0.405000 3.000000 -0.012990 0.9843 0.9843 0.9843
v -0.412500 3.000000 -0.000000 0.9725 0.9725 0.9725
v -0.390000 3.000000 0.012990 0.9843 0.9843 0.9843
v -0.382500 3.000000 0.000000 0.9725 0.9725 0.9725
v -0.405000 3.000000 0.012990 0.9843 0.9843 0.9843
v -0.390000 2.240000 0.012990 0.9804 0.9804 0.9804
v -0.405000 2.240000 0.012990 0.9764 0.9764 0.9764
v -0.412500 2.240000 -0.000000 0.9607 0.9607 0.9607
v -0.405000 2.240000 -0.012990 0.9764 0.9764 0.9764
v -0.250000 3.000000 0.000000 0.9725 0.9725 0.9725
v -0.257500 2.240000 -0.012990 0.9843 0.9843 0.9843
v -0.272500 2.240000 -0.012990 0.9843 0.9843 0.9843
v -0.272500 3.000000 -0.012990 0.9843 0.9843 0.9843
v -0.257500 3.000000 -0.012990 0.9882 0.9882 0.9882
v -0.280000 2.240000 -0.000000 0.9686 0.9686 0.9686
v -0.280000 3.000000 -0.000000 0.9725 0.9725 0.9725
v -0.272500 3.000000 0.012990 0.9843 0.9843 0.9843
v -0.250000 2.240000 0.000000 0.9725 0.9725 0.9725
v -0.257500 3.000000 0.012990 0.9843 0.9843 0.9843
v -0.257500 2.240000 0.012990 0.9843 0.9843 0.9843
v -0.272500 2.240000 0.012990 0.9843 0.9843 0.9843
v -0.125000 2.240000 -0.012990 0.9843 0.9843 0.9843
v -0.140000 2.240000 -0.012990 0.9843 0.9843 0.9843
v -0.140000 2.240000 0.012990 0.9882 0.9882 0.9882
v -0.147500 3.000000 -0.000000 0.9725 0.9725 0.9725
v -0.140000 3.000000 0.012990 0.9843 0.9843 0.9843
v -0.117500 2.240000 0.000000 0.9725 0.9725 0.9725
v -0.125000 3.000000 0.012990 0.9843 0.9843 0.9843
v -0.117500 3.000000 0.000000 0.9725 0.9725 0.9725
v -0.125000 3.000000 -0.012990 0.9882 0.9882 0.9882
v -0.140000 3.000000 -0.012990 0.9843 0.9843 0.9843
v -0.125000 2.240000 0.012990 0.9843 0.9843 0.9843
v -0.147500 2.240000 -0.000000 0.9725 0.9725 0.9725
v -0.007500 2.240000 -0.012990 0.9882 0.9882 0.9882
v -0.015000 3.000000 -0.000000 0.9725 0.9725 0.9725
v -0.007500 3.000000 -0.012990 0.9843 0.9843 0.9843
v -0.015000 2.240000 -0.000000 0.9764 0.9764 0.9764
v -0.007500 2.240000 0.012990 0.9882 0.9882 0.9882
v -0.007500 3.000000 0.012990 0.9843 0.9843 0.9843
v 0.015000 3.000000 0.000000 0.9725 0.9725 0.9725
v 0.007500 3.000000 -0.012990 0.9882 0.9882 0.9882
v 0.007500 3.000000 0.012990 0.9843 0.9843 0.9843
v 0.007500 2.240000 0.012990 0.9843 0.9843 0.9843
v 0.007500 2.240000 -0.012990 0.9843 0.9843 0.9843
v 0.015000 2.240000 0.000000 0.9725 0.9725 0.9725
v 0.147500 2.240000 0.000000 0.9686 0.9686 0.9686
v 0.140000 2.240000 -0.012990 0.9843 0.9843 0.9843
v 0.140000 3.000000 -0.012990 0.9882 0.9882 0.9882
v 0.147500 3.000000 0.000000 0.9725 0.9725 0.9725
v 0.117500 3.000000 -0.000000 0.9725 0.9725 0.9725
v 0.125000 3.000000 0.012990 0.9843 0.9843 0.9843
v 0.140000 3.000000 0.012990 0.9843 0.9843 0.9843
v 0.125000 3.000000 -0.012990 0.9843 0.9843 0.9843
v 0.140000 2.240000 0.012990 0.9843 0.9843 0.9843
v 0.125000 2.240000 0.012990 0.9882 0.9882 0.9882
v 0.117500 2.240000 -0.000000 0.9725 0.9725 0.9725
v 0.125000 2.240000 -0.012990 0.9843 0.9843 0.9843
v 0.280000 2.240000 0.000000 0.9686 0.9686 0.9686
v 0.272500 2.240000 -0.012990 0.9804 0.9804 0.9804
v 0.257500 2.240000 -0.012990 0.9843 0.9843 0.9843
v 0.257500 3.000000 0.012990 0.9843 0.9843 0.9843
v 0.250000 3.000000 -0.000000 0.9725 0.9725 0.9725
v 0.257500 2.240000 0.012990 0.9882 0.9882 0.9882
v 0.272500 3.000000 0.012990 0.9843 0.9843 0.9843
v 0.272500 2.240000 0.012990 0.9843 0.9843 0.9843
v 0.280000 3.000000 0.000000 0.9725 0.9725 0.9725
v 0.272500 3.000000 -0.012990 0.9882 0.9882 0.9882
v 0.257500 3.000000 -0.012990 0.9843 0.9843 0.9843
v 0.250000 2.240000 -0.000000 0.9725 0.9725 0.9725
v 0.405000 2.240000 -0.012990 0.9764 0.9764 0.9764
v 0.382500 2.240000 -0.000000 0.9686 0.9686 0.9686
v 0.390000 3.000000 0.012990 0.9843 0.9843 0.9843
v 0.382500 3.000000 -0.000000 0.9725 0.9725 0.9725
v 0.390000 2.240000 0.012990 0.9882 0.9882 0.9882
v 0.405000 2.240000 0.012990 0.9804 0.9804 0.9804
v 0.412500 3.000000 0.000000 0.9725 0.9725 0.9725
v 0.405000 3.000000 -0.012990 0.9882 0.9882 0.9882
v 0.390000 3.000000 -0.012990 0.9843 0.9843 0.9843
v 0.405000 3.000000 0.012990 0.9843 0.9843 0.9843
v 0.390000 2.240000 -0.012990 0.9843 0.9843 0.9843
v 0.412500 2.240000 0.000000 0.9607 0.9607 0.9607
v 0.537500 2.240000 -0.012990 0.8902 0.8902 0.8902
v 0.522500 2.240000 -0.012990 0.8902 0.8902 0.8902
v 0.537500 3.000000 -0.012990 0.9882 0.9882 0.9882
v 0.515000 2.240000 -0.000000 0.8745 0.8745 0.8745
v 0.522500 3.000000 0.012990 0.9843 0.9843 0.9843
v 0.515000 3.000000 -0.000000 0.9725 0.9725 0.9725
v 0.522500 2.240000 0.012990 0.8902 0.8902 0.8902
v 0.537500 2.240000 0.012990 0.8902 0.8902 0.8902
v 0.545000 2.240000 0.000000 0.8823 0.8823 0.8823
v 0.545000 3.000000 0.000000 0.9764 0.9764 0.9764
v 0.537500 3.000000 0.012990 0.9843 0.9843 0.9843
v 0.522500 3.000000 -0.012990 0.9843 0.9843 0.9843
v 0.550000 2.340000 0.025000 0.9568 0.9568 0.9568
v -0.550000 2.340000 -0.025000 0.9568 0.9568 0.9568
v -0.550000 2.340000 0.025000 0.9568 0.9568 0.9568
v 0.550000 2.380000 -0.025000 0.9490 0.9490 0.9490
v -0.550000 2.380000 0.025000 0.9490 0.9490 0.9490
v 0.550000 2.380000 0.025000 0.9529 0.9529 0.9529
v -0.550000 2.380000 -0.025000 0.9490 0.9490 0.9490
v 0.550000 2.340000 -0.025000 0.9529 0.9529 0.9529
v -0.550000 2.600000 0.025000 0.9529 0.9529 0.9529
v 0.550000 2.600000 0.025000 0.9490 0.9490 0.9490
v 0.550000 2.640000 0.025000 0.9490 0.9490 0.9490
v -0.550000 2.600000 -0.025000 0.9529 0.9529 0.9529
v -0.550000 2.640000 0.025000 0.9490 0.9490 0.9490
v 0.550000 2.640000 -0.025000 0.9451 0.9451 0.9451
v -0.550000 2.640000 -0.025000 0.9451 0.9451 0.9451
v 0.550000 2.600000 -0.025000 0.9490 0.9490 0.9490
v 0.550000 2.860000 0.025000 0.8666 0.8666 0.8666
v 0.550000 2.900000 0.025000 0.8784 0.8784 0.8784
v -0.550000 2.900000 0.025000 0.8745 0.8745 0.8745
v -0.550000 2.860000 -0.025000 0.8706 0.8706 0.8706
v -0.550000 2.900000 -0.025000 0.8745 0.8745 0.8745
v -0.550000 2.860000 0.025000 0.8706 0.8706 0.8706
v 0.550000 2.900000 -0.025000 0.8745 0.8745 0.8745
v 0.550000 2.860000 -0.025000 0.8666 0.8666 0.8666
vn 0.8660 -0.0000 -0.5000
vn -0.0000 -0.0000 -1.0000
vn -0.8660 -0.0000 -0.5000
vn -0.8660 -0.0000 0.5000
vn -0.0000 -0.0000 1.0000
vn 0.8660 -0.0000 0.5000
vn -0.0000 1.0000 -0.0000
vn -0.0000 -1.0000 -0.0000
vn -1.0000 -0.0000 -0.0000
vn 1.0000 -0.0000 -0.0000
vt 0.312988 0.844238
vt 0.318034 0.844238
vt 0.318034 0.874512
vt 0.312988 0.874512
vt 0.323079 0.844238
vt 0.323079 0.874512
vt 0.328125 0.844238
vt 0.328125 0.874512
vt 0.333171 0.844238
vt 0.333171 0.874512
vt 0.338216 0.844238
vt 0.338216 0.874512
vt 0.343262 0.844238
vt 0.343262 0.874512
vt 0.343262 0.859375
vt 0.335693 0.874512
vt 0.320557 0.874512
vt 0.312988 0.859375
vt 0.320557 0.844238
vt 0.335693 0.844238
vt 0.062988 0.812988
vt 0.124512 0.812988
vt 0.124512 0.815225
vt 0.062988 0.815225
vt 0.069141 0.812988
vt 0.069141 0.817910
vt 0.062988 0.817910
vt 0.124512 0.815785
vt 0.062988 0.815785
s 1
usemtl props
f 152/59/21 156/60/21 145/61/21 146/62/21
f 156/60/22 155/63/22 147/64/22 145/61/22
f 155/63/23 148/65/23 150/66/23 147/64/23
f 148/65/24 149/67/24 153/68/24 150/66/24
f 149/67/25 154/69/25 151/70/25 153/68/25
f 154/69/26 152/71/26 146/72/26 151/70/26
s 0
f 146/73/27 145/74/27 147/75/27 150/76/27 153/77/27 151/78/27
f 154/74/28 149/75/28 148/76/28 155/77/28 156/78/28 152/73/28
s 1
f 157/59/21 159/60/21 158/61/21 163/62/21
f 159/60/22 168/63/22 160/64/22 158/61/22
f 168/63/23 167/65/23 161/66/23 160/64/23
f 167/65/24 166/67/24 164/68/24 161/66/24
f 166/67/25 165/69/25 162/70/25 164/68/25
f 165/69/26 157/71/26 163/72/26 162/70/26
s 0
f 163/73/27 158/74/27 160/75/27 161/76/27 164/77/27 162/78/27
f 165/74/28 166/75/28 167/76/28 168/77/28 159/78/28 157/73/28
s 1
f 177/59/21 170/60/21 173/61/21 169/62/21
f 170/60/22 171/63/22 172/64/22 173/61/22
f 171/63/23 174/65/23 175/66/23 172/64/23
f 174/65/24 180/67/24 176/68/24 175/66/24
f 180/67/25 179/69/25 178/70/25 176/68/25
f 179/69/26 177/71/26 169/72/26 178/70/26
s 0
f 169/73/27 173/74/27 172/75/27 175/76/27 176/77/27 178/78/27
f 179/74/28 180/75/28 174/76/28 171/77/28 170/78/28 177/73/28
s 1
f 186/59/21 181/60/21 189/61/21 188/62/21
f 181/60/22 182/63/22 190/64/22 189/61/22
f 182/63/23 192/65/23 184/66/23 190/64/23
f 192/65/24 183/67/24 185/68/24 184/66/24
f 183/67/25 191/69/25 187/70/25 185/68/25
f 191/69/26 186/71/26 188/72/26 187/70/26
s 0
f 188/73/27 189/74/27 190/75/27 184/76/27 185/77/27 187/78/27
f 191/74/28 183/75/28 192/76/28 182/77/28 181/78/28 186/73/28
s 1
f 204/59/21 203/60/21 200/61/21 199/62/21
f 203/60/22 193/63/22 195/64/22 200/61/22
f 193/63/23 196/65/23 194/66/23 195/64/23
f 196/65/24 197/67/24 198/68/24 194/66/24
f 197/67/25 202/69/25 201/70/25 198/68/25
f 202/69/26 204/71/26 199/72/26 201/70/26
s 0
f 199/73/27 200/74/27 195/75/27 194/76/27 198/77/27 201/78/27
f 202/74/28 197/75/28 196/76/28 193/77/28 203/78/28 204/73/28
s 1
f 205/59/21 206/60/21 207/61/21 208/62/21
f 206/60/22 216/63/22 212/64/22 207/61/22
f 216/63/23 215/65/23 209/66/23 212/64/23
f 215/65/24 214/67/24 210/68/24 209/66/24
f 214/67/25 213/69/25 211/70/25 210/68/25
f 213/69/26 205/71/26 208/72/26 211/70/26
s 0
f 208/73/27 207/74/27 212/75/27 209/76/27 210/77/27 211/78/27
f 213/74/28 214/75/28 215/76/28 216/77/28 206/78/28 205/73/28
s 1
f 217/59/21 218/60/21 226/61/21 225/62/21
f 218/60/22 219/63/22 227/64/22 226/61/22
f 219/63/23 228/65/23 221/66/23 227/64/23
f 228/65/24 222/67/24 220/68/24 221/66/24
f 222/67/25 224/69/25 223/70/25 220/68/25
f 224/69/26 217/71/26 225/72/26 223/70/26
s 0
f 225/73/27 226/74/27 227/75/27 221/76/27 220/77/27 223/78/27
f 224/74/28 222/75/28 228/76/28 219/77/28 218/78/28 217/73/28
s 1
f 240/59/21 229/60/21 236/61/21 235/62/21
f 229/60/22 239/63/22 237/64/22 236/61/22
f 239/63/23 230/65/23 232/66/23 237/64/23
f 230/65/24 233/67/24 231/68/24 232/66/24
f 233/67/25 234/69/25 238/70/25 231/68/25
f 234/69/26 240/71/26 235/72/26 238/70/26
s 0
f 235/73/27 236/74/27 237/75/27 232/76/27 231/77/27 238/78/27
f 234/74/28 233/75/28 230/76/28 239/77/28 229/78/28 240/73/28
s 1
f 249/59/21 241/60/21 243/61/21 250/62/21
f 241/60/22 242/63/22 252/64/22 243/61/22
f 242/63/23 244/65/23 246/66/23 252/64/23
f 244/65/24 247/67/24 245/68/24 246/66/24
f 247/67/25 248/69/25 251/70/25 245/68/25
f 248/69/26 249/71/26 250/72/26 251/70/26
s 0
f 250/73/27 243/74/27 252/75/27 246/76/27 245/77/27 251/78/27
f 248/74/28 247/75/28 244/76/28 242/77/28 241/78/28 249/73/28
f 255/79/25 253/80/25 258/81/25 257/82/25
f 260/79/22 254/80/22 259/81/22 256/82/22
f 254/79/29 255/83/29 257/84/29 259/85/29
f 253/79/30 260/83/30 256/84/30 258/85/30
f 257/79/27 258/80/27 256/86/27 259/87/27
f 254/79/28 260/80/28 253/86/28 255/87/28
f 261/79/25 262/80/25 263/81/25 265/82/25
f 268/79/22 264/80/22 267/81/22 266/82/22
f 264/79/29 261/83/29 265/84/29 267/85/29
f 262/79/30 268/83/30 266/84/30 263/85/30
f 265/79/27 263/80/27 266/86/27 267/87/27
f 264/79/28 268/80/28 262/86/28 261/87/28
f 274/79/25 269/80/25 270/81/25 271/82/25
f 276/79/22 272/80/22 273/81/22 275/82/22
f 272/79/29 274/83/29 271/84/29 273/85/29
f 269/79/30 276/83/30 275/84/30 270/85/30
f 271/79/27 270/80/27 275/86/27 273/87/27
f 272/79/28 276/80/28 269/86/28 274/87/28
