# Blender 4.5.14 LTS
# www.blender.org
mtllib wall_post_stone.mtl
o wall_post_stone
v -0.100000 1.000000 -0.100000 1.0000 1.0000 1.0000
v 0.100000 0.000000 -0.100000 0.8509 0.8509 0.8509
v -0.100000 0.000000 -0.100000 0.8470 0.8470 0.8470
v -0.100000 1.000000 0.100000 1.0000 1.0000 1.0000
v 0.100000 2.000000 0.100000 1.0000 1.0000 1.0000
v -0.100000 2.000000 0.100000 1.0000 1.0000 1.0000
v 0.100000 3.000000 0.100000 1.0000 1.0000 1.0000
v -0.100000 3.000000 0.100000 1.0000 1.0000 1.0000
v 0.100000 3.000000 -0.100000 1.0000 1.0000 1.0000
v 0.100000 2.000000 -0.100000 1.0000 1.0000 1.0000
v 0.100000 0.000000 0.100000 0.8509 0.8509 0.8509
v 0.100000 1.000000 -0.100000 1.0000 1.0000 1.0000
v 0.100000 1.000000 0.100000 1.0000 1.0000 1.0000
v -0.100000 0.000000 0.100000 0.8470 0.8470 0.8470
v -0.100000 2.000000 -0.100000 1.0000 1.0000 1.0000
v -0.100000 3.000000 -0.100000 1.0000 1.0000 1.0000
vn -0.0000 -0.0000 1.0000
vn -0.0000 -0.0000 -1.0000
vn -0.0000 1.0000 -0.0000
vn 1.0000 -0.0000 -0.0000
vn -1.0000 -0.0000 -0.0000
vt 0.000488 0.875488
vt 0.025293 0.875488
vt 0.025293 0.999512
vt 0.000488 0.999512
vt 0.124512 0.999512
vt 0.099707 0.999512
vt 0.099707 0.875488
vt 0.124512 0.875488
vt 0.375488 0.875488
vt 0.400293 0.875488
vt 0.400293 0.999512
vt 0.375488 0.999512
vt 0.499512 0.999512
vt 0.474707 0.999512
vt 0.474707 0.875488
vt 0.499512 0.875488
vt 0.400293 0.900293
vt 0.375488 0.900293
s 0
usemtl props
f 14/1/1 11/2/1 13/3/1 4/4/1
f 1/5/2 12/6/2 2/7/2 3/8/2
f 4/9/1 13/10/1 5/11/1 6/12/1
f 15/13/2 10/14/2 12/15/2 1/16/2
f 6/9/1 5/10/1 7/11/1 8/12/1
f 16/13/2 9/14/2 10/15/2 15/16/2
f 8/9/3 7/10/3 9/17/3 16/18/3
f 11/1/4 2/2/4 12/3/4 13/4/4
f 13/9/4 12/10/4 10/11/4 5/12/4
f 5/9/4 10/10/4 9/11/4 7/12/4
f 3/1/5 14/2/5 4/3/5 1/4/5
f 1/9/5 4/10/5 6/11/5 15/12/5
f 15/9/5 6/10/5 8/11/5 16/12/5
