# Blender 4.5.14 LTS
# www.blender.org
mtllib wall_doorway_stone.mtl
o wall_doorway_stone
v -1.000000 0.000000 0.100000 0.8470 0.8470 0.8470
v -0.500000 0.000000 0.100000 0.8509 0.8509 0.8509
v -1.000000 1.000000 -0.100000 1.0000 1.0000 1.0000
v -1.000000 0.000000 -0.100000 0.8509 0.8509 0.8509
v -1.000000 1.000000 0.100000 1.0000 1.0000 1.0000
v -0.500000 2.000000 0.100000 1.0000 1.0000 1.0000
v -1.000000 2.000000 -0.100000 1.0000 1.0000 1.0000
v -0.500000 2.000000 -0.100000 1.0000 1.0000 1.0000
v -1.000000 2.000000 0.100000 1.0000 1.0000 1.0000
v -1.000000 3.000000 0.100000 1.0000 1.0000 1.0000
v -1.000000 3.000000 -0.100000 1.0000 1.0000 1.0000
v -0.500000 3.000000 -0.100000 1.0000 1.0000 1.0000
v -0.500000 3.000000 0.100000 1.0000 1.0000 1.0000
v -0.500000 0.000000 -0.100000 0.8509 0.8509 0.8509
v -0.500000 1.000000 -0.100000 1.0000 1.0000 1.0000
v -0.500000 1.000000 0.100000 1.0000 1.0000 1.0000
v -0.500000 1.800000 -0.100000 0.9921 0.9921 0.9921
v -0.500000 1.800000 0.100000 0.9843 0.9843 0.9843
vn -0.0000 -0.0000 1.0000
vn -0.0000 -0.0000 -1.0000
vn -0.0000 1.0000 -0.0000
vn 1.0000 -0.0000 -0.0000
vt 0.000488 0.875488
vt 0.062500 0.875488
vt 0.062500 0.999512
vt 0.000488 0.999512
vt 0.124512 0.999512
vt 0.124512 0.875488
vt 0.375488 0.875488
vt 0.437500 0.875488
vt 0.437500 0.999512
vt 0.375488 0.999512
vt 0.499512 0.999512
vt 0.499512 0.875488
vt 0.437500 0.900293
vt 0.375488 0.900293
vt 0.025293 0.875488
vt 0.025293 0.999512
vt 0.400293 0.875488
vt 0.400293 0.974707
vt 0.375488 0.974707
s 0
usemtl props
f 1/1/1 2/2/1 16/3/1 5/4/1
f 3/5/2 15/3/2 14/2/2 4/6/2
f 5/7/1 16/8/1 6/9/1 9/10/1
f 7/11/2 8/9/2 15/8/2 3/12/2
f 9/7/1 6/8/1 13/9/1 10/10/1
f 11/11/2 12/9/2 8/8/2 7/12/2
f 10/7/3 13/8/3 12/13/3 11/14/3
f 2/1/4 14/15/4 15/16/4 16/4/4
f 16/7/4 15/17/4 17/18/4 18/19/4
o wall_doorway_stone_1
v -0.500000 2.000000 0.100000 1.0000 1.0000 1.0000
v -0.461940 3.000000 0.100000 1.0000 1.0000 1.0000
v -0.500000 3.000000 0.100000 1.0000 1.0000 1.0000
v -0.461940 3.000000 -0.100000 1.0000 1.0000 1.0000
v -0.461940 2.000000 -0.100000 1.0000 1.0000 1.0000
v -0.500000 2.000000 -0.100000 1.0000 1.0000 1.0000
v -0.461940 2.000000 0.100000 1.0000 1.0000 1.0000
v -0.456154 2.000000 0.100000 1.0000 1.0000 1.0000
v -0.456154 3.000000 -0.100000 1.0000 1.0000 1.0000
v -0.353553 2.153553 0.100000 0.9843 0.9843 0.9843
v -0.456154 3.000000 0.100000 1.0000 1.0000 1.0000
v -0.353553 3.000000 -0.100000 1.0000 1.0000 1.0000
v -0.353553 2.153553 -0.100000 0.9843 0.9843 0.9843
v -0.456154 2.000000 -0.100000 1.0000 1.0000 1.0000
v -0.191342 2.261940 0.100000 0.9882 0.9882 0.9882
v -0.191342 3.000000 0.100000 1.0000 1.0000 1.0000
v -0.353553 3.000000 0.100000 1.0000 1.0000 1.0000
v 0.000000 2.300000 0.100000 0.9882 0.9882 0.9882
v 0.000000 3.000000 0.100000 1.0000 1.0000 1.0000
v -0.191342 3.000000 -0.100000 1.0000 1.0000 1.0000
v -0.191342 2.261940 -0.100000 0.9843 0.9843 0.9843
v 0.191342 2.261940 0.100000 0.9882 0.9882 0.9882
v 0.000000 2.300000 -0.100000 0.9843 0.9843 0.9843
v 0.191342 3.000000 0.100000 1.0000 1.0000 1.0000
v 0.191342 3.000000 -0.100000 1.0000 1.0000 1.0000
v 0.353553 3.000000 -0.100000 1.0000 1.0000 1.0000
v 0.353553 3.000000 0.100000 1.0000 1.0000 1.0000
v 0.456154 2.000000 -0.100000 1.0000 1.0000 1.0000
v 0.353553 2.153553 -0.100000 0.9843 0.9843 0.9843
v 0.456154 2.000000 0.100000 1.0000 1.0000 1.0000
v 0.461940 2.000000 -0.100000 1.0000 1.0000 1.0000
v 0.461940 2.000000 0.100000 1.0000 1.0000 1.0000
v 0.461940 3.000000 0.100000 1.0000 1.0000 1.0000
v 0.456154 3.000000 0.100000 1.0000 1.0000 1.0000
v 0.456154 3.000000 -0.100000 1.0000 1.0000 1.0000
v 0.500000 2.000000 0.100000 1.0000 1.0000 1.0000
v 0.500000 1.800000 -0.100000 1.0000 1.0000 1.0000
v 0.500000 3.000000 0.100000 1.0000 1.0000 1.0000
v 0.461940 3.000000 -0.100000 1.0000 1.0000 1.0000
v 0.500000 3.000000 -0.100000 1.0000 1.0000 1.0000
v 0.500000 2.000000 -0.100000 1.0000 1.0000 1.0000
v -0.500000 3.000000 -0.100000 1.0000 1.0000 1.0000
v 0.000000 3.000000 -0.100000 1.0000 1.0000 1.0000
v -0.500000 1.800000 -0.100000 0.9960 0.9960 0.9960
v -0.500000 1.800000 0.100000 0.9921 0.9921 0.9921
v -0.461940 1.991342 -0.100000 0.9882 0.9882 0.9882
v -0.461940 1.991342 0.100000 0.9882 0.9882 0.9882
v 0.191342 2.261940 -0.100000 0.9843 0.9843 0.9843
v 0.353553 2.153553 0.100000 0.9882 0.9882 0.9882
v 0.461940 1.991342 -0.100000 0.9882 0.9882 0.9882
v 0.500000 1.800000 0.100000 1.0000 1.0000 1.0000
v 0.461940 1.991342 0.100000 0.9921 0.9921 0.9921
vn -0.0000 -0.0000 1.0000
vn -0.0000 -0.0000 -1.0000
vn -0.0000 1.0000 -0.0000
vn 0.9808 -0.1951 -0.0000
vn 0.8315 -0.5556 -0.0000
vn 0.5556 -0.8315 -0.0000
vn 0.1951 -0.9808 -0.0000
vn -0.1951 -0.9808 -0.0000
vn -0.5556 -0.8315 -0.0000
vn -0.8315 -0.5556 -0.0000
vn -0.9808 -0.1951 -0.0000
vt 0.437500 0.974707
vt 0.442220 0.998438
vt 0.442220 0.999512
vt 0.437500 0.999512
vt 0.432780 0.999512
vt 0.432780 0.998438
vt 0.437500 0.875488
vt 0.442220 0.875488
vt 0.432780 0.875488
vt 0.442938 0.999512
vt 0.432062 0.999512
vt 0.442938 0.875488
vt 0.432062 0.875488
vt 0.455663 0.894533
vt 0.455663 0.999512
vt 0.419337 0.999512
vt 0.419337 0.894533
vt 0.475781 0.907975
vt 0.475781 0.999512
vt 0.399219 0.999512
vt 0.399219 0.907975
vt 0.499512 0.912695
vt 0.499512 0.999512
vt 0.375488 0.999512
vt 0.375488 0.912695
vt 0.499512 0.875488
vt 0.499512 0.900293
vt 0.437500 0.900293
vt 0.375488 0.875488
vt 0.375488 0.900293
vt 0.442220 0.900293
vt 0.455663 0.900293
vt 0.455663 0.875488
vt 0.475781 0.900293
vt 0.475781 0.875488
vt 0.399219 0.900293
vt 0.399219 0.875488
vt 0.419337 0.900293
vt 0.419337 0.875488
vt 0.432780 0.900293
s 0
usemtl props
f 63/20/5 65/21/5 25/22/5 19/23/5
f 24/23/6 23/24/6 64/25/6 62/20/6
f 19/26/5 25/27/5 20/22/5 21/23/5
f 60/23/6 22/24/6 23/28/6 24/26/6
f 65/21/5 26/29/5 25/22/5
f 23/24/6 32/30/6 64/25/6
f 25/27/5 26/31/5 29/29/5 20/22/5
f 22/24/6 27/30/6 32/32/6 23/28/6
f 26/31/5 28/33/5 35/34/5 29/29/5
f 27/30/6 30/35/6 31/36/6 32/32/6
f 28/33/5 33/37/5 34/38/5 35/34/5
f 30/35/6 38/39/6 39/40/6 31/36/6
f 33/37/5 36/41/5 37/42/5 34/38/5
f 38/39/6 61/43/6 41/44/6 39/40/6
f 36/44/5 40/40/5 42/39/5 37/43/5
f 61/42/6 43/38/6 66/37/6 41/41/6
f 40/40/5 67/36/5 45/35/5 42/39/5
f 43/38/6 44/34/6 47/33/6 66/37/6
f 67/36/5 48/32/5 52/30/5 45/35/5
f 44/34/6 53/29/6 46/31/6 47/33/6
f 48/30/5 70/25/5 50/24/5
f 49/22/6 68/21/6 46/29/6
f 48/32/5 50/28/5 51/24/5 52/30/5
f 53/29/6 57/22/6 49/27/6 46/31/6
f 70/25/5 69/20/5 54/23/5 50/24/5
f 49/22/6 59/23/6 55/20/6 68/21/6
f 50/28/5 54/26/5 56/23/5 51/24/5
f 57/22/6 58/23/6 59/26/6 49/27/6
f 21/26/7 37/45/7 61/46/7 60/47/7
f 37/48/7 56/26/7 58/47/7 61/49/7
f 62/47/8 64/50/8 65/27/8 63/26/8
f 64/50/9 31/51/9 28/52/9 65/27/9
f 31/51/10 39/53/10 33/54/10 28/52/10
f 39/53/11 41/46/11 36/45/11 33/54/11
f 41/49/12 66/55/12 40/56/12 36/48/12
f 66/55/13 47/57/13 67/58/13 40/56/13
f 47/57/14 68/59/14 70/28/14 67/58/14
f 68/59/15 55/47/15 69/26/15 70/28/15
o wall_doorway_stone_2
v 1.000000 0.000000 0.100000 0.8470 0.8470 0.8470
v 1.000000 1.000000 -0.100000 1.0000 1.0000 1.0000
v 1.000000 0.000000 -0.100000 0.8509 0.8509 0.8509
v 1.000000 1.000000 0.100000 1.0000 1.0000 1.0000
v 1.000000 2.000000 -0.100000 1.0000 1.0000 1.0000
v 0.500000 1.000000 -0.100000 1.0000 1.0000 1.0000
v 0.500000 2.000000 0.100000 1.0000 1.0000 1.0000
v 1.000000 2.000000 0.100000 1.0000 1.0000 1.0000
v 1.000000 3.000000 0.100000 1.0000 1.0000 1.0000
v 0.500000 3.000000 0.100000 1.0000 1.0000 1.0000
v 0.500000 3.000000 -0.100000 1.0000 1.0000 1.0000
v 1.000000 3.000000 -0.100000 1.0000 1.0000 1.0000
v 0.500000 2.000000 -0.100000 1.0000 1.0000 1.0000
v 0.500000 0.000000 -0.100000 0.8470 0.8470 0.8470
v 0.500000 0.000000 0.100000 0.8470 0.8470 0.8470
v 0.500000 1.000000 0.100000 1.0000 1.0000 1.0000
v 0.500000 1.800000 0.100000 0.9921 0.9921 0.9921
v 0.500000 1.800000 -0.100000 0.9921 0.9921 0.9921
vn -0.0000 -0.0000 1.0000
vn -0.0000 -0.0000 -1.0000
vn -0.0000 1.0000 -0.0000
vn -1.0000 -0.0000 -0.0000
vt 0.062500 0.875488
vt 0.124512 0.875488
vt 0.124512 0.999512
vt 0.062500 0.999512
vt 0.000488 0.999512
vt 0.000488 0.875488
vt 0.437500 0.875488
vt 0.499512 0.875488
vt 0.499512 0.999512
vt 0.437500 0.999512
vt 0.375488 0.999512
vt 0.375488 0.875488
vt 0.499512 0.900293
vt 0.437500 0.900293
vt 0.025293 0.875488
vt 0.025293 0.999512
vt 0.400293 0.875488
vt 0.400293 0.974707
vt 0.375488 0.974707
s 0
usemtl props
f 85/60/16 71/61/16 74/62/16 86/63/16
f 76/63/17 72/64/17 73/65/17 84/60/17
f 86/66/16 74/67/16 78/68/16 77/69/16
f 83/69/17 75/70/17 72/71/17 76/66/17
f 77/66/16 78/67/16 79/68/16 80/69/16
f 81/69/17 82/70/17 75/71/17 83/66/17
f 80/66/18 79/67/18 82/72/18 81/73/18
f 84/65/19 85/74/19 86/75/19 76/64/19
f 76/71/19 86/76/19 87/77/19 88/78/19
